<svg width="568" height="237" viewBox="0 0 568 237" fill="none" xmlns="http://www.w3.org/2000/svg">
<path d="M564.463 20.8288C560.878 18.2462 555.974 19.1252 553.509 22.792C551.044 26.4589 551.952 31.5251 555.537 34.1077C559.122 36.6903 564.026 35.8113 566.491 32.1445C568.956 28.4776 568.048 23.4114 564.463 20.8288ZM381.843 209.945L398.306 205.545L386.217 193.002L381.843 209.945ZM558.953 26.3821L390.173 199.254L392.267 201.427L561.047 28.5544L558.953 26.3821Z" fill="white"/>
<path d="M5.63133 19.8768C1.43839 21.2698 -0.900174 25.8201 0.408008 30.0403C1.71619 34.2605 6.17573 36.5524 10.3687 35.1594C14.5616 33.7664 16.9002 29.216 15.592 24.9958C14.2838 20.7757 9.82427 18.4838 5.63133 19.8768ZM64.256 208.999L68.0333 191.941L51.5962 197.402L64.256 208.999ZM6.5765 27.991L58.8354 196.577L61.6823 195.631L9.4235 27.0451L6.5765 27.991Z" fill="white"/>
<path d="M261.618 22.5068C257.215 22.141 253.369 25.4155 253.027 29.8206C252.686 34.2257 255.979 38.0932 260.382 38.459C264.785 38.8248 268.631 35.5503 268.973 31.1452C269.314 26.7402 266.021 22.8726 261.618 22.5068ZM247.089 209.945L256.879 195.706L239.618 194.272L247.089 209.945ZM259.505 30.3587L246.638 196.361L249.627 196.609L262.495 30.6071L259.505 30.3587Z" fill="white"/>
</svg>
