<svg width="331" height="126" viewBox="0 0 331 126" fill="none" xmlns="http://www.w3.org/2000/svg">
<path d="M327.314 7.91659C323.579 5.55485 318.375 6.48416 315.689 9.99225C313.003 13.5003 313.853 18.2588 317.587 20.6205C321.321 22.9823 326.525 22.053 329.211 18.5449C331.897 15.0368 331.048 10.2783 327.314 7.91659ZM214.958 110.928L232.495 106.572L220.093 94.8969L214.958 110.928ZM321.376 13.2575L224.086 100.743L226.234 102.765L323.524 15.2796L321.376 13.2575Z" fill="white"/>
<path d="M6.3365 7.45641C2.09495 8.69354 -0.151004 13.0738 1.32001 17.24C2.79102 21.4062 7.42196 23.7807 11.6635 22.5436C15.905 21.3065 18.151 16.9262 16.68 12.76C15.209 8.59376 10.578 6.21928 6.3365 7.45641ZM42.2963 109.302L45.616 92.7328L28.9884 97.5826L42.2963 109.302ZM7.56 15.42L36.3616 96.9921L39.2416 96.1521L10.44 14.58L7.56 15.42Z" fill="white"/>
<path d="M158.547 7.031C154.141 6.70961 150.254 10.0169 149.865 14.4181C149.476 18.8192 152.734 22.6476 157.14 22.969C161.547 23.2904 165.434 19.9831 165.823 15.5819C166.211 11.1808 162.954 7.35239 158.547 7.031ZM150 103.838L159.957 89.526L142.682 88.266L150 103.838ZM156.348 14.8909L149.691 90.2811L152.683 90.4993L159.34 15.1091L156.348 14.8909Z" fill="white"/>
</svg>
