<svg width="138" height="65" viewBox="0 0 138 65" fill="none" xmlns="http://www.w3.org/2000/svg">
<path d="M1.50347 2.72606C0.195085 3.40219 -0.341036 5.02281 0.306009 6.34582C0.953054 7.66883 2.53824 8.19323 3.84663 7.5171C5.15501 6.84097 5.69113 5.22035 5.04409 3.89734C4.39704 2.57433 2.81185 2.04993 1.50347 2.72606ZM29.0356 59.0208L29.4034 53.2039L24.2743 55.8545L29.0356 59.0208ZM2.23085 5.35113L26.6143 55.2079L27.5027 54.7488L3.11924 4.89204L2.23085 5.35113Z" fill="white"/>
<path d="M72.6322 1.99653C71.1645 1.87419 69.8827 2.96538 69.7693 4.43377C69.6559 5.90215 70.7537 7.19168 72.2214 7.31402C73.689 7.43635 74.9708 6.34517 75.0842 4.87678C75.1977 3.4084 74.0998 2.11886 72.6322 1.99653ZM67.8052 64.477L71.0671 59.7317L65.3135 59.2521L67.8052 64.477ZM71.9285 4.61374L67.6535 59.9489L68.6501 60.0319L72.925 4.69681L71.9285 4.61374Z" fill="white"/>
<path d="M135.81 1.46473C134.376 1.12595 132.981 2.02225 132.694 3.46667C132.406 4.91109 133.335 6.35665 134.768 6.69543C136.202 7.03421 137.597 6.13791 137.884 4.69349C138.172 3.24907 137.243 1.8035 135.81 1.46473ZM106.5 58.8895L111.341 55.9376L106.264 53.0736L106.5 58.8895ZM134.849 3.83205L108.133 54.696L109.012 55.192L135.729 4.32811L134.849 3.83205Z" fill="white"/>
</svg>
