<svg width="90" height="90" viewBox="0 0 90 90" fill="none" xmlns="http://www.w3.org/2000/svg">
<circle cx="45" cy="45" r="42.5" stroke="url(#paint0_linear_45_19)" stroke-width="5"/>
<g clip-path="url(#clip0_45_19)">
<path d="M35.6988 15H36.3387C40.2957 15.0914 43.8828 16.1488 47.1 18.1723C54.2754 22.6852 58.1543 31.0816 56.6824 39.5016C56.6814 39.5075 56.682 39.5136 56.6841 39.5192C56.6862 39.5248 56.6897 39.5298 56.6944 39.5336C56.699 39.5374 56.7046 39.5399 56.7105 39.5409C56.7164 39.5419 56.7225 39.5412 56.7281 39.5391C60.0797 38.2141 63.4879 36.8621 66.9527 35.4832C68.1035 35.0262 69.3164 35.2055 70.1355 36.1758C70.3129 36.3859 70.5277 36.809 70.7801 37.4449C72.1176 40.8129 73.4527 44.1816 74.7855 47.5512C74.8863 47.8051 74.9578 48.0695 75 48.3445V48.8367C74.8312 49.9352 74.2555 50.6785 73.2727 51.0668C70.5492 52.1441 67.8141 53.2289 65.0672 54.3211C64.4734 54.557 64.0848 54.7543 63.9012 54.9129C63.4598 55.2926 63.2039 55.7617 63.1336 56.3203C63.1 56.5828 63.1141 56.9223 63.1758 57.3387C64.548 66.627 57.5625 74.7469 48.2121 75H47.7715C43.1176 74.8203 39.2602 73.0062 36.1992 69.5578C35.9961 69.3289 35.643 68.8676 35.1398 68.1738C35.1117 68.134 35.0836 68.134 35.0555 68.1738C33.2754 70.6816 29.4293 70.2961 28.275 67.3828C27.1242 64.4789 29.6824 61.5762 32.7047 62.175C32.7113 62.1762 32.7181 62.1758 32.7246 62.1738C32.731 62.1719 32.7369 62.1684 32.7417 62.1637C32.7465 62.159 32.7501 62.1532 32.7523 62.1468C32.7544 62.1404 32.7549 62.1336 32.7539 62.127C32.4523 60.3449 32.4648 58.5656 32.7914 56.7891C32.7926 56.7825 32.7925 56.7758 32.791 56.7693C32.7896 56.7628 32.7869 56.7567 32.7831 56.7512C32.7793 56.7458 32.7744 56.7411 32.7688 56.7376C32.7632 56.734 32.7569 56.7316 32.7504 56.7305C27.5273 55.9266 22.7684 53.1598 19.5281 49.0266C16.6883 45.4039 15.1789 41.2562 15 36.5836V35.2641C15.4945 24.0059 24.4371 15.2555 35.6988 15ZM31.5223 17.5488C31.4645 17.5621 31.4598 17.5855 31.5082 17.6191L35.9637 20.7516C35.9746 20.7594 35.9877 20.7636 36.0012 20.7636C36.0146 20.7636 36.0277 20.7594 36.0387 20.7516L40.5129 17.6074C40.5172 17.6046 40.5206 17.6005 40.5226 17.5957C40.5246 17.591 40.5252 17.5857 40.5242 17.5805C40.5232 17.5753 40.5207 17.5704 40.517 17.5665C40.5134 17.5625 40.5087 17.5597 40.5035 17.5582C37.5559 16.8441 34.5621 16.841 31.5223 17.5488ZM28.9758 18.3551C26.0074 19.5293 23.4047 21.4406 21.3832 23.8898C21.3717 23.9035 21.3638 23.9198 21.3604 23.9372C21.3569 23.9546 21.3579 23.9726 21.3633 23.9895L23.4773 30.8297C23.4803 30.839 23.4855 30.8476 23.4927 30.8545C23.4998 30.8615 23.5087 30.8666 23.5184 30.8695L28.1848 32.2418C28.1947 32.2447 28.2051 32.2454 28.2152 32.2438C28.2254 32.2421 28.235 32.2383 28.2434 32.2324L34.9547 27.5145C34.9696 27.504 34.9817 27.4902 34.9901 27.4743C34.9984 27.4584 35.0028 27.4408 35.0027 27.423V22.5656C35.0027 22.5352 34.9902 22.5113 34.9652 22.4941L29.0941 18.3691C29.0574 18.3426 29.018 18.3379 28.9758 18.3551ZM43.6582 18.6164C43.4418 18.5195 43.2242 18.4344 43.0055 18.3609C42.9672 18.3477 42.9312 18.3527 42.8977 18.3762L37.0523 22.4848C37.018 22.509 37.0008 22.5422 37.0008 22.5844V27.4324C37.0008 27.4473 37.0044 27.462 37.0113 27.4753C37.0183 27.4885 37.0283 27.5 37.0406 27.5086L43.7402 32.2172C43.7563 32.2285 43.7748 32.2361 43.7942 32.2393C43.8137 32.2426 43.8337 32.2414 43.8527 32.2359L48.4559 30.8801C48.4734 30.875 48.4894 30.8656 48.5023 30.8527C48.5152 30.8398 48.5246 30.8238 48.5297 30.8063L50.6344 23.9965C50.6477 23.9543 50.6402 23.9164 50.6121 23.8828C48.7254 21.5977 46.4074 19.8422 43.6582 18.6164ZM54.941 34.5844C54.7148 31.5504 53.7633 28.5773 52.1391 26.0016C52.1372 25.9985 52.1344 25.996 52.1311 25.9944C52.1278 25.9929 52.1241 25.9923 52.1205 25.9928C52.1169 25.9933 52.1136 25.9949 52.1108 25.9972C52.1081 25.9996 52.1061 26.0028 52.1051 26.0062L50.4891 31.2375C50.4843 31.2522 50.4842 31.2679 50.4888 31.2827C50.4934 31.2974 50.5025 31.3103 50.5148 31.3195L54.8953 34.609C54.8996 34.6125 54.9049 34.6146 54.9104 34.6151C54.9159 34.6157 54.9215 34.6145 54.9264 34.6119C54.9312 34.6093 54.9352 34.6053 54.9379 34.6004C54.9405 34.5955 54.9416 34.5899 54.941 34.5844ZM19.8469 26.0309C18.2215 28.5891 17.2746 31.5914 17.0613 34.5809C17.0574 34.6285 17.0746 34.6383 17.1129 34.6102L21.4922 31.3219C21.5026 31.3135 21.5103 31.3023 21.5143 31.2898C21.5182 31.2772 21.5183 31.2639 21.5145 31.2516L19.9043 26.0391C19.9027 26.0331 19.8993 26.0278 19.8947 26.0237C19.8901 26.0197 19.8844 26.017 19.8783 26.0162C19.8722 26.0153 19.866 26.0162 19.8604 26.0188C19.8548 26.0214 19.8501 26.0256 19.8469 26.0309ZM39.9363 40.9992C39.9493 40.9992 39.9619 40.9951 39.9724 40.9875C39.9829 40.9799 39.9908 40.9693 39.9949 40.957L42.4102 33.7828C42.4147 33.7701 42.415 33.7562 42.411 33.7433C42.407 33.7304 42.3989 33.7192 42.3879 33.7113L36.0375 29.2477C36.0272 29.2406 36.0149 29.2367 36.0023 29.2367C35.9898 29.2367 35.9775 29.2406 35.9672 29.2477L29.6133 33.7125C29.6023 33.7204 29.5942 33.7316 29.5902 33.7445C29.5861 33.7574 29.5864 33.7713 29.591 33.784L32.0051 40.957C32.0092 40.9693 32.0171 40.9799 32.0276 40.9875C32.0381 40.9951 32.0507 40.9992 32.0637 40.9992H39.9363ZM17.0543 37.2023C17.2559 40.2973 18.1922 43.3289 19.8352 45.9551C19.8434 45.968 19.8548 45.9786 19.8683 45.986C19.8818 45.9933 19.897 45.9972 19.9125 45.9973H27.191C27.2324 45.9973 27.2648 45.9805 27.2883 45.9469L30.1453 41.9004C30.175 41.8582 30.1816 41.8129 30.1652 41.7645L27.6234 34.2129C27.618 34.1959 27.6084 34.1805 27.5955 34.1681C27.5826 34.1556 27.5669 34.1464 27.5496 34.1414L22.9441 32.7855C22.9098 32.7754 22.8785 32.7809 22.8504 32.802L17.0883 37.1297C17.0641 37.1484 17.0527 37.1727 17.0543 37.2023ZM43.834 44.6531L54.3984 40.4625C54.4383 40.4469 54.4629 40.418 54.4723 40.3758C54.7121 39.3469 54.868 38.2902 54.9398 37.2059C54.9405 37.1899 54.9374 37.174 54.9307 37.1595C54.9239 37.1451 54.9138 37.1324 54.9012 37.1227L49.1496 32.8031C49.1372 32.7937 49.1227 32.7873 49.1073 32.7844C49.0918 32.7816 49.0758 32.7823 49.0605 32.7867L44.4434 34.1437C44.4267 34.1488 44.4114 34.1578 44.3988 34.17C44.3861 34.1822 44.3765 34.1973 44.3707 34.2141L41.8266 41.7773C41.8125 41.818 41.818 41.8562 41.843 41.8922L43.7883 44.6391C43.7934 44.6462 43.8007 44.6514 43.809 44.6539C43.8172 44.6565 43.826 44.6562 43.834 44.6531ZM68.7879 43.5738C69.2051 44.632 68.7117 45.8016 67.6641 46.2094C66.868 46.5195 66.0832 46.8332 65.3098 47.1504C64.35 47.5453 63.5484 47.5512 62.7727 46.8199C62.5914 46.6488 62.3746 46.2434 62.1223 45.6035C61.427 43.8395 60.7461 42.1152 60.0797 40.4309C60.0768 40.4231 60.0725 40.416 60.0668 40.41C60.0612 40.404 60.0544 40.3991 60.0469 40.3957C60.0394 40.3923 60.0312 40.3905 60.023 40.3903C60.0147 40.3901 60.0065 40.3915 59.9988 40.3945C54.8238 42.4461 49.6488 44.4984 44.4738 46.5516C43.2527 47.0359 42.5297 47.3309 42.3047 47.4363C35.741 50.5066 32.7598 58.2258 35.6449 64.8984C36.6793 67.293 38.2781 69.2246 40.4414 70.6934C47.7105 75.6293 57.6703 72.2965 60.5941 64.0652C61.3355 61.977 61.5359 59.8352 61.1953 57.6398C61.1203 57.1539 61.0949 56.7223 61.1191 56.3449C61.2246 54.7395 62.2465 53.2887 63.7746 52.6816C66.7902 51.4848 69.7211 50.3215 72.5672 49.1918C72.9516 49.0395 73.077 48.6633 72.934 48.3035C71.4941 44.6582 70.0777 41.0855 68.6848 37.5855C68.5477 37.241 68.1035 37.1637 67.7695 37.3043C67.3516 37.4785 66.952 37.6359 66.5707 37.7766C66.5207 37.7945 66.5055 37.8285 66.525 37.8785C67.3125 39.8465 68.0668 41.7449 68.7879 43.5738ZM64.6601 38.5959C64.6577 38.59 64.6543 38.5847 64.6499 38.5802C64.6455 38.5756 64.6402 38.572 64.6344 38.5695C64.6286 38.567 64.6224 38.5657 64.6161 38.5656C64.6098 38.5655 64.6035 38.5667 64.5976 38.569L61.9583 39.6193C61.9465 39.6241 61.937 39.6333 61.932 39.645C61.9269 39.6567 61.9267 39.6699 61.9314 39.6817L64.1993 45.3807C64.2017 45.3865 64.2051 45.3919 64.2095 45.3964C64.2139 45.4009 64.2192 45.4045 64.225 45.407C64.2308 45.4095 64.237 45.4109 64.2433 45.4109C64.2496 45.411 64.2559 45.4099 64.2617 45.4075L66.9011 44.3572C66.9129 44.3525 66.9224 44.3433 66.9274 44.3316C66.9325 44.3199 66.9326 44.3067 66.9279 44.2948L64.6601 38.5959ZM41.809 45.4617C41.8645 45.4367 41.8746 45.3992 41.8395 45.3492L40.2223 43.0547C40.198 43.0195 40.1648 43.002 40.1227 43.002H31.8504C31.8395 43.002 31.8288 43.0047 31.8192 43.0098C31.8096 43.0149 31.8014 43.0223 31.7953 43.0312L28.916 47.1129C28.9044 47.1295 28.8968 47.1486 28.894 47.1686C28.8911 47.1886 28.8931 47.2088 28.8996 47.2277L31.2855 54.3223C31.2935 54.345 31.3069 54.3653 31.3245 54.3815C31.3421 54.3976 31.3633 54.4091 31.3863 54.4148C31.9988 54.5656 32.6156 54.6871 33.2367 54.7793C33.2758 54.7848 33.302 54.7687 33.3152 54.7313C34.8395 50.4289 37.6707 47.3391 41.809 45.4617ZM21.3117 48.0375C23.366 50.5371 25.8891 52.3605 28.8668 53.6074C28.8739 53.6102 28.8816 53.611 28.8891 53.6096C28.8966 53.6083 28.9035 53.6049 28.9091 53.5998C28.9146 53.5948 28.9186 53.5883 28.9204 53.5811C28.9223 53.5739 28.922 53.5664 28.9195 53.5594L27.0645 48.041C27.0603 48.0284 27.0523 48.0174 27.0418 48.0096C27.0313 48.0018 27.0187 47.9976 27.0059 47.9977H21.3305C21.3259 47.9978 21.3214 47.9991 21.3176 48.0016C21.3138 48.0041 21.3107 48.0076 21.3088 48.0118C21.3068 48.0159 21.3061 48.0205 21.3066 48.0251C21.3071 48.0296 21.3089 48.0339 21.3117 48.0375ZM33.7594 65.9602C33.7594 65.7133 33.7108 65.4689 33.6163 65.2408C33.5218 65.0128 33.3834 64.8056 33.2088 64.631C33.0343 64.4565 32.8271 64.318 32.599 64.2236C32.371 64.1291 32.1265 64.0805 31.8797 64.0805C31.6328 64.0805 31.3884 64.1291 31.1604 64.2236C30.9323 64.318 30.7251 64.4565 30.5505 64.631C30.376 64.8056 30.2375 65.0128 30.1431 65.2408C30.0486 65.4689 30 65.7133 30 65.9602C30 66.4587 30.198 66.9368 30.5505 67.2893C30.9031 67.6418 31.3812 67.8398 31.8797 67.8398C32.3782 67.8398 32.8563 67.6418 33.2088 67.2893C33.5613 66.9368 33.7594 66.4587 33.7594 65.9602Z" fill="white"/>
<path d="M57.7336 59.5827C57.7336 60.8679 57.4805 62.1404 56.9887 63.3278C56.4969 64.5151 55.776 65.5939 54.8673 66.5027C53.9585 67.4114 52.8797 68.1323 51.6923 68.6241C50.505 69.1159 49.2324 69.369 47.9473 69.369C45.3518 69.369 42.8626 68.338 41.0273 66.5027C39.192 64.6674 38.1609 62.1782 38.1609 59.5827C38.1609 56.9872 39.192 54.498 41.0273 52.6627C42.8626 50.8274 45.3518 49.7964 47.9473 49.7964C49.2324 49.7964 50.505 50.0495 51.6923 50.5413C52.8797 51.0331 53.9585 51.754 54.8673 52.6627C55.776 53.5715 56.4969 54.6503 56.9887 55.8377C57.4805 57.025 57.7336 58.2976 57.7336 59.5827ZM55.7297 59.5897C55.7297 57.5254 54.9096 55.5456 53.4499 54.0859C51.9902 52.6262 50.0104 51.8062 47.9461 51.8062C45.8818 51.8062 43.902 52.6262 42.4423 54.0859C40.9826 55.5456 40.1625 57.5254 40.1625 59.5897C40.1625 61.6541 40.9826 63.6339 42.4423 65.0936C43.902 66.5533 45.8818 67.3733 47.9461 67.3733C50.0104 67.3733 51.9902 66.5533 53.4499 65.0936C54.9096 63.6339 55.7297 61.6541 55.7297 59.5897Z" fill="white"/>
</g>
<defs>
<linearGradient id="paint0_linear_45_19" x1="45" y1="0" x2="76" y2="128" gradientUnits="userSpaceOnUse">
<stop stop-color="#FF6019"/>
<stop offset="1" stop-color="#FFA400"/>
</linearGradient>
<clipPath id="clip0_45_19">
<rect width="60" height="60" fill="white" transform="translate(15 15)"/>
</clipPath>
</defs>
</svg>
