<svg width="90" height="90" viewBox="0 0 90 90" fill="none" xmlns="http://www.w3.org/2000/svg">
<circle cx="45" cy="45" r="42.5" stroke="url(#paint0_linear_55_23)" stroke-width="5"/>
<g clip-path="url(#clip0_55_23)">
<path d="M44.4832 15H45.5308C46.4551 15.0773 47.1176 15.1668 47.5183 15.2684C50.5762 16.0426 52.9344 17.7457 54.593 20.3777C55.2719 21.4551 55.7562 22.7031 56.0461 24.1219C56.7305 27.4805 55.7191 30.9984 53.5605 33.5519C52.7129 34.5559 51.643 35.4195 50.3508 36.143C47.3461 37.8234 43.6383 37.8961 40.548 36.5894C39.4144 36.1098 38.3191 35.382 37.2621 34.4062C34.8176 32.148 33.5953 28.841 33.7687 25.5539C34.0113 20.9836 37.1391 17.0672 41.3941 15.5883C42.3316 15.2625 43.3613 15.0664 44.4832 15ZM43.1297 17.1293C42.5789 18.2473 42.007 19.3898 41.4738 20.4973C41.3129 20.8309 41.0449 21.025 40.6699 21.0797C39.5168 21.2484 38.2723 21.4305 36.9363 21.6258C36.8746 21.6344 36.8289 21.6656 36.7992 21.7195C36.2453 22.7008 35.882 23.7887 35.7094 24.9832C35.7046 25.0143 35.7074 25.046 35.7174 25.0756C35.7274 25.1052 35.7443 25.1318 35.7668 25.1531C36.6394 25.9961 37.5047 26.8355 38.3625 27.6715C38.6695 27.9703 38.8758 28.2457 38.8043 28.6687C38.591 29.9258 38.3726 31.2004 38.1492 32.4926C38.1344 32.577 38.1551 32.6484 38.2113 32.707C39.0144 33.5437 39.9223 34.2051 40.9348 34.691C40.9592 34.7027 40.9859 34.7085 41.0127 34.7081C41.0396 34.7077 41.0659 34.701 41.0894 34.6887C42.1762 34.1168 43.318 33.5168 44.5148 32.8887C44.7926 32.7434 45.1242 32.7059 45.4101 32.8523C46.5148 33.4227 47.6848 34.0344 48.9199 34.6875C48.9691 34.7141 49.0191 34.7148 49.0699 34.6898C50.0957 34.1937 51.0055 33.5293 51.7992 32.6965C51.8225 32.6722 51.8397 32.6426 51.8495 32.6103C51.8592 32.5779 51.8613 32.5436 51.8555 32.5102C51.6234 31.1852 51.4074 29.9234 51.2074 28.725C51.1473 28.3672 51.2324 28.0758 51.4629 27.8508C52.3457 26.9867 53.2664 26.0895 54.225 25.159C54.2489 25.1361 54.2671 25.1079 54.2779 25.0768C54.2887 25.0456 54.2918 25.0123 54.2871 24.9797C54.1348 23.8852 53.8078 22.8633 53.3062 21.9141C53.2312 21.7723 53.2137 21.6492 53.0262 21.6211C51.7301 21.4273 50.507 21.2484 49.357 21.0844C49.0418 21.0398 48.7336 20.8816 48.5848 20.5852C48.0113 19.4422 47.4445 18.2961 46.8844 17.1469C46.8706 17.1185 46.8502 17.0938 46.825 17.0747C46.7998 17.0556 46.7703 17.0426 46.7391 17.0367C45.5508 16.8187 44.3851 16.8211 43.2422 17.0437C43.1906 17.0531 43.1531 17.0816 43.1297 17.1293ZM40.3945 18.0902C39.7164 18.473 39.0984 18.9305 38.5406 19.4625C38.507 19.4945 38.5129 19.507 38.5582 19.5L39.9293 19.2926C39.9434 19.2904 39.9567 19.285 39.9681 19.2766C39.9796 19.2682 39.9888 19.2572 39.9949 19.2445L40.5914 18.0387C40.6226 17.9746 40.6082 17.9613 40.548 17.9988C40.498 18.0301 40.4469 18.0605 40.3945 18.0902ZM49.4004 18.0176L49.9851 19.2023C50.0117 19.2562 50.0551 19.2875 50.1152 19.2961L51.4301 19.4871C51.4793 19.4941 51.4859 19.4809 51.45 19.4473C50.832 18.873 50.1598 18.3859 49.4332 17.9859C49.3887 17.9617 49.3777 17.9723 49.4004 18.0176ZM36.5801 30.3785C36.5957 30.4113 36.6066 30.4098 36.6129 30.3738L36.8625 28.9125C36.8703 28.8672 36.8578 28.8285 36.825 28.7965L35.8195 27.8133C35.7711 27.7664 35.7523 27.7762 35.7633 27.8426C35.9094 28.7074 36.1816 29.5527 36.5801 30.3785ZM53.4176 30.3785C53.8223 29.5293 54.0965 28.6781 54.2402 27.825C54.2496 27.7687 54.234 27.7605 54.1933 27.8004L53.1656 28.8094C53.1537 28.821 53.1448 28.8354 53.1397 28.8513C53.1345 28.8672 53.1334 28.8842 53.1363 28.9008L53.3859 30.375C53.3914 30.4094 53.4019 30.4105 53.4176 30.3785ZM44.9027 34.8047L43.6207 35.4738C43.6154 35.4765 43.6112 35.4808 43.6085 35.4861C43.6058 35.4913 43.6049 35.4973 43.6058 35.5031C43.6067 35.509 43.6094 35.5144 43.6136 35.5186C43.6177 35.5228 43.6231 35.5256 43.6289 35.5266C44.518 35.6547 45.432 35.6547 46.3711 35.5266C46.3769 35.5256 46.3823 35.5228 46.3866 35.5186C46.3908 35.5145 46.3937 35.5091 46.3947 35.5034C46.3958 35.4977 46.3949 35.4918 46.3924 35.4867C46.3898 35.4816 46.3856 35.4775 46.3805 35.475L45.1066 34.8047C45.0387 34.7695 44.9707 34.7695 44.9027 34.8047Z" fill="white"/>
<path d="M48.348 29.2781C48.1898 29.7644 47.8336 29.9859 47.3625 29.9847C45.7727 29.9808 44.1805 29.98 42.5859 29.9824C42.1664 29.9836 41.8066 29.741 41.6719 29.3297C41.1578 27.7656 40.657 26.2242 40.1695 24.7054C39.9879 24.1406 40.2773 23.8265 40.7273 23.4984C41.9758 22.5898 43.1629 21.7269 44.2887 20.9097C44.7141 20.6004 45.1125 20.4726 45.5602 20.7972C46.8977 21.7652 48.2062 22.7168 49.4859 23.6519C49.8762 23.9367 49.9477 24.375 49.8047 24.8109C49.2656 26.4531 48.7801 27.9422 48.348 29.2781ZM45.0422 22.7355C45.031 22.7273 45.0174 22.7229 45.0035 22.7229C44.9896 22.7229 44.9761 22.7273 44.9648 22.7355L42.198 24.7441C42.1868 24.7523 42.1785 24.7639 42.1743 24.7772C42.1701 24.7905 42.1702 24.8047 42.1746 24.8179L43.2293 28.0629C43.2336 28.0762 43.242 28.0879 43.2534 28.0961C43.2648 28.1044 43.2785 28.1087 43.2926 28.1086H46.7086C46.7226 28.1087 46.7364 28.1044 46.7478 28.0961C46.7592 28.0879 46.7676 28.0762 46.7719 28.0629L47.8242 24.8179C47.8286 24.8047 47.8288 24.7905 47.8246 24.7772C47.8203 24.7639 47.812 24.7523 47.8008 24.7441L45.0422 22.7355Z" fill="white"/>
<path d="M15 63.0599V58.6736C15.0336 58.547 15.0621 58.4185 15.0855 58.288C15.3398 56.8525 16.4988 55.7861 17.85 55.4216C18.1898 55.3302 18.6258 55.2919 19.1578 55.3068C19.6188 55.3193 20.0883 55.3197 20.5664 55.3079C20.6055 55.3072 20.625 55.2872 20.625 55.2482V53.4107C20.625 53.3669 20.6059 53.3337 20.5676 53.3111C18.6105 52.1755 17.3309 50.2162 16.9617 48.0271C16.8883 47.5888 16.8582 46.9447 16.8715 46.0947C16.8809 45.4806 16.8812 44.8271 16.8727 44.1341C16.8719 44.0896 16.8492 44.0662 16.8047 44.0638C16.3477 44.038 15.9445 43.656 15.9316 43.1826C15.8918 41.6622 16.1637 40.3189 16.7473 39.1525C18.9422 34.7626 24.4969 33.2744 28.5352 36.1759C30.2547 37.4111 31.3195 39.0814 31.7297 41.1869C31.8477 41.7923 31.8984 42.5173 31.882 43.3619C31.8633 44.3025 31.8633 45.2372 31.882 46.1662C31.8992 47.013 31.848 47.7279 31.7285 48.3107C31.2902 50.4497 30.1094 52.1204 28.1859 53.3228C28.1453 53.3478 28.125 53.3845 28.125 53.4329V55.2318C28.125 55.2818 28.15 55.3072 28.2 55.3079C28.6773 55.3197 29.1613 55.3193 29.652 55.3068C30.1879 55.2927 30.6324 55.3369 30.9855 55.4392C32.7926 55.963 33.7828 57.4935 33.7594 59.3486C33.7445 60.5275 33.743 61.7072 33.7547 62.8876C33.757 63.2064 33.5156 63.5333 33.2309 63.6669C33.1105 63.7232 32.9453 63.7513 32.7352 63.7513C27.1891 63.749 21.5605 63.749 15.8496 63.7513C15.4566 63.7521 15.1734 63.5216 15 63.0599ZM26.7527 40.4591C27.1316 39.6763 27.5102 38.9029 27.8883 38.1388C27.9102 38.0935 27.9023 38.0548 27.8648 38.0228C24.0059 34.7872 18.1863 37.254 17.8289 42.2603C17.8273 42.2728 17.8328 42.2798 17.8453 42.2814C19.893 42.5876 21.8531 42.463 23.7258 41.9076C24.6434 41.6345 25.527 41.2302 26.4305 40.9396C26.4727 40.9263 26.5055 40.9009 26.5289 40.8634C26.6094 40.7376 26.684 40.6029 26.7527 40.4591ZM28.7344 40.8576C29.107 40.9478 29.5184 41.2033 29.8066 41.4329C29.8125 41.4378 29.8198 41.4407 29.8274 41.4413C29.835 41.4418 29.8426 41.4399 29.849 41.4359C29.8555 41.4319 29.8606 41.4259 29.8635 41.4189C29.8664 41.4118 29.867 41.404 29.8652 41.3966C29.7402 40.8185 29.5383 40.2669 29.2594 39.7419C29.2359 39.6982 29.2133 39.6986 29.1914 39.7431L28.6887 40.7615C28.6637 40.8122 28.6789 40.8443 28.7344 40.8576ZM26.625 52.0091C28.7859 51.047 30.0316 49.0033 30.0047 46.6396C29.9961 45.8818 29.9953 45.1177 30.0023 44.3474C30.0023 44.306 29.9902 44.2689 29.966 44.2361C29.5242 43.6267 28.8516 42.8193 28.1074 42.6259C27.6457 42.5064 27.0328 42.6798 26.591 42.8579C25.8715 43.1494 25.1687 43.4064 24.4828 43.629C22.693 44.2095 20.8059 44.4204 18.8215 44.2619C18.7777 44.2587 18.7559 44.279 18.7559 44.3228C18.7441 45.231 18.7195 46.4744 18.7582 47.1236C18.8812 49.1978 20.0355 50.9814 21.8941 51.9025C23.3754 52.6361 25.1062 52.6853 26.625 52.0091ZM23.1984 56.9521C24.0773 57.2943 24.9184 57.2661 25.7215 56.8677C25.9828 56.7376 26.2512 56.4857 26.2512 56.1704C26.2488 55.4892 26.2488 54.8337 26.2512 54.204C26.252 54.1509 26.2266 54.131 26.175 54.1443C24.9812 54.4396 23.7695 54.4376 22.5398 54.1384C22.5348 54.1371 22.5294 54.1371 22.5243 54.1382C22.5192 54.1393 22.5144 54.1416 22.5103 54.1449C22.5062 54.1482 22.503 54.1524 22.5008 54.1572C22.4986 54.1619 22.4975 54.1672 22.4977 54.1724C22.5047 54.7966 22.5035 55.4423 22.4941 56.1095C22.4871 56.529 22.8387 56.8126 23.1984 56.9521ZM27.8449 57.3224C26.5758 59.6755 22.0934 59.6345 20.8641 57.2497C20.8406 57.2044 20.8035 57.1822 20.7527 57.1829C20.223 57.1923 19.6293 57.1912 18.9715 57.1794C17.6168 57.1548 16.8457 58.0079 16.8656 59.3357C16.8789 60.1966 16.8812 61.0126 16.8727 61.7837C16.8725 61.7957 16.8747 61.8075 16.8792 61.8186C16.8837 61.8297 16.8903 61.8398 16.8987 61.8483C16.9071 61.8568 16.9171 61.8636 16.9281 61.8682C16.9391 61.8728 16.9509 61.8751 16.9629 61.8751H23.3742C23.4187 61.8751 23.4406 61.8529 23.4398 61.8083C23.4367 61.5208 23.4363 61.2404 23.4387 60.9669C23.4457 59.9626 24.7629 59.6204 25.2047 60.5122C25.3898 60.8849 25.2961 61.4099 25.3172 61.8271C25.3181 61.8401 25.3238 61.8523 25.3331 61.8613C25.3425 61.8702 25.3548 61.8751 25.3676 61.8751H31.7895C31.8013 61.8751 31.8131 61.8728 31.8241 61.8681C31.835 61.8635 31.845 61.8567 31.8533 61.8482C31.8616 61.8397 31.8681 61.8296 31.8724 61.8185C31.8768 61.8075 31.8788 61.7956 31.8785 61.7837C31.8668 61.0509 31.8684 60.2634 31.8832 59.4212C31.8918 58.954 31.8359 58.5837 31.7156 58.3103C31.3793 57.5497 30.6797 57.1665 29.8395 57.1806C29.1996 57.1923 28.5844 57.1931 27.9937 57.1829C27.9484 57.1829 27.9141 57.2021 27.8906 57.2404C27.875 57.2677 27.8598 57.2951 27.8449 57.3224Z" fill="white"/>
<path d="M75 58.6899V63.0762C74.85 63.4419 74.5383 63.7501 74.1293 63.7501C68.209 63.7501 62.5355 63.7497 57.109 63.7489C56.6461 63.7489 56.2371 63.3083 56.243 62.8524C56.2586 61.6618 56.2578 60.5442 56.2406 59.4997C56.2289 58.8481 56.2894 58.3235 56.4223 57.9258C56.8488 56.6426 57.8566 55.7204 59.1691 55.3969C59.459 55.3251 59.8941 55.2954 60.4746 55.3079C60.9473 55.3188 61.3949 55.3192 61.8176 55.3091C61.8559 55.3083 61.875 55.2884 61.875 55.2493V53.4352C61.875 53.393 61.857 53.3606 61.8211 53.338C59.918 52.1364 58.7391 50.4919 58.2844 48.4044C58.1586 47.8231 58.1031 47.1028 58.118 46.2434C58.1359 45.2403 58.1359 44.1837 58.118 43.0735C58.1016 42.0602 58.1473 41.2989 58.2551 40.7895C58.5996 39.1591 59.3328 37.82 60.4547 36.7723C64.8152 32.7036 71.7387 34.9055 72.9902 40.7602C73.0934 41.2446 73.1406 42.0231 73.132 43.0958C73.125 43.9895 73.1258 44.9376 73.1344 45.9399C73.143 46.9813 73.0953 47.7591 72.9914 48.2731C72.5539 50.4309 71.375 52.1118 69.4547 53.3157C69.4016 53.3485 69.375 53.3962 69.375 53.4587V55.2294C69.375 55.2817 69.4012 55.3083 69.4535 55.3091C69.9762 55.3184 70.4867 55.3173 70.9852 55.3055C71.4906 55.2938 71.9305 55.3462 72.3047 55.4626C73.5797 55.8598 74.618 56.8759 74.898 58.2188C74.9309 58.3766 74.9648 58.5337 75 58.6899ZM60.0187 41.7153C60.0117 41.7841 60.0289 41.7907 60.0703 41.7352C60.4055 41.2817 60.8297 41.1188 61.3758 41.3415C63.3242 42.1391 65.2777 42.3809 67.2363 42.0669C68.1957 41.913 69.0621 41.6766 69.8355 41.3579C70.3617 41.1423 70.8047 41.2407 71.1527 41.7106C71.2145 41.7926 71.2394 41.7825 71.2277 41.6801C70.8902 38.5442 68.168 36.252 65.0062 36.6083C62.3227 36.9118 60.2906 39.0083 60.0187 41.7153ZM63.1969 51.9305C64.6109 52.5844 66.0187 52.6716 67.4203 52.1919C69.4664 51.4911 70.868 49.7731 71.1797 47.6731C71.3238 46.7016 71.2336 45.545 71.2523 44.5325C71.2531 44.4841 71.2363 44.4426 71.2019 44.4083L70.1121 43.329C70.0991 43.316 70.0827 43.3069 70.0646 43.3027C70.0466 43.2986 70.0278 43.2996 70.0102 43.3055C68.9602 43.6618 67.8699 43.8985 66.7395 44.0157C64.8691 44.2091 63.0223 43.9219 61.2305 43.3044C61.2148 43.2987 61.1979 43.2977 61.1817 43.3015C61.1655 43.3052 61.1507 43.3135 61.1391 43.3255L60.0434 44.4247C60.0184 44.4505 60.0055 44.4817 60.0047 44.5184C59.9945 45.3091 59.9945 46.0934 60.0047 46.8716C60.0316 49.0208 61.2199 51.0153 63.1969 51.9305ZM64.4016 56.9309C65.2477 57.3012 66.4055 57.2989 67.1918 56.7223C67.5281 56.4762 67.4941 56.2501 67.4965 55.8809C67.5004 55.3286 67.502 54.77 67.5012 54.2051C67.5012 54.1536 67.4758 54.1341 67.425 54.1466C66.2539 54.4411 65.0535 54.4423 63.8238 54.1501C63.773 54.1376 63.7477 54.1575 63.7477 54.2098C63.7516 54.8411 63.7516 55.4907 63.7477 56.1587C63.7453 56.5313 64.091 56.7962 64.4016 56.9309ZM72.9937 58.3805C72.7441 57.7395 72.082 57.1958 71.3555 57.1911C70.6352 57.1864 69.9281 57.1856 69.2344 57.1887C69.193 57.1887 69.1621 57.2067 69.1418 57.2426C68.8066 57.8489 68.3523 58.2887 67.7789 58.5622C66.4211 59.2083 65.0461 59.2368 63.6539 58.6477C62.9781 58.3626 62.4621 57.895 62.1059 57.245C62.0809 57.1997 62.043 57.1778 61.9922 57.1794C61.3977 57.1958 60.8133 57.1954 60.2391 57.1782C59.3672 57.1524 58.6394 57.5051 58.2844 58.3032C58.1648 58.5712 58.1094 58.9544 58.118 59.4528C58.1305 60.2395 58.1316 61.0063 58.1215 61.7532C58.1212 61.7691 58.124 61.7849 58.1299 61.7997C58.1358 61.8144 58.1445 61.8279 58.1557 61.8392C58.1668 61.8506 58.1801 61.8596 58.1947 61.8658C58.2094 61.8719 58.2251 61.8751 58.241 61.8751H63.2191C63.2582 61.8751 63.2785 61.8555 63.2801 61.8165C63.2941 61.4438 63.2367 61.0161 63.3281 60.6657C63.4676 60.1384 64.0676 59.863 64.5727 60.0727C65.3203 60.3809 65.1469 61.1966 65.1574 61.8446C65.1577 61.8525 65.1612 61.8599 65.1671 61.8654C65.173 61.8709 65.1809 61.8739 65.1891 61.8739L66.0633 61.8751C66.0828 61.8751 66.0926 61.8653 66.0926 61.8458C66.0934 61.5536 66.0937 61.2614 66.0937 60.9692C66.0937 59.9356 67.4648 59.6251 67.8797 60.5532C68.0402 60.9106 67.9535 61.4298 67.9746 61.8235C67.9752 61.8374 67.9812 61.8505 67.9912 61.8601C68.0012 61.8697 68.0146 61.8751 68.0285 61.8751H73.0348C73.0476 61.8751 73.0603 61.8725 73.0721 61.8676C73.0839 61.8627 73.0946 61.8555 73.1036 61.8464C73.1125 61.8374 73.1195 61.8266 73.1242 61.8148C73.1289 61.8031 73.1312 61.7905 73.1309 61.7778C73.1176 61.0458 73.1184 60.2966 73.1332 59.5301C73.1434 59.0278 73.0969 58.6446 72.9937 58.3805Z" fill="white"/>
<path d="M55.6195 75H34.3641C33.4219 74.7375 32.7879 74.0168 32.8031 73.0406C32.8203 71.9406 32.8207 70.9207 32.8043 69.9808C32.791 69.1957 32.852 68.534 32.9871 67.9957C33.5215 65.8699 35.2406 64.2761 37.3793 63.8531C38.284 63.675 39.3164 63.757 40.2785 63.75C40.2875 63.75 40.2962 63.7465 40.3026 63.7404C40.3089 63.7342 40.3125 63.7259 40.3125 63.7172V61.6136C40.3125 61.5738 40.2953 61.5433 40.2609 61.5222C37.7988 60.0386 36.1301 57.6164 35.7293 54.798C35.641 54.173 35.6031 53.4101 35.6156 52.5093C35.6344 51.2133 35.6348 49.9066 35.6168 48.5894C35.6035 47.6121 35.657 46.8226 35.7774 46.2211C36.4676 42.7758 39.1488 40.0828 42.6328 39.4933C43.2086 39.3965 43.9801 39.3523 44.9473 39.3609C46.5902 39.3773 48.1774 39.3777 49.7086 39.3621C50.1691 39.3586 50.6285 39.7465 50.6273 40.2234C50.625 41.2 50.6242 42.1754 50.625 43.1496C50.625 43.1949 50.6473 43.2222 50.6918 43.2316C52.4496 43.6172 53.7774 44.9461 54.2297 46.6652C54.3367 47.0746 54.3883 47.6238 54.3844 48.3129C54.3734 50.1808 54.3691 51.9316 54.3715 53.5652C54.3774 56.8511 52.5234 59.8312 49.7379 61.5246C49.7043 61.5449 49.6875 61.575 49.6875 61.6148V63.716C49.6875 63.7232 49.6903 63.7302 49.6953 63.7355C49.7003 63.7407 49.7072 63.7438 49.7145 63.7441C50.6484 63.764 51.634 63.6808 52.5199 63.8343C54.6879 64.2129 56.4422 65.8242 56.9953 67.9394C57.1461 68.5144 57.2129 69.2289 57.1957 70.0828C57.1762 71.0633 57.1762 72.0613 57.1957 73.0769C57.2145 74.0355 56.5383 74.7597 55.6195 75ZM49.7836 45.0082C49.2422 45.034 48.7418 44.6695 48.7453 44.0929C48.7516 43.1539 48.7527 42.2168 48.7488 41.2816C48.7488 41.2535 48.7344 41.2394 48.7055 41.2394C47.475 41.2496 46.2113 41.2492 44.9145 41.2383C43.8918 41.2297 43.1399 41.2828 42.6586 41.3976C39.5004 42.1511 37.4649 44.8078 37.4977 48.0539C37.5 48.2992 37.5004 48.5437 37.4988 48.7875C37.4988 48.8508 37.5254 48.8648 37.5785 48.8297C37.9551 48.5828 38.3719 48.2949 38.8289 47.966C39.0938 47.7761 39.4816 47.7574 39.7641 47.8699C39.8484 47.9027 39.9332 47.9312 40.0184 47.9554C42.6902 48.7078 45.5742 48.9972 48.3281 48.4652C49.0477 48.3261 49.7211 48.1168 50.3484 47.8371C50.5477 47.7492 50.9473 47.8113 51.1488 47.9531C51.5777 48.2547 52.0109 48.5519 52.4484 48.8449C52.4531 48.8482 52.4585 48.8501 52.4642 48.8504C52.4698 48.8508 52.4755 48.8495 52.4804 48.8469C52.4854 48.8442 52.4896 48.8402 52.4924 48.8353C52.4952 48.8304 52.4967 48.8248 52.4965 48.8191C52.5047 48.1816 52.5586 47.4738 52.3348 46.8703C51.9863 45.9328 51.3133 45.3312 50.3156 45.0656C50.1398 45.0187 49.9625 44.9996 49.7836 45.0082ZM41.6449 60.1312C46.5867 62.6437 52.4848 58.9945 52.4988 53.4621C52.5012 52.7324 52.5012 51.982 52.4988 51.2109C52.4988 51.1648 52.4797 51.1289 52.4414 51.1031L50.5652 49.8363C50.5543 49.829 50.5418 49.8242 50.5286 49.8224C50.5154 49.8206 50.5019 49.8217 50.4891 49.8258C46.9816 50.9906 43.227 50.7644 39.6445 49.8035C39.6096 49.7943 39.573 49.7926 39.5372 49.7987C39.5015 49.8048 39.4673 49.8184 39.4371 49.8386L37.5574 51.1066C37.5207 51.1316 37.502 51.166 37.5012 51.2097C37.4926 52.0051 37.4941 52.7738 37.5059 53.516C37.5481 56.3379 39.1043 58.8398 41.6449 60.1312ZM42.1805 64.514C42.1559 66.0527 44.025 66.641 45.2801 66.5496C46.3172 66.4746 47.802 65.8687 47.809 64.6734C47.8137 63.932 47.8137 63.1808 47.809 62.4199C47.809 62.4153 47.8079 62.4109 47.8059 62.4068C47.8039 62.4027 47.8009 62.3992 47.7973 62.3965C47.7936 62.3937 47.7894 62.3919 47.7849 62.3911C47.7805 62.3903 47.7759 62.3905 47.7715 62.3918C45.9191 62.9488 44.0758 62.95 42.2414 62.3953C42.2347 62.3932 42.2275 62.3928 42.2206 62.394C42.2137 62.3951 42.2071 62.3979 42.2015 62.402C42.1959 62.4061 42.1914 62.4115 42.1884 62.4176C42.1853 62.4238 42.1838 62.4306 42.184 62.4375C42.1926 63.1078 42.1914 63.8 42.1805 64.514ZM44.0555 71.4281C44.018 69.9621 45.9328 69.9926 45.9363 71.2687C45.9379 71.8593 45.9383 72.4504 45.9375 73.0418C45.9375 73.0638 45.9463 73.085 45.9619 73.1006C45.9775 73.1162 45.9986 73.125 46.0207 73.125H46.8117C46.8524 73.125 46.8731 73.1043 46.8738 73.0629C46.8785 72.4933 46.877 71.9363 46.8691 71.3918C46.8668 71.2269 46.8899 71.0715 46.9383 70.9254C47.1891 70.1765 48.2227 70.1179 48.6094 70.7648C48.7094 70.9312 48.7578 71.1277 48.7547 71.3543C48.7461 71.9636 48.7457 72.5273 48.7535 73.0453C48.7538 73.0665 48.7625 73.0868 48.7776 73.1017C48.7927 73.1166 48.8131 73.125 48.8344 73.125H55.2293C55.2413 73.125 55.2531 73.1226 55.2641 73.118C55.2751 73.1134 55.2851 73.1066 55.2935 73.0981C55.3019 73.0896 55.3085 73.0795 55.313 73.0685C55.3175 73.0574 55.3197 73.0455 55.3195 73.0336C55.3039 72.0109 55.3039 71.0105 55.3195 70.0324C55.332 69.2613 55.2734 68.6742 55.1438 68.2711C54.6691 66.7886 53.3203 65.6754 51.7465 65.6367C51.0457 65.6195 50.3289 65.6168 49.5961 65.6285C49.5788 65.6288 49.5619 65.6343 49.5478 65.6441C49.5336 65.6539 49.5227 65.6676 49.5164 65.6836C48.566 68.0625 45.8367 68.816 43.5059 68.2336C42.2027 67.9078 40.9606 66.9996 40.4918 65.6941C40.4738 65.6426 40.4379 65.6176 40.384 65.6191C39.4899 65.6437 38.4574 65.5371 37.6207 65.7199C36.0492 66.0633 34.7156 67.5175 34.6969 69.198C34.6836 70.4238 34.6816 71.7043 34.691 73.0394C34.6913 73.0622 34.7006 73.084 34.7168 73.1C34.7331 73.116 34.7549 73.125 34.7777 73.125L41.168 73.1261C41.1886 73.1261 41.2084 73.118 41.2231 73.1036C41.2378 73.0891 41.2462 73.0694 41.2465 73.0488C41.2543 72.5191 41.2535 71.9695 41.2441 71.4C41.2207 69.948 43.1543 69.9773 43.1297 71.366C43.118 72.0011 43.1188 72.5691 43.132 73.0699C43.1323 73.0843 43.1382 73.098 43.1482 73.1081C43.1583 73.1182 43.1718 73.1238 43.1859 73.1238L43.9828 73.125C44.0328 73.1258 44.0582 73.1008 44.059 73.05C44.0699 72.482 44.0688 71.9414 44.0555 71.4281Z" fill="white"/>
</g>
<defs>
<linearGradient id="paint0_linear_55_23" x1="45" y1="0" x2="76" y2="128" gradientUnits="userSpaceOnUse">
<stop stop-color="#FF6019"/>
<stop offset="1" stop-color="#FFA400"/>
</linearGradient>
<clipPath id="clip0_55_23">
<rect width="60" height="60" fill="white" transform="translate(15 15)"/>
</clipPath>
</defs>
</svg>
