<svg width="90" height="90" viewBox="0 0 90 90" fill="none" xmlns="http://www.w3.org/2000/svg">
<circle cx="45" cy="45" r="42.5" stroke="url(#paint0_linear_45_17)" stroke-width="5"/>
<g clip-path="url(#clip0_45_17)">
<path d="M44.3602 15H45.6551C50.4879 15.1305 54.9437 16.2867 59.0227 18.4688C62.6617 20.4156 65.7367 22.9363 68.2477 26.0309C72.5328 31.3121 74.7836 37.4215 75 44.359V45.6562C74.8703 50.4813 73.7242 54.9188 71.5617 58.9688C69.5875 62.6664 67.0301 65.7809 63.8895 68.3121C58.6105 72.5684 52.5078 74.7977 45.5812 75H44.4047C39.5711 74.8797 35.1145 73.7328 31.0348 71.5594C27.3543 69.5984 24.248 67.0523 21.716 63.9211C17.4543 58.6484 15.2156 52.5547 15 45.6398V44.3438C15.2211 37.4094 17.4719 31.3047 21.7523 26.0297C24.2742 22.9234 27.3684 20.3934 31.0348 18.4395C35.0965 16.2746 39.5383 15.1281 44.3602 15ZM23.8922 26.6262C22.882 28.5082 22.1262 30.4359 21.4102 32.4305C21.3805 32.5125 21.3531 32.6797 21.3281 32.932C21.3242 32.9734 21.3398 33.0047 21.375 33.0258L27.9516 36.9164C27.9836 36.9352 28.0152 36.9348 28.0465 36.9152C31.2723 34.8418 34.6629 33.1027 38.2184 31.698C38.2574 31.6824 38.2836 31.6547 38.2969 31.6148L41.6543 21.5062C41.6598 21.4898 41.6555 21.4762 41.6414 21.4652C39.9391 20.2371 38.107 19.2652 36.1453 18.5496C36.1063 18.5355 36.075 18.5113 36.0516 18.477C36.0383 18.459 36.0223 18.4434 36.0035 18.4301C35.9746 18.4113 35.9441 18.4074 35.9121 18.4184C31.5043 19.9418 27.693 22.4066 24.4781 25.8129C24.2469 26.0574 24.0516 26.3285 23.8922 26.6262ZM64.5844 30.3328C66.668 31.1027 68.6484 32.1387 70.4988 33.3855C70.5816 33.4418 70.6008 33.4254 70.5562 33.3363C70.0852 32.3977 69.634 31.4484 69.0668 30.5367C68.6297 29.8348 68.1949 29.1187 67.7063 28.4555C64.5742 24.2016 60.5727 21.0562 55.7016 19.0195C55.6508 18.9984 55.6234 19.0152 55.6195 19.0699L55.527 20.2184C55.523 20.2637 55.5363 20.3031 55.5668 20.3367C58.4488 23.5836 61.3309 26.832 64.2129 30.082C64.3121 30.1937 64.4359 30.2773 64.5844 30.3328ZM41.7223 34.8C41.7324 34.843 41.7512 34.8797 41.7785 34.9102C43.3754 36.6898 44.8805 38.3848 46.2938 39.9949C46.4469 40.1699 46.6133 40.3707 46.793 40.5973C46.8148 40.6246 46.8434 40.6367 46.8785 40.6336L59.8195 39.3023C59.8333 39.3009 59.8464 39.2959 59.8574 39.2879C59.8683 39.2798 59.8767 39.269 59.8816 39.2566C60.4168 37.9121 60.9531 36.5676 61.4906 35.223C61.9863 33.9844 62.3906 32.7023 62.8137 31.425C62.8176 31.4136 62.8183 31.4014 62.8158 31.3894C62.8134 31.3775 62.8078 31.3663 62.7996 31.357L53.8898 21.3164C53.8642 21.2886 53.8289 21.2718 53.7914 21.2695C52.593 21.2047 51.4496 21.2074 50.3613 21.2777C48.498 21.3988 46.4477 21.5863 44.2102 21.8402C43.9969 21.8645 43.7793 21.9059 43.5574 21.9645C43.5199 21.9746 43.4953 21.9977 43.4836 22.0336L39.8801 32.8711C39.8723 32.8945 39.877 32.9148 39.8941 32.932L41.6637 34.6957C41.6921 34.7249 41.7123 34.7608 41.7223 34.8ZM17.9074 38.1586C17.782 38.3859 17.6531 38.6145 17.598 38.8676C16.473 44.048 16.7641 49.1695 18.4711 54.232C18.5203 54.3789 18.5969 54.5039 18.7008 54.607C19.9242 55.8313 21.2848 56.8953 22.7824 57.7992C22.7957 57.8072 22.8116 57.8097 22.8266 57.8062C22.8417 57.8027 22.8549 57.7935 22.8633 57.7805C24.5773 55.0938 26.3008 52.3914 28.0336 49.6734C28.091 49.5844 28.0758 49.5035 28.0559 49.4051C27.3309 45.8441 26.9789 42.2516 27 38.6273C27 38.6081 26.9951 38.5892 26.9856 38.5726C26.9762 38.5559 26.9625 38.5421 26.9461 38.5324L20.25 34.5703C20.2352 34.5617 20.2227 34.5645 20.2125 34.5785C19.3602 35.7207 18.5918 36.9141 17.9074 38.1586ZM58.8656 62.1047L65.2875 50.1293C65.3055 50.0957 65.3059 50.0617 65.2887 50.0273C64.2832 48.0336 63.3195 46.309 62.3977 44.8535C61.6344 43.6473 60.8512 42.441 60.048 41.2348C60.0309 41.209 60.0066 41.1977 59.9754 41.2008L46.6922 42.5637C46.6775 42.5651 46.6633 42.5702 46.651 42.5786C46.6387 42.587 46.6287 42.5984 46.6219 42.6117C44.9898 45.7766 43.3469 48.8906 41.693 51.9539C41.6818 51.9747 41.6762 51.998 41.6766 52.0216C41.677 52.0452 41.6835 52.0683 41.6953 52.0887L48.0926 63.1465C48.1129 63.1816 48.1434 63.1992 48.184 63.1992C51.7496 63.1711 55.2793 62.8285 58.773 62.1715C58.8152 62.1637 58.8461 62.1414 58.8656 62.1047ZM67.7707 50.3426C67.591 50.4262 67.4117 50.5129 67.2328 50.6027C67.1969 50.6207 67.1695 50.6477 67.1508 50.6836L60.4957 63.0984C60.4801 63.1281 60.4766 63.1594 60.4852 63.1922C60.6469 63.7836 60.7945 64.3312 60.9281 64.8352C61.173 65.7516 61.3055 66.6937 61.4672 67.6641C61.4758 67.7156 61.5012 67.7258 61.5434 67.6945C63.2238 66.4594 64.7465 65.0738 66.1113 63.5379C66.6984 62.877 67.2211 62.1492 67.7648 61.4355C68.032 61.0855 68.2824 60.7215 68.516 60.3434C68.9461 59.6461 69.3926 58.9828 69.7605 58.2457C69.9277 57.9098 70.0934 57.5809 70.2574 57.259C70.7402 56.3121 71.1809 55.1988 71.5137 54.2438C72.2949 52.0023 72.7812 49.6719 72.9727 47.2523C72.9789 47.1758 72.9582 47.168 72.9105 47.2289C72.7902 47.3812 72.6516 47.5129 72.4945 47.6238C71.0203 48.6598 69.4457 49.566 67.7707 50.3426ZM24.2707 59.7387C25.6996 62.3871 27.3105 64.809 29.1035 67.0043C29.1629 67.0762 29.2375 67.1199 29.3273 67.1355C33.7023 67.9145 38.0988 68.6973 42.5168 69.484C42.5645 69.4926 42.6035 69.4785 42.634 69.4418C42.8512 69.1801 43.0449 68.934 43.2152 68.7035C44.2871 67.2566 45.3687 65.7699 46.4602 64.2434C46.4852 64.2082 46.4871 64.1719 46.466 64.1344L40.2457 53.3824C40.2344 53.3631 40.2189 53.3466 40.2004 53.3342C40.182 53.3219 40.161 53.3139 40.1391 53.3109C36.5203 52.8219 32.9391 52.1125 29.3953 51.1828C29.379 51.1784 29.3616 51.1793 29.3458 51.1854C29.33 51.1915 29.3166 51.2025 29.3074 51.2168L24.1359 59.3285C24.1141 59.3629 24.1109 59.3988 24.1266 59.4363C24.1656 59.5332 24.2137 59.634 24.2707 59.7387ZM46.0535 72.9844C44.8801 72.582 43.7656 72.1105 42.7102 71.5699C42.4727 71.448 42.2281 71.3648 41.9766 71.3203C38.3875 70.682 34.8102 70.0453 31.2445 69.4102C31.0969 69.3836 31.0887 69.407 31.2199 69.4805C35.759 72.0172 40.6996 73.209 46.0418 73.0559C46.177 73.052 46.1809 73.0281 46.0535 72.9844Z" fill="white"/>
</g>
<defs>
<linearGradient id="paint0_linear_45_17" x1="45" y1="0" x2="76" y2="128" gradientUnits="userSpaceOnUse">
<stop stop-color="#FF6019"/>
<stop offset="1" stop-color="#FFA400"/>
</linearGradient>
<clipPath id="clip0_45_17">
<rect width="60" height="60" fill="white" transform="translate(15 15)"/>
</clipPath>
</defs>
</svg>
