<svg width="98" height="61" viewBox="0 0 98 61" fill="none" xmlns="http://www.w3.org/2000/svg">
    <path d="M89.0114 17.1566C87.9736 12.0963 85.5833 8.1452 81.1488 6.06565C77.5634 4.40201 73.7579 4.36736 69.9524 5.16451C61.1777 7.03611 54.9819 13.2747 49.2579 20.2412C47.9055 21.9049 46.616 23.6378 45.2951 25.3361C45.1064 25.5787 44.8548 25.8906 44.5089 25.6827C44.2258 25.5094 44.3202 25.1628 44.3202 24.9202C44.3202 23.1872 44.3202 21.4543 44.3202 19.7213C44.3202 19.1668 44.5403 18.6816 44.8234 18.3003C45.8612 17.0179 46.8991 15.7009 47.9999 14.4878C49.1006 13.2747 50.3272 12.2003 51.428 10.9526C52.0255 10.2941 52.3715 9.35826 51.6481 8.52645C50.9877 7.76395 50.3272 8.17986 49.6982 8.69974C49.4466 8.9077 49.1635 9.08099 48.9434 9.32361C47.2136 11.1952 45.5153 13.0668 43.8169 14.9384C41.9299 16.9833 40.6719 19.2361 41.1122 22.3901C41.3638 24.1924 41.0807 26.0986 41.1751 27.9355C41.238 29.4952 40.9549 30.7083 39.9485 31.956C34.7277 38.4026 28.6263 42.5617 20.5121 42.7003C13.6558 42.8043 8.9068 35.6992 10.1019 28.4208C11.014 22.8753 13.9389 19.0975 19.0339 17.7111C19.9145 17.4685 20.3234 16.9833 20.1976 16.0128C20.1032 15.077 19.4742 14.8691 18.7194 14.8344C17.3041 14.7651 16.0146 15.2157 14.8195 15.9088C9.63017 18.8895 6.92542 23.5685 6.67381 30.1191C6.45366 36.8083 9.97612 42.9429 15.763 45.1611C22.0217 47.5526 27.7457 45.5077 33.2495 42.3191C35.8285 40.8287 38.0929 38.7492 40.1058 36.3924C40.3259 36.1151 40.5461 35.6299 40.9864 35.9071C41.3009 36.1151 41.1751 36.531 41.1751 36.8429C41.1751 38.1253 41.1751 39.373 41.1751 40.6554C41.1751 41.5219 41.0178 42.4923 41.9614 42.8736C42.8734 43.2202 43.5653 42.7003 44.1943 42.0071C46.962 38.8531 49.7296 35.7338 52.4659 32.5799C52.7804 32.2333 52.9691 31.7134 53.2207 31.2975C53.5981 30.6043 53.5666 29.9458 52.9691 29.4605C52.3715 28.9753 51.711 28.8713 51.082 29.4259C50.7046 29.7378 50.3901 30.1537 50.0756 30.5003C48.5345 32.2679 46.8362 33.9316 45.4524 35.9071C45.2322 36.2191 44.8548 36.9469 44.3831 36.2191C43.9742 35.5952 44.4774 31.3668 44.9492 30.7776C46.2386 29.1139 47.4967 27.4503 48.7547 25.7867C51.8997 21.6276 55.1391 17.6071 59.0705 14.3145C63.4735 10.6406 68.4742 8.83838 73.8837 8.21451C75.0159 8.07588 75.4877 8.45713 75.4248 9.80883C75.3304 11.6458 75.3933 13.5174 75.3933 15.3543C75.3933 17.2605 75.4248 19.1668 75.3933 21.073C75.3619 21.9742 75.6764 22.5634 76.4626 22.6674C77.186 22.7367 77.7207 22.4247 78.0037 21.5236C78.2553 20.7958 78.2553 20.0679 78.2553 19.3054C78.2553 18.5083 78.5069 18.335 79.2303 18.5429C81.7149 19.2361 83.7906 20.7264 85.772 22.3901C86.2752 22.806 86.1809 23.3259 86.0865 23.9151C85.5204 27.7276 83.6334 30.3963 80.5512 32.0946C79.6077 32.6145 78.9472 33.377 79.5133 34.5554C80.048 35.7338 81.023 35.5952 81.935 35.11C82.2495 34.9367 82.5955 34.7287 82.8786 34.5208C87.9107 30.7776 90.3952 23.8804 89.0114 17.1566ZM86.1494 18.4736C83.9164 16.81 81.652 15.7355 79.1988 15.1117C78.9158 15.0424 78.6327 14.8691 78.3811 14.6611C78.1924 14.4878 78.1924 9.08099 78.3497 8.83838C78.5698 8.45713 78.9158 8.56111 79.1988 8.66508C82.564 9.70485 86.6841 15.0077 86.1494 18.4736Z" fill="white"/>
    <path d="M21.7322 34.4167C21.7322 33.2729 21.7008 32.0945 21.7322 30.9508C21.7637 28.9406 23.0846 27.7621 24.6257 28.7326C27.3933 30.4309 29.2175 29.1139 31.0102 26.9996C31.7964 26.0639 32.6456 25.1974 33.4633 24.3309C33.998 23.811 34.6584 23.4991 35.3503 23.7764C36.0737 24.0883 36.1995 24.8161 36.1681 25.6479C36.1366 27.7968 36.1052 29.911 36.1681 32.0599C36.1995 33.3076 35.539 33.9661 34.627 34.0354C33.5891 34.1394 33.1174 33.2729 32.9915 32.1292C32.8972 31.2627 33.4319 29.9457 32.6456 29.6337C31.9537 29.3565 31.3876 30.6389 30.8215 31.2974C29.532 32.7877 28.1167 33.5156 26.2611 32.5104C25.2862 31.9906 24.8144 32.3025 24.8773 33.5849C24.9402 34.9019 24.9087 36.219 24.8773 37.5707C24.8773 38.9224 23.9652 40.2741 23.0532 40.0661C21.9209 39.8235 21.6693 38.8877 21.7322 37.7093C21.7637 36.6349 21.7322 35.5258 21.7322 34.4167Z" fill="white" stroke="white"/>
    <path d="M70.5122 17.9884C70.5122 19.3748 70.6066 20.7611 70.4808 22.1475C70.3864 23.1873 70.2606 24.5043 68.8453 24.3657C67.5559 24.2617 67.3043 23.2219 67.3672 22.0088C67.493 20.3799 67.0212 20.4492 65.9204 21.177C64.4423 22.1475 63.1528 23.3952 61.7375 24.4696C61.3287 24.7816 61.3287 25.2321 61.3287 25.6827C61.2972 26.3066 61.3601 26.9304 61.2029 27.5543C60.9512 28.5248 60.4795 29.1833 59.5989 29.0446C58.7183 28.906 58.1836 28.2475 58.1836 27.1037C58.215 24.6429 58.1836 22.1475 58.1836 19.6867C58.1836 18.6469 58.4981 17.6071 59.536 17.5032C60.7311 17.3992 61.2972 18.3003 61.2972 19.5827C61.2972 20.9344 61.769 20.7265 62.4923 20.1026C63.31 19.4094 64.1278 18.5776 65.1027 18.231C67.0527 17.5378 67.5873 16.1861 67.3357 14.0719C67.2099 12.9975 67.2414 11.7151 68.6881 11.6804C70.1977 11.6458 70.4493 12.8242 70.4493 14.1412C70.5122 15.4583 70.5122 16.706 70.5122 17.9884Z" fill="white" stroke="white"/>
</svg>