<svg width="30" height="30" viewBox="0 0 30 30" fill="none" xmlns="http://www.w3.org/2000/svg">
<path d="M20.5459 27.2309C23.065 27.2313 25.4935 27.2311 27.8314 27.2303C28.6863 27.2303 28.6728 28.4028 27.8613 28.4028C20.6261 28.4036 13.4115 28.4034 6.21735 28.4022C5.77146 28.4022 5.49138 27.9422 5.69938 27.5391C5.86462 27.2186 6.17224 27.2274 6.48747 27.2286C7.4781 27.2321 8.46306 27.2327 9.44235 27.2303C9.49235 27.2299 9.4947 27.2192 9.44939 27.1981C7.11071 26.109 5.2361 24.5045 3.82556 22.3846C1.5902 19.0249 1.00603 14.8225 2.22067 10.9659C3.82731 5.86645 8.38415 2.17856 13.7027 1.66411C15.4617 1.49419 17.1748 1.66001 18.842 2.16157C23.9935 3.71137 27.7576 8.22309 28.3242 13.5803C28.8943 18.9762 26.1832 24.112 21.4558 26.7428C21.2707 26.8456 20.9656 27 20.5406 27.2063C20.507 27.2227 20.5088 27.2309 20.5459 27.2309ZM12.2039 3.83794L14.9865 5.44341C14.9978 5.45005 15.0092 5.45005 15.0205 5.44341L17.7996 3.83911C17.8234 3.82544 17.8353 3.80493 17.8353 3.77759V3.13716C17.8353 3.11255 17.8234 3.09751 17.7996 3.09204C15.9207 2.66118 14.0549 2.66157 12.2021 3.09321C12.181 3.09829 12.1705 3.11176 12.1705 3.13364L12.1711 3.78051C12.1711 3.80591 12.182 3.82505 12.2039 3.83794ZM19.0049 3.46352C19.0084 3.69321 19.0084 3.91958 19.0049 4.14262C19.0009 4.38091 18.8953 4.56001 18.6879 4.67993C17.6703 5.26704 16.6433 5.85942 15.607 6.45708C15.6009 6.46065 15.5959 6.46578 15.5924 6.47194C15.5889 6.47811 15.5871 6.4851 15.5871 6.49223V11.1012C15.5871 11.1042 15.5879 11.1072 15.5894 11.1098C15.591 11.1124 15.5932 11.1145 15.5959 11.1159L18.4131 12.7418C18.419 12.7453 18.4258 12.7471 18.4327 12.7469C18.4395 12.7467 18.4461 12.7445 18.4517 12.7407L22.0758 10.2727C22.0821 10.2685 22.0872 10.2629 22.0908 10.2562C22.0944 10.2496 22.0963 10.2422 22.0963 10.2346C22.097 8.97094 22.0968 7.77915 22.0957 6.65923C22.0953 6.41391 22.1922 6.23247 22.3863 6.11489C22.5734 6.00161 22.7705 5.88813 22.9775 5.77446C22.9803 5.77291 22.9826 5.77072 22.9844 5.76807C22.9861 5.76543 22.9872 5.7624 22.9876 5.75925C22.9879 5.7561 22.9875 5.75291 22.9864 5.74995C22.9852 5.74699 22.9834 5.74435 22.981 5.74223C21.8131 4.73403 20.4939 3.96977 19.0236 3.44946C19.0214 3.44868 19.0191 3.44846 19.0168 3.44881C19.0145 3.44916 19.0123 3.45007 19.0105 3.45146C19.0086 3.45285 19.0071 3.45468 19.0061 3.45679C19.0052 3.45889 19.0047 3.46121 19.0049 3.46352ZM10.9593 3.45884C9.52438 3.9604 8.18962 4.73676 7.03298 5.73227C7.01306 5.74946 7.01462 5.76469 7.03767 5.77798C7.22673 5.88462 7.41091 5.99048 7.59021 6.09555C7.80231 6.21977 7.90837 6.40005 7.90837 6.63637C7.90837 7.83169 7.90837 9.02895 7.90837 10.2282C7.90837 10.2481 7.91657 10.2637 7.93298 10.275L11.5517 12.7377C11.5674 12.7483 11.5834 12.7489 11.5998 12.7395L14.3976 11.1235C14.4093 11.1168 14.4152 11.1069 14.4152 11.0936V6.4893C14.4152 6.48286 14.4135 6.47654 14.4103 6.47099C14.4071 6.46544 14.4025 6.46084 14.397 6.45766C13.3892 5.87563 12.3982 5.30298 11.424 4.73969C11.1088 4.55747 10.9828 4.4227 10.9951 4.02544C11.0009 3.84301 11.0019 3.66313 10.998 3.48579C10.9976 3.45923 10.9847 3.45024 10.9593 3.45884ZM6.10427 6.61821C4.80349 7.99751 3.84079 9.65688 3.2906 11.4727C3.28779 11.482 3.28818 11.492 3.29169 11.501C3.29521 11.5099 3.30164 11.5173 3.30993 11.5219L3.88356 11.8518C3.89802 11.8604 3.91267 11.8604 3.92751 11.8518L6.70954 10.2452C6.72751 10.235 6.73649 10.2194 6.73649 10.1983V6.98735C6.73648 6.97771 6.73397 6.9683 6.72924 6.96006C6.7245 6.95182 6.71771 6.94506 6.70954 6.94048L6.14294 6.61294C6.12849 6.60473 6.1156 6.60649 6.10427 6.61821ZM26.7076 11.4627C26.1509 9.64634 25.2006 8.00454 23.8963 6.61645C23.8927 6.61261 23.888 6.61012 23.8828 6.60937C23.8775 6.60862 23.8722 6.60968 23.8675 6.61235L23.291 6.94282C23.284 6.94675 23.2783 6.95241 23.2742 6.9592C23.2702 6.966 23.2681 6.97369 23.2681 6.98149V10.2036C23.2681 10.2114 23.2702 10.2191 23.2741 10.2259C23.278 10.2327 23.2836 10.2383 23.2904 10.2422L26.0865 11.8559C26.0915 11.8588 26.0971 11.8603 26.1029 11.8603C26.1087 11.8603 26.1143 11.8588 26.1193 11.8559L26.6806 11.5313C26.6921 11.5246 26.7011 11.5142 26.706 11.5018C26.7108 11.4894 26.7114 11.4756 26.7076 11.4627ZM3.63806 13.0606C3.42243 12.943 3.21657 12.8245 3.02048 12.7049C3.01732 12.703 3.01376 12.7019 3.01009 12.7017C3.00643 12.7014 3.00277 12.7021 2.99944 12.7035C2.9961 12.7049 2.99318 12.7071 2.99093 12.7099C2.98867 12.7127 2.98715 12.716 2.98649 12.7196C2.70017 14.2227 2.69919 15.742 2.98356 17.2776C2.98825 17.3041 3.00231 17.3104 3.02575 17.2963C3.23317 17.1717 3.42849 17.0584 3.61169 16.9565C3.81052 16.8456 4.01306 16.8495 4.21931 16.9682C5.25603 17.5659 6.28923 18.1625 7.31892 18.7582C7.33884 18.7696 7.35935 18.7704 7.38044 18.7606L10.9365 17.076C10.9437 17.0725 10.9498 17.0671 10.954 17.0603C10.9583 17.0536 10.9605 17.0458 10.9605 17.0379V13.7854C10.9605 13.7639 10.9517 13.7471 10.9342 13.735L7.32478 11.2776C7.31685 11.2723 7.30757 11.2693 7.29795 11.269C7.28833 11.2687 7.27876 11.2711 7.27028 11.2758C6.30192 11.8336 5.29978 12.4122 4.26384 13.0114C4.06579 13.1262 3.85368 13.1778 3.63806 13.0606ZM19.0699 17.0737L22.6324 18.7629C22.6488 18.7707 22.6648 18.7702 22.6804 18.7612C23.7035 18.1717 24.7338 17.5766 25.7713 16.9758C26.025 16.8288 26.2377 16.8534 26.4908 17.0075C26.6584 17.1098 26.8265 17.2073 26.9953 17.2999C26.9969 17.3008 26.9987 17.3013 27.0006 17.3014C27.0025 17.3014 27.0044 17.301 27.0061 17.3001C27.0079 17.2993 27.0094 17.298 27.0105 17.2964C27.0117 17.2948 27.0125 17.293 27.0129 17.2911C27.2992 15.7633 27.2998 14.2409 27.0146 12.7237C27.014 12.7203 27.0125 12.7171 27.0104 12.7143C27.0082 12.7116 27.0055 12.7095 27.0023 12.708C26.9991 12.7066 26.9957 12.7059 26.9922 12.7061C26.9888 12.7063 26.9854 12.7073 26.9824 12.709C26.816 12.8043 26.6414 12.9063 26.4586 13.0149C26.2552 13.1362 26.0256 13.1725 25.8211 13.0547C24.7961 12.4641 23.765 11.869 22.7279 11.2694C22.7226 11.2664 22.7165 11.2649 22.7105 11.2651C22.7044 11.2654 22.6984 11.2672 22.6933 11.2706L19.0629 13.742C19.0567 13.7462 19.0517 13.7518 19.0482 13.7583C19.0447 13.7648 19.0429 13.7721 19.0429 13.7795V17.0315C19.0429 17.0514 19.0519 17.0655 19.0699 17.0737ZM12.1324 17.0672C12.1324 17.0751 12.1344 17.0828 12.1383 17.0896C12.1422 17.0963 12.1479 17.102 12.1547 17.1059L14.9812 18.7377C14.988 18.7416 14.9957 18.7437 15.0035 18.7437C15.0113 18.7437 15.019 18.7416 15.0258 18.7377L17.8488 17.1082C17.8556 17.1043 17.8612 17.0987 17.8651 17.0919C17.869 17.0851 17.8711 17.0774 17.8711 17.0696V13.8088C17.8711 13.801 17.869 13.7933 17.8651 13.7865C17.8612 13.7797 17.8556 13.7741 17.8488 13.7702L15.0263 12.1401C15.0196 12.1362 15.0119 12.1341 15.0041 12.1341C14.9963 12.1341 14.9886 12.1362 14.9818 12.1401L12.1547 13.7713C12.1479 13.7753 12.1422 13.7809 12.1383 13.7877C12.1344 13.7945 12.1324 13.8022 12.1324 13.81V17.0672ZM10.9699 26.5454C10.9894 26.552 10.9992 26.5452 10.9992 26.5249C10.9988 26.3291 10.9986 26.1413 10.9986 25.9612C10.9992 25.6893 11.0443 25.4801 11.2804 25.343C12.3133 24.7461 13.3482 24.1483 14.3853 23.5495C14.4052 23.5381 14.4152 23.5209 14.4152 23.4979V19.7831C14.4152 19.7774 14.4138 19.7718 14.411 19.7668C14.4082 19.7619 14.4042 19.7578 14.3994 19.7549L11.5541 18.1131C11.5443 18.1074 11.5333 18.1041 11.522 18.1036C11.5106 18.1031 11.4993 18.1053 11.489 18.1102L7.92712 19.7983C7.92167 19.8009 7.91707 19.805 7.91385 19.8101C7.91064 19.8152 7.90894 19.821 7.90896 19.827C7.90739 20.9262 7.90778 22.0883 7.91013 23.3133C7.91071 23.5424 7.84099 23.7469 7.63767 23.8729C7.43376 23.9991 7.23005 24.1172 7.02653 24.2274C7.02377 24.2289 7.02142 24.2311 7.01967 24.2338C7.01792 24.2364 7.01683 24.2394 7.01649 24.2426C7.01614 24.2458 7.01655 24.2489 7.01769 24.2519C7.01883 24.2549 7.02065 24.2575 7.02302 24.2596C8.1863 25.2643 9.50192 26.0262 10.9699 26.5454ZM18.9129 18.2924C18.7707 18.2245 18.6322 18.1641 18.4974 18.1114C18.481 18.1047 18.465 18.1059 18.4494 18.1149L15.6076 19.7543C15.6014 19.7579 15.5962 19.763 15.5926 19.7693C15.589 19.7756 15.5871 19.7828 15.5871 19.7901V23.5125C15.5871 23.5183 15.5886 23.524 15.5915 23.529C15.5944 23.534 15.5985 23.5382 15.6035 23.5413C16.6066 24.1221 17.6172 24.7041 18.6351 25.2873C18.8713 25.4227 19.006 25.5897 19.0066 25.8592C19.0066 26.0647 19.0062 26.2893 19.0054 26.5331C19.0054 26.5356 19.006 26.5381 19.0071 26.5404C19.0082 26.5427 19.0099 26.5447 19.012 26.5462C19.0141 26.5477 19.0165 26.5487 19.019 26.549C19.0215 26.5494 19.0241 26.5491 19.0265 26.5483C20.4718 26.0413 21.7867 25.2817 22.9711 24.2696C22.9918 24.252 22.9904 24.2362 22.967 24.2221C22.8123 24.1299 22.6515 24.0379 22.4847 23.9461C22.2228 23.8026 22.0939 23.6374 22.0945 23.3297C22.0968 22.0489 22.097 20.8807 22.0951 19.8252C22.0951 19.8187 22.0932 19.8124 22.0898 19.807C22.0864 19.8016 22.0815 19.7974 22.0758 19.7948C21.0351 19.3057 19.9808 18.8049 18.9129 18.2924ZM6.71013 19.7584L3.93044 18.1547C3.91364 18.145 3.89665 18.145 3.87946 18.1547L3.30583 18.4846C3.2985 18.4888 3.29282 18.4953 3.28973 18.5031C3.28663 18.5109 3.28632 18.5195 3.28884 18.5274C3.84274 20.3469 4.77653 21.9614 6.09021 23.3707C6.10896 23.3911 6.13024 23.3944 6.15407 23.3807L6.70603 23.0631C6.72634 23.051 6.73649 23.0331 6.73649 23.0092V19.8053C6.73648 19.7959 6.73404 19.7866 6.72942 19.7784C6.7248 19.7701 6.71816 19.7633 6.71013 19.7584ZM24.1886 23.0655C25.3488 21.7336 26.1972 20.2096 26.7088 18.535C26.7166 18.5096 26.709 18.4903 26.6859 18.477L26.1404 18.1612C26.115 18.1463 26.0896 18.1463 26.0642 18.1612L23.2927 19.7608C23.2853 19.765 23.2791 19.7712 23.2748 19.7787C23.2705 19.7862 23.2682 19.7948 23.2681 19.8036V23.011C23.2681 23.0212 23.2709 23.0312 23.276 23.04C23.2811 23.0489 23.2885 23.0562 23.2974 23.0614L23.8582 23.3819C23.8734 23.3909 23.8873 23.3891 23.8998 23.3766C24.0009 23.2739 24.0972 23.1702 24.1886 23.0655ZM14.9812 24.559L12.2033 26.1622C12.1814 26.1747 12.1705 26.1936 12.1705 26.219V26.8659C12.1705 26.8893 12.1818 26.9036 12.2045 26.9086C14.092 27.3399 15.9625 27.3377 17.816 26.9022C17.8215 26.9009 17.8264 26.8977 17.8299 26.8933C17.8335 26.8888 17.8353 26.8833 17.8353 26.8776V26.2131C17.8353 26.2037 17.8328 26.1945 17.8281 26.1864C17.8233 26.1782 17.8165 26.1715 17.8084 26.1668L15.0263 24.5608C15.0103 24.5514 14.9953 24.5508 14.9812 24.559Z" fill="url(#paint0_linear_1_189)"/>
<path d="M6.79689 3.20547C7.11952 3.20547 7.38107 2.94392 7.38107 2.62129C7.38107 2.29866 7.11952 2.03711 6.79689 2.03711C6.47425 2.03711 6.21271 2.29866 6.21271 2.62129C6.21271 2.94392 6.47425 3.20547 6.79689 3.20547Z" fill="url(#paint1_linear_1_189)"/>
<path d="M28.4742 3.79268C28.4742 4.25841 28.2892 4.70507 27.9599 5.03439C27.6305 5.36372 27.1839 5.54873 26.7182 5.54873C26.2524 5.54873 25.8058 5.36372 25.4764 5.03439C25.1471 4.70507 24.9621 4.25841 24.9621 3.79268C24.9621 3.56207 25.0075 3.33372 25.0958 3.12066C25.184 2.90761 25.3134 2.71402 25.4764 2.55096C25.8058 2.22163 26.2524 2.03662 26.7182 2.03662C26.9488 2.03662 27.1771 2.08204 27.3902 2.17029C27.6032 2.25854 27.7968 2.38789 27.9599 2.55096C28.1229 2.71402 28.2523 2.90761 28.3405 3.12066C28.4288 3.33372 28.4742 3.56207 28.4742 3.79268ZM27.3029 3.79326C27.3029 3.63833 27.2414 3.48974 27.1318 3.38018C27.0223 3.27063 26.8737 3.20908 26.7187 3.20908C26.5638 3.20908 26.4152 3.27063 26.3057 3.38018C26.1961 3.48974 26.1346 3.63833 26.1346 3.79326C26.1346 3.9482 26.1961 4.09678 26.3057 4.20634C26.4152 4.31589 26.5638 4.37744 26.7187 4.37744C26.8737 4.37744 27.0223 4.31589 27.1318 4.20634C27.2414 4.09678 27.3029 3.9482 27.3029 3.79326Z" fill="url(#paint2_linear_1_189)"/>
<path d="M3.28126 5.54922C3.6039 5.54922 3.86544 5.28767 3.86544 4.96504C3.86544 4.64241 3.6039 4.38086 3.28126 4.38086C2.95863 4.38086 2.69708 4.64241 2.69708 4.96504C2.69708 5.28767 2.95863 5.54922 3.28126 5.54922Z" fill="url(#paint3_linear_1_189)"/>
<path d="M4.45194 24.594C4.45194 24.9822 4.29773 25.3545 4.02324 25.629C3.74875 25.9035 3.37646 26.0577 2.98827 26.0577C2.60008 26.0577 2.22779 25.9035 1.9533 25.629C1.6788 25.3545 1.5246 24.9822 1.5246 24.594C1.5246 24.2059 1.6788 23.8336 1.9533 23.5591C2.22779 23.2846 2.60008 23.1304 2.98827 23.1304C3.37646 23.1304 3.74875 23.2846 4.02324 23.5591C4.29773 23.8336 4.45194 24.2059 4.45194 24.594ZM3.28007 24.594C3.28007 24.5167 3.24932 24.4424 3.1946 24.3877C3.13988 24.333 3.06566 24.3022 2.98827 24.3022C2.91088 24.3022 2.83666 24.333 2.78194 24.3877C2.72721 24.4424 2.69647 24.5167 2.69647 24.594C2.69647 24.6714 2.72721 24.7457 2.78194 24.8004C2.83666 24.8551 2.91088 24.8858 2.98827 24.8858C3.06566 24.8858 3.13988 24.8551 3.1946 24.8004C3.24932 24.7457 3.28007 24.6714 3.28007 24.594Z" fill="url(#paint4_linear_1_189)"/>
<path d="M26.7188 25.4711C27.0414 25.4711 27.3029 25.2095 27.3029 24.8869C27.3029 24.5643 27.0414 24.3027 26.7188 24.3027C26.3961 24.3027 26.1346 24.5643 26.1346 24.8869C26.1346 25.2095 26.3961 25.4711 26.7188 25.4711Z" fill="url(#paint5_linear_1_189)"/>
<path d="M4.45314 28.4008C4.77577 28.4008 5.03732 28.1392 5.03732 27.8166C5.03732 27.494 4.77577 27.2324 4.45314 27.2324C4.1305 27.2324 3.86896 27.494 3.86896 27.8166C3.86896 28.1392 4.1305 28.4008 4.45314 28.4008Z" fill="url(#paint6_linear_1_189)"/>
<defs>
<linearGradient id="paint0_linear_1_189" x1="15.0355" y1="1.59961" x2="15.0355" y2="28.4032" gradientUnits="userSpaceOnUse">
<stop stop-color="#FF6019"/>
<stop offset="1"/>
</linearGradient>
<linearGradient id="paint1_linear_1_189" x1="6.79689" y1="2.03711" x2="6.79689" y2="3.20547" gradientUnits="userSpaceOnUse">
<stop stop-color="#FF6019"/>
<stop offset="1"/>
</linearGradient>
<linearGradient id="paint2_linear_1_189" x1="26.7182" y1="2.03662" x2="26.7182" y2="5.54873" gradientUnits="userSpaceOnUse">
<stop stop-color="#FF6019"/>
<stop offset="1"/>
</linearGradient>
<linearGradient id="paint3_linear_1_189" x1="3.28126" y1="4.38086" x2="3.28126" y2="5.54922" gradientUnits="userSpaceOnUse">
<stop stop-color="#FF6019"/>
<stop offset="1"/>
</linearGradient>
<linearGradient id="paint4_linear_1_189" x1="2.98827" y1="23.1304" x2="2.98827" y2="26.0577" gradientUnits="userSpaceOnUse">
<stop stop-color="#FF6019"/>
<stop offset="1"/>
</linearGradient>
<linearGradient id="paint5_linear_1_189" x1="26.7188" y1="24.3027" x2="26.7188" y2="25.4711" gradientUnits="userSpaceOnUse">
<stop stop-color="#FF6019"/>
<stop offset="1"/>
</linearGradient>
<linearGradient id="paint6_linear_1_189" x1="4.45314" y1="27.2324" x2="4.45314" y2="28.4008" gradientUnits="userSpaceOnUse">
<stop stop-color="#FF6019"/>
<stop offset="1"/>
</linearGradient>
</defs>
</svg>
