<svg width="30" height="30" viewBox="0 0 30 30" fill="none" xmlns="http://www.w3.org/2000/svg">
<g clip-path="url(#clip0_1_200)">
<path d="M14.5635 0H15.4459C19.2162 0.158984 22.4619 1.48848 25.183 3.98848C25.4709 4.25332 25.7471 4.52969 26.0115 4.81758C28.5127 7.54141 29.8422 10.7906 30 14.5652V15.4424C29.86 19.5656 28.0758 23.4287 25.0447 26.1434C22.3338 28.5719 19.127 29.8574 15.4242 30H14.5693C10.3154 29.8588 6.35391 27.9697 3.62344 24.7799C1.34805 22.1217 0.140234 19.0119 0 15.4506V14.5412C0.125781 11.251 1.17891 8.33184 3.15937 5.78379C5.89277 2.26699 10.05 0.151758 14.5635 0ZM28.7461 14.9994C28.7461 13.1943 28.3905 11.4068 27.6997 9.73901C27.0089 8.07126 25.9964 6.5559 24.72 5.27946C23.4435 4.00302 21.9282 2.99049 20.2604 2.29968C18.5926 1.60887 16.8052 1.25332 15 1.25332C11.3543 1.25332 7.85794 2.70157 5.28004 5.27946C2.70215 7.85735 1.25391 11.3537 1.25391 14.9994C1.25391 18.6451 2.70215 22.1415 5.28004 24.7194C7.85794 27.2973 11.3543 28.7455 15 28.7455C16.8052 28.7455 18.5926 28.39 20.2604 27.6992C21.9282 27.0083 23.4435 25.9958 24.72 24.7194C25.9964 23.4429 27.0089 21.9276 27.6997 20.2598C28.3905 18.5921 28.7461 16.8046 28.7461 14.9994Z" fill="url(#paint0_linear_1_200)"/>
<path d="M27.4957 14.9996C27.4957 18.3137 26.1792 21.492 23.8358 23.8354C21.4924 26.1788 18.314 27.4953 15 27.4953C11.6859 27.4953 8.50758 26.1788 6.16418 23.8354C3.82078 21.492 2.50427 18.3137 2.50427 14.9996C2.50427 11.6855 3.82078 8.50721 6.16418 6.16381C8.50758 3.82041 11.6859 2.50391 15 2.50391C18.314 2.50391 21.4924 3.82041 23.8358 6.16381C26.1792 8.50721 27.4957 11.6855 27.4957 14.9996ZM26.2465 14.9996C26.2465 12.0169 25.0616 9.15627 22.9524 7.04714C20.8433 4.93802 17.9827 3.75313 15 3.75313C12.0172 3.75313 9.15663 4.93802 7.04751 7.04714C4.93839 9.15627 3.75349 12.0169 3.75349 14.9996C3.75349 17.9824 4.93839 20.8429 7.04751 22.9521C9.15663 25.0612 12.0172 26.2461 15 26.2461C16.4769 26.2461 17.9393 25.9552 19.3038 25.39C20.6683 24.8248 21.9081 23.9964 22.9524 22.9521C23.9968 21.9077 24.8252 20.6679 25.3904 19.3035C25.9556 17.939 26.2465 16.4765 26.2465 14.9996Z" fill="url(#paint1_linear_1_200)"/>
<path d="M15.0305 4.38525H14.9695C14.6433 4.38525 14.3789 4.64969 14.3789 4.97588V6.27432C14.3789 6.60051 14.6433 6.86494 14.9695 6.86494H15.0305C15.3567 6.86494 15.6211 6.60051 15.6211 6.27432V4.97588C15.6211 4.64969 15.3567 4.38525 15.0305 4.38525Z" fill="url(#paint2_linear_1_200)"/>
<path d="M9.26485 8.37608L8.35284 7.47673C8.11621 7.24337 7.73521 7.24603 7.50185 7.48267L7.47058 7.51437C7.23723 7.75101 7.23989 8.13201 7.47652 8.36537L8.38853 9.26473C8.62517 9.49808 9.00617 9.49542 9.23952 9.25879L9.27079 9.22708C9.50415 8.99044 9.50149 8.60944 9.26485 8.37608Z" fill="url(#paint3_linear_1_200)"/>
<path d="M22.5193 7.50391L22.4868 7.47177C22.2511 7.23845 21.8708 7.24044 21.6375 7.47621L20.7349 8.38831C20.5016 8.62408 20.5036 9.00435 20.7393 9.23766L20.7718 9.26981C21.0076 9.50312 21.3879 9.50113 21.6212 9.26536L22.5238 8.35326C22.7571 8.11749 22.7551 7.73722 22.5193 7.50391Z" fill="url(#paint4_linear_1_200)"/>
<path d="M15.661 15.314C16.8371 16.0968 17.9787 16.8575 19.0858 17.5962C19.4321 17.8277 19.4707 18.304 19.1666 18.5853C18.9369 18.798 18.6205 18.7945 18.3668 18.624C17.159 17.8115 15.9313 16.9929 14.6836 16.1683C14.4844 16.0365 14.3737 15.8413 14.3737 15.6146C14.3737 13.92 14.3739 12.2685 14.3742 10.6599C14.3748 9.78801 15.6252 9.78801 15.6252 10.6628C15.6264 12.2093 15.6268 13.7382 15.6264 15.2495C15.6264 15.2773 15.6379 15.2988 15.661 15.314Z" fill="url(#paint5_linear_1_200)"/>
<path d="M6.27419 14.3784H4.97576C4.64956 14.3784 4.38513 14.6428 4.38513 14.969V15.0312C4.38513 15.3573 4.64956 15.6218 4.97576 15.6218H6.27419C6.60039 15.6218 6.86482 15.3573 6.86482 15.0312V14.969C6.86482 14.6428 6.60039 14.3784 6.27419 14.3784Z" fill="url(#paint6_linear_1_200)"/>
<path d="M25.0242 14.3784H23.7258C23.3996 14.3784 23.1351 14.6428 23.1351 14.969V15.0312C23.1351 15.3573 23.3996 15.6218 23.7258 15.6218H25.0242C25.3504 15.6218 25.6148 15.3573 25.6148 15.0312V14.969C25.6148 14.6428 25.3504 14.3784 25.0242 14.3784Z" fill="url(#paint7_linear_1_200)"/>
<path d="M8.38912 20.7352L7.47711 21.6346C7.24048 21.868 7.23782 22.249 7.47117 22.4856L7.50244 22.5173C7.73579 22.7539 8.1168 22.7566 8.35343 22.5232L9.26544 21.6239C9.50207 21.3905 9.50473 21.0095 9.27138 20.7729L9.24011 20.7412C9.00676 20.5045 8.62575 20.5019 8.38912 20.7352Z" fill="url(#paint8_linear_1_200)"/>
<path d="M20.7718 20.7295L20.7393 20.7616C20.5036 20.9949 20.5016 21.3752 20.7349 21.611L21.6375 22.5231C21.8708 22.7588 22.2511 22.7608 22.4868 22.5275L22.5193 22.4954C22.7551 22.2621 22.7571 21.8818 22.5238 21.646L21.6212 20.7339C21.3879 20.4982 21.0076 20.4962 20.7718 20.7295Z" fill="url(#paint9_linear_1_200)"/>
<path d="M15.031 23.1348H14.9689C14.6427 23.1348 14.3783 23.3992 14.3783 23.7254V25.025C14.3783 25.3512 14.6427 25.6156 14.9689 25.6156H15.031C15.3572 25.6156 15.6217 25.3512 15.6217 25.025V23.7254C15.6217 23.3992 15.3572 23.1348 15.031 23.1348Z" fill="url(#paint10_linear_1_200)"/>
</g>
<defs>
<linearGradient id="paint0_linear_1_200" x1="15" y1="0" x2="15" y2="30" gradientUnits="userSpaceOnUse">
<stop stop-color="#FF6019"/>
<stop offset="1"/>
</linearGradient>
<linearGradient id="paint1_linear_1_200" x1="15" y1="2.50391" x2="15" y2="27.4953" gradientUnits="userSpaceOnUse">
<stop stop-color="#FF6019"/>
<stop offset="1"/>
</linearGradient>
<linearGradient id="paint2_linear_1_200" x1="15" y1="4.38525" x2="15" y2="6.86494" gradientUnits="userSpaceOnUse">
<stop stop-color="#FF6019"/>
<stop offset="1"/>
</linearGradient>
<linearGradient id="paint3_linear_1_200" x1="8.80885" y1="7.9264" x2="7.93253" y2="8.81505" gradientUnits="userSpaceOnUse">
<stop stop-color="#FF6019"/>
<stop offset="1"/>
</linearGradient>
<linearGradient id="paint4_linear_1_200" x1="22.5031" y1="7.48784" x2="20.7556" y2="9.25373" gradientUnits="userSpaceOnUse">
<stop stop-color="#FF6019"/>
<stop offset="1"/>
</linearGradient>
<linearGradient id="paint5_linear_1_200" x1="16.8729" y1="10.0063" x2="16.8729" y2="18.7486" gradientUnits="userSpaceOnUse">
<stop stop-color="#FF6019"/>
<stop offset="1"/>
</linearGradient>
<linearGradient id="paint6_linear_1_200" x1="5.62498" y1="14.3784" x2="5.62498" y2="15.6218" gradientUnits="userSpaceOnUse">
<stop stop-color="#FF6019"/>
<stop offset="1"/>
</linearGradient>
<linearGradient id="paint7_linear_1_200" x1="24.375" y1="14.3784" x2="24.375" y2="15.6218" gradientUnits="userSpaceOnUse">
<stop stop-color="#FF6019"/>
<stop offset="1"/>
</linearGradient>
<linearGradient id="paint8_linear_1_200" x1="7.93311" y1="21.1849" x2="8.80943" y2="22.0736" gradientUnits="userSpaceOnUse">
<stop stop-color="#FF6019"/>
<stop offset="1"/>
</linearGradient>
<linearGradient id="paint9_linear_1_200" x1="20.7556" y1="20.7456" x2="22.5031" y2="22.5115" gradientUnits="userSpaceOnUse">
<stop stop-color="#FF6019"/>
<stop offset="1"/>
</linearGradient>
<linearGradient id="paint10_linear_1_200" x1="15" y1="23.1348" x2="15" y2="25.6156" gradientUnits="userSpaceOnUse">
<stop stop-color="#FF6019"/>
<stop offset="1"/>
</linearGradient>
<clipPath id="clip0_1_200">
<rect width="30" height="30" fill="white"/>
</clipPath>
</defs>
</svg>
