<svg width="37" height="31" viewBox="0 0 37 31" fill="none" xmlns="http://www.w3.org/2000/svg">
<g clip-path="url(#clip0_64_103)">
<path d="M17.2967 13.0762C16.7306 13.3412 16.3004 13.7323 16.006 14.2496C15.7001 14.7886 15.599 15.3643 15.7026 15.9766C15.9105 17.1996 16.9835 18.1107 18.2829 18.21C18.3017 18.2112 18.3094 18.203 18.306 18.1854L17.314 13.0845C17.3121 13.0746 17.3063 13.0718 17.2967 13.0762Z" stroke="white" stroke-width="2"/>
<path d="M18.7323 12.8136C18.7208 12.8123 18.7161 12.8172 18.7182 12.8281L19.7131 17.9443C19.7148 17.9526 19.7194 17.9549 19.7271 17.9512C20.2934 17.6859 20.7236 17.2956 21.0177 16.7803C21.6519 15.6703 21.3979 14.2721 20.3667 13.4464C19.906 13.0778 19.3612 12.8669 18.7323 12.8136Z" stroke="white" stroke-width="2"/>
<path d="M8.16686 15.4974C7.94708 15.4269 7.72586 15.3914 7.50319 15.3908C7.27135 15.3899 7.00821 15.4209 6.71378 15.4838C6.69596 15.4877 6.6887 15.4982 6.692 15.5151L7.50267 19.6813C7.50325 19.6843 7.50502 19.6869 7.50761 19.6886C7.51021 19.6904 7.51342 19.6911 7.51659 19.6907C7.69552 19.6664 7.87966 19.6284 8.06903 19.5767C8.58584 19.4363 9.04037 19.1107 9.32995 18.6858C10.1396 17.4966 9.56953 15.9465 8.16686 15.4974Z" stroke="white" stroke-width="2"/>
<path d="M30.3412 15.5228L29.5211 11.3484C29.5202 11.344 29.5175 11.34 29.5136 11.3375C29.5096 11.3349 29.5047 11.334 29.5 11.3348L29.1985 11.3902C28.6019 11.4999 28.073 11.8259 27.7283 12.2965C27.3836 12.7671 27.2512 13.3438 27.3602 13.8997L27.3632 13.9151C27.4172 14.1904 27.5289 14.4524 27.692 14.686C27.855 14.9196 28.0661 15.1203 28.3133 15.2766C28.5605 15.4329 28.8389 15.5418 29.1327 15.5969C29.4264 15.6521 29.7297 15.6526 30.0252 15.5982L30.3267 15.5428C30.3314 15.542 30.3356 15.5394 30.3383 15.5356C30.341 15.5319 30.3421 15.5272 30.3412 15.5228Z" stroke="white" stroke-width="2"/>
<path d="M30.0782 5.77591L32.9456 20.5216C32.9422 20.9854 32.6657 21.2044 32.2208 21.2849C24.0863 22.7577 15.9445 24.238 7.79541 25.7257C7.40598 25.7966 7.08605 25.6086 6.94832 25.2491L4.08081 10.503C4.0798 10.1409 4.29035 9.84486 4.66242 9.77661C8.68785 9.0387 12.7795 8.29338 16.9373 7.54065C17.2568 7.48298 17.572 7.6062 17.714 7.87141C17.7574 7.9524 17.8017 8.111 17.847 8.34723C18.046 9.38337 18.2459 10.4102 18.4466 11.4278C18.4502 11.4464 18.4619 11.4556 18.4818 11.4552C20.0937 11.4339 21.5581 12.2624 22.3081 13.6025C22.8699 14.6073 22.9481 15.82 22.5359 16.8663C22.0833 18.0154 21.2402 18.8302 20.0067 19.3105C19.9888 19.3174 19.9816 19.3298 19.9851 19.3478L20.5014 22.0027C20.5054 22.0236 20.5186 22.0319 20.5409 22.0279L31.3684 20.0564C31.3881 20.0529 31.3961 20.0418 31.3925 20.0232L30.7782 16.8642C30.7743 16.8443 30.7618 16.8365 30.7405 16.8407C30.3768 16.9132 30.0856 16.9588 29.867 16.9773C27.953 17.1402 26.1901 15.8442 25.9289 14.017C25.8184 13.243 25.957 12.5212 26.3448 11.8516C26.8336 11.0076 27.5719 10.439 28.5596 10.1457C28.6931 10.1062 28.9761 10.0483 29.4085 9.97225C29.4275 9.9688 29.4352 9.95811 29.4317 9.94017L28.8175 6.78162C28.8137 6.76176 28.8012 6.75374 28.7803 6.75756C26.6456 7.14755 24.4343 7.55035 22.1463 7.96595C21.5948 8.06587 21.1483 7.56254 21.3459 7.06733C21.4406 6.82967 21.6506 6.67949 21.907 6.6328C24.2731 6.20431 26.6699 5.76741 29.0973 5.32213C29.2902 5.28668 29.4454 5.2813 29.5631 5.30598C29.8009 5.35556 29.9726 5.5122 30.0782 5.77591ZM14.3784 14.4871C14.7827 13.171 15.6636 12.2463 17.0211 11.7132C17.038 11.7065 17.0448 11.6945 17.0414 11.6772L16.5215 9.00352C16.5209 9.0002 16.5189 8.99728 16.5159 8.99539C16.513 8.9935 16.5094 8.99279 16.5059 8.99343L5.65858 10.9685C5.63861 10.9721 5.63043 10.9832 5.63404 11.0018L6.24834 14.1608C6.25202 14.1797 6.26398 14.1872 6.28423 14.1831C6.7105 14.0989 6.99778 14.0524 7.14608 14.0436C8.19542 13.9806 9.09664 14.2517 9.84975 14.8569C10.7166 15.5544 11.2083 16.6281 11.1278 17.7254C11.02 19.1904 9.97648 20.4452 8.48528 20.8709C8.24319 20.9399 7.95481 20.9997 7.62014 21.0504C7.59943 21.0538 7.59095 21.0651 7.59468 21.0843L8.20861 24.2414C8.21266 24.2623 8.22568 24.2707 8.24769 24.2667L19.0715 22.2954C19.0939 22.2913 19.103 22.2789 19.099 22.2581L18.5829 19.6041C18.5785 19.5817 18.5644 19.5705 18.5406 19.5705C16.3231 19.5866 14.4447 18.0211 14.2498 15.9156C14.2019 15.3973 14.2448 14.9211 14.3784 14.4871ZM17.2966 13.0761C16.7306 13.341 16.3004 13.7322 16.006 14.2495C15.7001 14.7885 15.5989 15.3641 15.7026 15.9765C15.9104 17.1994 16.9834 18.1106 18.2829 18.2099C18.3017 18.2111 18.3094 18.2029 18.3059 18.1853L17.314 13.0844C17.3121 13.0745 17.3063 13.0717 17.2966 13.0761ZM18.7323 12.8132C18.7208 12.812 18.7161 12.8168 18.7182 12.8277L19.7131 17.944C19.7148 17.9523 19.7194 17.9546 19.7271 17.9509C20.2934 17.6856 20.7236 17.2953 21.0177 16.78C21.6519 15.6699 21.3979 14.2718 20.3667 13.446C19.906 13.0775 19.3612 12.8666 18.7323 12.8132ZM8.16684 15.4972C7.94707 15.4268 7.72584 15.3912 7.50318 15.3907C7.27134 15.3897 7.0082 15.4207 6.71376 15.4836C6.69595 15.4875 6.68869 15.498 6.69199 15.515L7.50266 19.6811C7.50323 19.6841 7.505 19.6867 7.5076 19.6885C7.51019 19.6902 7.51341 19.691 7.51658 19.6905C7.6955 19.6662 7.87965 19.6282 8.06901 19.5765C8.58583 19.4361 9.04035 19.1106 9.32993 18.6857C10.1396 17.4964 9.56952 15.9463 8.16684 15.4972ZM30.3412 15.5227L29.5211 11.3484C29.5202 11.3439 29.5175 11.34 29.5135 11.3374C29.5096 11.3349 29.5047 11.3339 29.5 11.3348L29.1985 11.3902C28.6019 11.4999 28.073 11.8259 27.7283 12.2965C27.3835 12.7671 27.2512 13.3438 27.3602 13.8997L27.3632 13.9151C27.4172 14.1904 27.5289 14.4524 27.692 14.686C27.855 14.9196 28.0661 15.1203 28.3133 15.2766C28.5605 15.4329 28.8389 15.5417 29.1327 15.5969C29.4264 15.6521 29.7297 15.6525 30.0252 15.5982L30.3267 15.5428C30.3314 15.5419 30.3356 15.5393 30.3383 15.5356C30.341 15.5318 30.3421 15.5272 30.3412 15.5227Z" fill="url(#paint0_linear_64_103)"/>
<path d="M17.2966 13.0762C17.3063 13.0718 17.3121 13.0746 17.314 13.0845L18.3059 18.1854C18.3094 18.203 18.3017 18.2112 18.2828 18.21C16.9834 18.1107 15.9104 17.1996 15.7026 15.9766C15.5989 15.3643 15.7001 14.7886 16.006 14.2496C16.3004 13.7323 16.7306 13.3412 17.2966 13.0762Z" fill="white"/>
<path d="M18.7323 12.8136C19.3612 12.8669 19.906 13.0778 20.3667 13.4464C21.3979 14.2721 21.6519 15.6703 21.0177 16.7803C20.7236 17.2956 20.2934 17.6859 19.7271 17.9512C19.7194 17.9549 19.7148 17.9526 19.7131 17.9443L18.7182 12.8281C18.7161 12.8172 18.7208 12.8123 18.7323 12.8136Z" fill="white"/>
<path d="M8.16686 15.4974C9.56953 15.9465 10.1396 17.4966 9.32995 18.6858C9.04037 19.1107 8.58584 19.4363 8.06903 19.5767C7.87966 19.6284 7.69552 19.6664 7.51659 19.6907C7.51342 19.6911 7.51021 19.6904 7.50761 19.6886C7.50502 19.6869 7.50325 19.6843 7.50267 19.6813L6.692 15.5151C6.6887 15.4982 6.69596 15.4877 6.71378 15.4838C7.00821 15.4209 7.27135 15.3899 7.50319 15.3908C7.72586 15.3914 7.94708 15.4269 8.16686 15.4974Z" fill="white"/>
<path d="M30.3412 15.5228C30.3421 15.5272 30.341 15.5319 30.3383 15.5356C30.3356 15.5394 30.3314 15.542 30.3267 15.5428L30.0252 15.5982C29.7297 15.6526 29.4264 15.6521 29.1327 15.5969C28.8389 15.5418 28.5605 15.4329 28.3133 15.2766C28.0661 15.1203 27.855 14.9196 27.692 14.686C27.5289 14.4524 27.4172 14.1904 27.3632 13.9151L27.3602 13.8997C27.2512 13.3438 27.3836 12.7671 27.7283 12.2965C28.073 11.8259 28.6019 11.4999 29.1985 11.3902L29.5 11.3348C29.5047 11.334 29.5096 11.3349 29.5136 11.3375C29.5175 11.34 29.5202 11.344 29.5211 11.3484L30.3412 15.5228Z" fill="white"/>
</g>
<defs>
<linearGradient id="paint0_linear_64_103" x1="16.9613" y1="7.53179" x2="19.8748" y2="23.5328" gradientUnits="userSpaceOnUse">
<stop stop-color="#FF6019"/>
<stop offset="1"/>
</linearGradient>
<clipPath id="clip0_64_103">
<rect width="32.6365" height="25.625" fill="white" transform="matrix(0.983825 -0.179131 0.190883 0.981613 0 5.84619)"/>
</clipPath>
</defs>
</svg>
