<svg width="42" height="42" viewBox="0 0 42 42" fill="none" xmlns="http://www.w3.org/2000/svg">
<path d="M33.8365 16.7463C34.076 17.1443 34.1441 17.655 33.5838 17.8187C32.9232 18.0119 32.3534 18.1247 31.8743 18.1572C31.7075 18.1684 31.588 18.0911 31.5158 17.9254C31.4365 17.7423 31.3682 17.5561 31.3107 17.3669C31.3014 17.3378 31.2823 17.3255 31.2533 17.33C30.0157 17.5153 28.7727 17.6186 27.5242 17.6399C27.4509 17.6415 27.4454 17.6617 27.5078 17.7003C31.433 20.1459 33.7233 24.514 33.5387 29.2104C33.3623 33.7187 31.0253 37.7692 27.1797 39.9772C26.7039 40.2504 26.1931 40.5164 25.6473 40.775C21.2012 42.8797 15.8109 42.0667 12.1778 38.6989C9.52324 36.2374 8.01059 32.6983 8.00731 29.0399C8.00485 24.9868 9.99821 20.9732 13.1146 18.4982C13.125 18.4901 13.1329 18.4792 13.1376 18.4666C13.1422 18.4539 13.1433 18.4402 13.1408 18.4268L13.0227 17.8003C13.0221 17.7969 13.0207 17.7938 13.0188 17.791C13.0169 17.7883 13.0144 17.786 13.0115 17.7843C13.0086 17.7826 13.0054 17.7816 13.0021 17.7813C12.9988 17.781 12.9955 17.7815 12.9923 17.7826L11.3419 18.3856C11.3173 18.3946 11.3069 18.4122 11.3107 18.4385C11.3484 18.7191 11.4253 19.0063 11.5412 19.3002C11.6659 19.6177 11.4871 19.8419 11.1754 19.9209C10.3501 20.1286 9.49536 20.3635 8.61106 20.6255C8.32805 20.7086 8.11559 20.455 8.09508 20.1905C8.06828 19.8506 8.00676 19.5004 7.91051 19.1398C7.90176 19.1079 7.88153 19.0922 7.84981 19.0928C6.66938 19.1003 5.37903 18.6972 5.23465 17.3048C5.1909 16.8809 5.17067 16.456 5.17395 16.0299C5.18106 14.9174 5.18571 13.8351 5.18789 12.783C5.18953 11.981 5.15016 11.1823 4.94508 10.4054C4.77118 9.74784 4.5866 9.0197 4.77364 8.37386C4.81848 8.21932 4.86141 8.06199 4.90243 7.90186C5.1436 6.94864 5.84004 6.39182 6.81293 6.43886C6.84465 6.44054 6.87391 6.43242 6.90071 6.4145C7.04727 6.31596 7.21461 6.24373 7.40274 6.19782C8.09071 6.03041 8.76719 5.99458 9.43219 6.09032C9.94352 6.16367 10.4535 6.22302 10.9621 6.26837C11.7797 6.34115 12.5904 6.26165 13.3943 6.02985C14.1219 5.81989 14.7847 5.45708 15.4549 5.09343C15.5687 5.03184 15.6945 4.98229 15.8323 4.94477C15.8378 4.9433 15.8428 4.94053 15.8471 4.93667C15.8513 4.93282 15.8546 4.92798 15.8568 4.92254C15.8589 4.9171 15.8598 4.9112 15.8594 4.9053C15.859 4.89939 15.8573 4.89365 15.8544 4.8885C15.4475 4.17296 14.6699 2.43532 15.838 1.98348C16.0259 1.91126 16.2326 1.91462 16.4295 1.88438C16.5279 1.86871 16.6047 1.81831 16.66 1.73321C16.847 1.44178 17.1021 1.0479 17.4934 1.05882C17.8029 1.06721 18.043 1.19347 18.2136 1.43759C18.9043 2.42412 19.6011 3.43445 20.3038 4.46858C20.3623 4.55593 20.4222 4.65027 20.4834 4.75161C20.4977 4.77569 20.5171 4.7936 20.5417 4.80536C21.356 5.19561 22.342 5.69363 23.4997 6.29944C26.07 7.64599 28.7393 8.72407 31.5076 9.53368C32.5385 9.83546 33.6596 10.1339 34.8709 10.429C35.5887 10.6036 36.4385 11.0252 36.8692 11.6459C37.3499 12.3396 37.4765 13.0935 37.249 13.9076C36.923 15.0705 36.1815 15.8653 35.0243 16.2919C34.6409 16.4336 34.2535 16.5623 33.8619 16.6782C33.8242 16.6894 33.8157 16.7121 33.8365 16.7463ZM17.3818 2.13298C17.1087 2.6562 16.7502 2.846 16.1735 2.83844C16.0576 2.83677 16.0177 2.89219 16.0538 3.00473C16.1478 3.30204 16.2547 3.60046 16.3745 3.90001C16.5134 4.24658 16.7302 4.59904 17.025 4.95737C17.0447 4.98089 17.0671 4.98453 17.0923 4.96829C17.6998 4.58476 18.3632 4.42463 19.0823 4.4879C19.131 4.49238 19.1411 4.47446 19.1127 4.43415L17.4729 2.12626C17.4675 2.11878 17.4603 2.11283 17.452 2.10895C17.4437 2.10507 17.4346 2.10339 17.4256 2.10406C17.4165 2.10473 17.4077 2.10773 17.4001 2.11279C17.3924 2.11784 17.3862 2.12478 17.3818 2.13298ZM23.4768 8.14542C22.9091 8.41249 22.6048 7.59532 23.0789 7.26274C23.1002 7.24707 23.1238 7.23755 23.1495 7.23419C23.1571 7.23307 23.1639 7.22943 23.17 7.22327C23.188 7.20423 23.1855 7.18884 23.1626 7.17708L21.9206 6.53628C21.8845 6.5178 21.8799 6.52396 21.9067 6.55475C22.2684 6.96712 21.9444 7.65327 21.3727 7.48866C20.7812 7.31817 20.8485 6.45817 21.4883 6.44641C21.5452 6.44585 21.5996 6.44585 21.6516 6.44641C21.7079 6.44697 21.7114 6.43382 21.6622 6.40694C20.8725 5.97526 20.1731 5.68384 19.5639 5.53266C18.7321 5.32606 17.9462 5.4582 17.2063 5.92907C17.203 5.93122 17.2003 5.9342 17.1985 5.93771C17.1966 5.94122 17.1957 5.94513 17.1958 5.94905C17.1959 5.95297 17.1969 5.95677 17.1989 5.96004C17.2009 5.96332 17.2037 5.96596 17.2071 5.9677C20.5761 7.76413 24.2306 8.88112 27.9557 9.66722C28.2772 9.73496 28.6237 9.76604 28.995 9.76044C29.187 9.75764 29.1922 9.72488 29.0106 9.66218C27.2847 9.06365 25.5568 8.33606 23.827 7.47942C23.8236 7.47761 23.8198 7.47683 23.8159 7.47716C23.8121 7.47749 23.8084 7.47892 23.8053 7.48128C23.8022 7.48365 23.7999 7.48686 23.7985 7.49054C23.7971 7.49422 23.7968 7.49823 23.7975 7.5021C23.8571 7.80276 23.7502 8.0172 23.4768 8.14542ZM6.347 11.5695C8.22715 11.8416 9.9252 12.8469 11.4329 14.0764C12.3003 14.7835 13.1313 15.5447 13.9259 16.3599C13.9565 16.3913 13.9836 16.4263 14.0071 16.4649C14.0213 16.4884 14.0415 16.4965 14.0678 16.4893C16.0447 15.9576 18.0447 16.0013 20.1127 16.2205C22.4793 16.4708 24.7761 16.6984 27.1411 16.6304C27.1679 16.6292 27.1881 16.6169 27.2018 16.5934C27.2226 16.5576 27.2458 16.5243 27.2715 16.4935C28.3215 15.2387 29.4298 14.0954 30.5963 13.0635C31.4576 12.3015 32.3774 11.6232 33.3558 11.0286C33.3935 11.0062 33.3911 10.99 33.3484 10.9799C32.3733 10.7543 31.4021 10.4928 30.4347 10.1955C30.4046 10.1865 30.3794 10.1938 30.3592 10.2173C29.7661 10.8909 28.2846 10.7389 27.5324 10.5768C23.6351 9.73524 19.8797 8.54014 16.386 6.61438C16.3614 6.60095 16.3392 6.6043 16.3195 6.62446C15.3286 7.64907 14.2179 8.69216 12.8234 9.06925C11.1155 9.53116 9.287 9.23302 7.86703 8.1261C7.62039 7.9335 7.37239 7.74677 7.12301 7.56593C6.85887 7.3736 6.50286 7.24007 6.21164 7.44751C5.75828 7.77057 5.63715 8.22268 5.84825 8.80386C5.9527 9.0922 6.05961 9.38811 6.16899 9.69157C6.38965 10.3055 6.39129 10.8707 6.30106 11.5073C6.29614 11.5437 6.31145 11.5644 6.347 11.5695ZM34.5387 11.5535C33.7331 11.937 32.9661 12.4247 32.2377 13.0165C30.9613 14.0534 29.7374 15.2519 28.566 16.6119C28.5652 16.6129 28.5647 16.614 28.5646 16.6153C28.5644 16.6165 28.5646 16.6178 28.5651 16.6189C28.5657 16.62 28.5665 16.621 28.5675 16.6217C28.5685 16.6224 28.5697 16.6228 28.5709 16.6228C30.1205 16.5598 31.702 16.3448 33.1794 15.8669C33.6705 15.7074 34.1679 15.5461 34.6716 15.3832C35.6043 15.0825 36.3302 14.3527 36.4065 13.334C36.4812 12.3421 35.8077 11.7945 35.0177 11.4091C34.9933 11.3971 34.9657 11.3944 34.9398 11.4015C34.8047 11.4401 34.671 11.4908 34.5387 11.5535ZM7.93348 13.0182C7.41121 12.787 6.86051 12.6296 6.28137 12.5462C6.25348 12.5423 6.23871 12.5546 6.23707 12.5832C6.19825 13.4017 6.17364 14.2264 6.16325 15.0573C6.1534 15.8703 6.21575 17.4223 7.15008 17.7608C8.1968 18.1396 9.35918 18.043 10.4248 17.723C11.1855 17.4946 12.0359 17.1989 12.9759 16.8361C13.0055 16.8244 13.009 16.8073 12.9866 16.7849C12.0088 15.8073 10.993 14.9392 9.93914 14.1805C9.27852 13.7046 8.60996 13.3172 7.93348 13.0182ZM16.1948 18.6577C16.1555 18.6853 16.1101 18.7023 16.0628 18.7073C15.377 18.779 14.6923 18.9181 14.0087 19.1247C13.9193 19.1516 13.8176 19.1499 13.7249 19.16C13.7138 19.1611 13.7033 19.1655 13.6946 19.1725C13.6858 19.1795 13.6792 19.1889 13.6754 19.1996C13.6717 19.2103 13.6709 19.2219 13.6733 19.233C13.6756 19.2441 13.681 19.2543 13.6888 19.2624L14.4886 20.0804C14.4978 20.0898 14.5093 20.0965 14.5219 20.0998C14.5345 20.103 14.5476 20.1027 14.56 20.0989C16.0453 19.6247 17.5845 19.2904 19.1775 19.0961C19.2103 19.0924 19.2406 19.0766 19.2628 19.0516C19.819 18.4346 20.4069 17.8473 21.0265 17.2896C21.0294 17.2871 21.0315 17.2837 21.0325 17.2799C21.0336 17.2762 21.0335 17.2722 21.0324 17.2684C21.0313 17.2647 21.0291 17.2614 21.0262 17.2589C21.0232 17.2564 21.0196 17.2548 21.0158 17.2544C20.2267 17.1558 19.4233 17.08 18.6057 17.0268C18.3957 17.0133 18.2 17.0307 18.0184 17.0788C17.4568 17.2278 16.9219 17.4097 16.4139 17.6247C16.4007 17.6303 16.3899 17.6407 16.3835 17.6538C16.3772 17.6669 16.3757 17.682 16.3794 17.6961C16.4582 18.0085 16.4967 18.4436 16.1948 18.6577ZM32.8312 17.0262C32.8299 17.021 32.8018 17.0229 32.753 17.0315C32.7042 17.04 32.6387 17.0546 32.5709 17.0719C32.5373 17.0804 32.5042 17.0894 32.4735 17.0983C32.4427 17.1072 32.4149 17.1159 32.3916 17.1237C32.3683 17.1316 32.35 17.1386 32.3378 17.1442C32.3255 17.1499 32.3195 17.1541 32.3202 17.1567C32.3214 17.1618 32.3496 17.1599 32.3984 17.1514C32.4472 17.1428 32.5127 17.1283 32.5804 17.111C32.614 17.1024 32.6471 17.0934 32.6779 17.0845C32.7086 17.0756 32.7364 17.067 32.7597 17.0591C32.783 17.0513 32.8013 17.0443 32.8136 17.0387C32.8258 17.033 32.8318 17.0288 32.8312 17.0262ZM15.3991 17.1418C14.9277 17.2689 14.4418 17.3703 13.9414 17.4458C13.9152 17.4503 13.9078 17.4646 13.9193 17.4887C13.9745 17.6051 14.0229 17.7902 14.0645 18.0438C14.0689 18.0713 14.0845 18.0816 14.1113 18.0749C14.5247 17.9674 14.9567 17.8893 15.4073 17.8406C15.4347 17.8378 15.4464 17.8224 15.4426 17.7944C15.4125 17.5727 15.4093 17.3652 15.4328 17.1721C15.4333 17.1676 15.4328 17.163 15.4312 17.1588C15.4296 17.1546 15.4271 17.1508 15.4238 17.1478C15.4205 17.1449 15.4165 17.1427 15.4122 17.1417C15.4079 17.1407 15.4034 17.1407 15.3991 17.1418ZM25.5374 17.7331C25.4373 17.6919 25.352 17.6407 25.2396 17.6407C24.3121 17.6373 23.3873 17.5763 22.4653 17.4576C22.4339 17.4538 22.4025 17.4603 22.3759 17.4761C21.4826 18.0111 20.6639 18.8593 19.9789 19.6395C19.9565 19.6653 19.9486 19.6947 19.9552 19.7277L20.3481 21.6216C20.3568 21.6619 20.3812 21.6843 20.4211 21.6887C21.9168 21.864 23.4144 22.2825 24.9139 22.9443C24.922 22.9478 24.9306 22.9495 24.9394 22.9493C24.9481 22.9492 24.9568 22.9472 24.9648 22.9435C25.9492 22.4799 26.9584 22.0502 27.9926 21.6543C28.0077 21.6484 28.02 21.6367 28.0269 21.6219C28.0338 21.607 28.0347 21.59 28.0295 21.5745C27.6691 20.5012 27.175 19.473 26.5472 18.4898C26.4832 18.3896 26.4162 18.2941 26.3462 18.2034C26.1723 17.9775 25.7925 17.8372 25.5374 17.7331ZM10.4641 18.7888C9.98125 18.9103 9.46938 18.9872 8.92852 19.0197C8.91266 19.0208 8.905 19.0298 8.90555 19.0466C8.90883 19.1535 8.94575 19.3299 9.01629 19.5757C9.02121 19.5925 9.03188 19.5986 9.04829 19.5942L10.5191 19.1726C10.541 19.1664 10.55 19.1519 10.5462 19.1289L10.4937 18.8089C10.4909 18.7916 10.4811 18.7848 10.4641 18.7888ZM28.6062 20.4105C28.8145 20.8523 28.9595 21.3158 29.0409 21.8013C29.0459 21.8315 29.0584 21.8581 29.0787 21.8811C30.0346 22.9684 30.8899 24.0871 31.6446 25.2371C31.6714 25.2774 31.7089 25.2975 31.757 25.2975H32.058C32.1002 25.2975 32.1149 25.2771 32.1023 25.2362C31.3728 22.8494 30.0466 20.8861 28.1238 19.3464C28.0741 19.3072 28.0648 19.3156 28.0959 19.3716C28.283 19.7084 28.4405 20.0611 28.6062 20.4105ZM12.9513 19.9368C10.9998 21.7694 9.75457 24.2293 9.33457 26.9042C9.33377 26.9096 9.33405 26.9152 9.3354 26.9206C9.33675 26.9259 9.33915 26.931 9.34244 26.9354C9.34573 26.9398 9.34986 26.9434 9.35457 26.9461C9.35928 26.9489 9.36447 26.9506 9.36985 26.9512L10.2123 27.0553C10.2386 27.0587 10.258 27.0483 10.2705 27.0243C10.8727 25.8686 11.8021 24.9297 12.8693 24.1831C12.8956 24.1646 12.9128 24.1397 12.921 24.1083L13.7659 20.8355C13.7697 20.821 13.7697 20.8058 13.7662 20.7913C13.7626 20.7767 13.7554 20.7633 13.7454 20.7523L12.9981 19.9385C12.9833 19.9223 12.9677 19.9217 12.9513 19.9368ZM13.8668 24.3544C14.7798 24.6013 15.642 24.928 16.5 25.3362C16.5153 25.3435 16.5325 25.3453 16.5489 25.3412C16.5652 25.337 16.5795 25.3273 16.5894 25.3135C17.4294 24.1663 18.4146 23.1963 19.6057 22.4076C19.6153 22.4014 19.6226 22.3921 19.6263 22.3811C19.63 22.3701 19.63 22.3581 19.6262 22.3472C19.5672 22.1708 19.5179 21.9818 19.4786 21.7803C19.3599 21.1722 19.2549 20.6336 19.1636 20.1644C19.157 20.1319 19.1376 20.1174 19.1053 20.1208C17.5965 20.2753 16.1462 20.5989 14.7544 21.0916C14.7384 21.0973 14.7241 21.1068 14.7127 21.1193C14.7012 21.1317 14.693 21.1467 14.6888 21.163L13.8438 24.3141C13.8384 24.3354 13.846 24.3488 13.8668 24.3544ZM25.7589 23.7531C25.9979 25.1215 26.1802 26.5226 26.306 27.9565C26.3088 27.9878 26.3249 28.0072 26.3544 28.0144C27.4744 28.3006 28.5884 28.6527 29.6964 29.071C29.7226 29.081 29.7486 29.0802 29.7743 29.0684C29.8782 29.022 29.9436 28.9674 29.9704 28.9047C30.3698 27.9767 30.748 26.9756 30.9334 25.9686C30.9391 25.9374 30.9327 25.9051 30.9154 25.8787C30.1563 24.7169 29.3278 23.6251 28.4298 22.6033C28.424 22.5969 28.4165 22.5923 28.4082 22.5902C28.3998 22.5881 28.3911 22.5886 28.3831 22.5916C27.4851 22.9325 26.6207 23.2993 25.79 23.6918C25.779 23.6971 25.77 23.706 25.7644 23.717C25.7587 23.7281 25.7568 23.7408 25.7589 23.7531ZM20.5261 22.8931C20.5109 22.9098 20.4932 22.9245 20.4736 22.9367C19.3093 23.6702 18.3088 24.5646 17.4721 25.62C17.2976 25.8395 17.1237 26.066 16.9504 26.2995C16.9345 26.3213 16.9279 26.3457 16.9307 26.3725C17.0521 27.6835 17.372 28.8711 17.7797 30.1258C17.7884 30.1538 17.8065 30.1726 17.8338 30.1821C19.1666 30.6591 20.5406 31.1109 21.9559 31.5376C21.9843 31.546 22.01 31.5407 22.033 31.5216C23.2208 30.5315 24.2421 29.3137 25.288 28.1673C25.3077 28.1455 25.3164 28.1194 25.3143 28.0892C25.2147 26.7533 25.0564 25.3911 24.8393 24.0025C24.836 23.9812 24.8248 23.9658 24.8057 23.9563C23.4664 23.3063 22.0943 22.8687 20.6893 22.6436C20.6489 22.6375 20.6259 22.6554 20.6204 22.6974C20.6106 22.7707 20.5791 22.836 20.5261 22.8931ZM11.83 32.3858C12.6216 32.8343 13.4501 33.2685 14.2942 33.6179C14.321 33.6291 14.3418 33.6221 14.3565 33.5969C15.0505 32.3967 15.9028 31.3688 16.8298 30.3366C16.8549 30.3081 16.8612 30.2759 16.8486 30.24C16.3786 28.8912 16.0538 27.5223 15.9422 26.1072C15.9395 26.0758 15.9241 26.0534 15.8963 26.04C14.9709 25.6033 14.0325 25.295 13.0809 25.1153C13.0514 25.1097 13.0243 25.1161 12.9997 25.1346C12.1942 25.7281 11.5563 26.4537 11.0859 27.3115C11.022 27.428 10.9897 27.5486 10.9891 27.6735C10.9804 29.291 11.2421 30.8394 11.7742 32.3186C11.7846 32.3483 11.8032 32.3707 11.83 32.3858ZM30.4773 29.8747C30.4658 29.8999 30.4497 29.9217 30.4289 29.9402C30.4087 29.9587 30.3954 29.9836 30.3912 30.0108L29.8325 33.5154C29.8297 33.5338 29.8326 33.5526 29.8407 33.5692C29.8488 33.5858 29.8617 33.5993 29.8777 33.6078L31.2164 34.3217C31.2258 34.3266 31.2367 34.3275 31.2468 34.3242C31.2569 34.3209 31.2654 34.3137 31.2706 34.304C32.5445 31.8307 32.8825 29.0164 32.3731 26.2306C32.367 26.1959 32.3468 26.1766 32.3123 26.1727L31.8513 26.1206C31.8223 26.1172 31.8048 26.1304 31.7988 26.1601C31.5404 27.4467 31.0204 28.6628 30.4773 29.8747ZM10.223 33.701C10.2394 33.7402 10.2591 33.7422 10.282 33.7069L10.9022 32.736C10.9104 32.723 10.9155 32.7083 10.9172 32.693C10.9189 32.6777 10.9172 32.6622 10.912 32.6479C10.3646 31.1513 10.0843 29.6062 10.0712 28.0128C10.0707 27.9646 10.0472 27.9375 10.0007 27.9313L9.22957 27.8297C9.22704 27.8293 9.22446 27.8295 9.22199 27.8303C9.21953 27.8311 9.21723 27.8323 9.21524 27.8341C9.21324 27.8358 9.21159 27.8379 9.21039 27.8404C9.20919 27.8428 9.20846 27.8454 9.20825 27.8482C9.08411 29.8369 9.42235 31.7879 10.223 33.701ZM22.9657 36.3146C23.9041 36.7471 24.9041 37.1032 25.8975 37.419C25.9254 37.428 25.9508 37.4229 25.9738 37.4039C27.2018 36.3919 28.0467 35.2052 28.8629 33.8295C28.9343 33.7094 28.9122 33.4289 28.9359 33.2803C29.1044 32.2327 29.2586 31.1748 29.3986 30.1065C29.401 30.088 29.3971 30.0692 29.3875 30.0531C29.378 30.0371 29.3634 30.0248 29.3461 30.0183C28.2321 29.5989 27.0875 29.2289 25.9123 28.908C25.9017 28.905 25.8906 28.9051 25.8802 28.9082C25.8699 28.9114 25.8608 28.9174 25.854 28.9257C24.7868 30.1703 23.722 31.3898 22.462 32.4077C22.4385 32.4267 22.4287 32.4516 22.4325 32.4824L22.9181 36.2508C22.9225 36.281 22.9384 36.3023 22.9657 36.3146ZM21.8288 36.3961C21.896 36.3681 21.9595 36.3365 22.0191 36.3012C22.0448 36.2861 22.0557 36.2634 22.0519 36.2332L21.549 32.3942C21.548 32.3879 21.5454 32.382 21.5413 32.3773C21.5372 32.3725 21.5319 32.3691 21.5261 32.3674C20.2174 31.9928 18.9005 31.5759 17.5754 31.1168C17.5268 31.1 17.4849 31.1107 17.4499 31.1487C16.6337 32.0222 15.87 32.9233 15.2794 33.979C15.2657 34.0042 15.2652 34.0297 15.2777 34.0554C15.9023 35.3298 16.7439 36.4011 17.8027 37.2695C17.8284 37.2902 17.8576 37.2998 17.8904 37.2981C19.256 37.2174 20.5688 36.9168 21.8288 36.3961ZM14.6116 34.7802C13.6215 34.3519 12.647 33.8766 11.7176 33.3466C11.6941 33.3332 11.6744 33.3377 11.6585 33.3601C11.3884 33.7391 11.1447 34.1142 10.9276 34.4854C10.8789 34.5683 10.8448 34.6565 10.8251 34.75C10.8191 34.7785 10.8237 34.8054 10.839 34.8306C12.2494 37.1671 14.1772 38.8515 16.6222 39.884C16.6293 39.887 16.6369 39.8884 16.6445 39.8878C16.6522 39.8873 16.6596 39.885 16.6661 39.8809C16.6727 39.8769 16.6782 39.8714 16.6823 39.8647C16.6863 39.8581 16.6888 39.8506 16.6895 39.8428C16.7507 39.2146 16.9236 38.6158 17.2079 38.0464C17.2232 38.0167 17.2183 37.9909 17.1932 37.9691C16.1607 37.0822 15.3212 36.0386 14.6748 34.8382C14.6606 34.8113 14.6395 34.792 14.6116 34.7802ZM26.4816 39.3087C28.1845 38.3445 29.6029 36.9714 30.7365 35.1892C30.7386 35.1861 30.74 35.1826 30.7406 35.1789C30.7412 35.1752 30.741 35.1714 30.7399 35.1677C30.7389 35.164 30.7371 35.1606 30.7347 35.1576C30.7323 35.1547 30.7293 35.1523 30.7259 35.1506L29.561 34.5518C29.5331 34.5372 29.5115 34.5437 29.4962 34.5711C28.7227 35.9375 27.8113 37.1083 26.5972 38.0942C26.5721 38.1144 26.5579 38.1407 26.5546 38.1732L26.4405 39.2809C26.4367 39.3168 26.4504 39.326 26.4816 39.3087ZM22.4407 37.1368C21.0484 37.7337 19.6221 38.0822 18.162 38.1824C18.133 38.1841 18.1122 38.1981 18.0996 38.2244C17.7737 38.875 17.5886 39.5242 17.5443 40.172C17.5421 40.2 17.5541 40.2177 17.5804 40.2249C20.1619 40.9657 22.9099 40.8456 25.4037 39.7941C25.4343 39.7807 25.451 39.7571 25.4537 39.7235L25.5735 38.3798C25.5773 38.3378 25.5598 38.3101 25.521 38.2966C24.4622 37.9277 23.4617 37.5411 22.5195 37.1368C22.507 37.1315 22.4936 37.1288 22.4801 37.1288C22.4666 37.1288 22.4532 37.1315 22.4407 37.1368Z" fill="url(#paint0_linear_1_4729)"/>
<path d="M19.3179 6.67414C19.5529 6.85418 19.877 6.81738 20.0418 6.59194C20.2065 6.3665 20.1495 6.03778 19.9144 5.85774C19.6793 5.67769 19.3552 5.7145 19.1905 5.93994C19.0258 6.16538 19.0828 6.4941 19.3179 6.67414Z" fill="url(#paint1_linear_1_4729)"/>
<defs>
<linearGradient id="paint0_linear_1_4729" x1="21.027" y1="1.05859" x2="21.027" y2="41.9313" gradientUnits="userSpaceOnUse">
<stop stop-color="#FF6019"/>
<stop offset="1"/>
</linearGradient>
<linearGradient id="paint1_linear_1_4729" x1="19.9144" y1="5.85774" x2="19.2997" y2="6.66026" gradientUnits="userSpaceOnUse">
<stop stop-color="#FF6019"/>
<stop offset="1"/>
</linearGradient>
</defs>
</svg>
