<svg width="30" height="30" viewBox="0 0 30 30" fill="none" xmlns="http://www.w3.org/2000/svg">
<g clip-path="url(#clip0_64_101)">
<path d="M11.8962 0.947038L11.887 0.94724C11.653 0.952378 11.4675 1.14624 11.4726 1.38025L11.6491 9.41859C11.6542 9.6526 11.8481 9.83813 12.0821 9.83299L12.0913 9.83279C12.3253 9.82765 12.5108 9.63379 12.5057 9.39978L12.3292 1.36144C12.324 1.12743 12.1302 0.9419 11.8962 0.947038Z" fill="url(#paint0_linear_64_101)"/>
<path d="M9.95806 9.52408L4.47909 4.28054C4.3093 4.11805 4.03994 4.12397 3.87745 4.29375L3.87189 4.29955C3.7094 4.46934 3.71532 4.7387 3.8851 4.9012L9.36408 10.1447C9.53386 10.3072 9.80323 10.3013 9.96572 10.1315L9.97127 10.1257C10.1338 9.95594 10.1278 9.68657 9.95806 9.52408Z" fill="url(#paint1_linear_64_101)"/>
<path d="M19.3035 3.95515L14.0608 9.4333C13.8983 9.60308 13.9042 9.87245 14.074 10.0349L14.0798 10.0405C14.2496 10.203 14.5189 10.1971 14.6814 10.0273L19.9242 4.54914C20.0866 4.37935 20.0807 4.10999 19.9109 3.94749L19.9051 3.94194C19.7354 3.77945 19.466 3.78537 19.3035 3.95515Z" fill="url(#paint2_linear_64_101)"/>
<path d="M29.6375 12.8447L29.7331 17.201C29.6706 17.8731 29.3768 18.356 28.8517 18.6498C28.6613 18.7565 28.3591 18.8549 27.945 18.945C26.6091 19.2356 25.287 19.5283 23.9787 19.8232C23.7793 19.8681 23.5825 19.9169 23.3882 19.9698C23.029 20.0671 22.6576 20.1573 22.3066 20.2941C21.9142 20.4467 21.5168 20.5862 21.1442 20.778C20.8316 20.9385 20.5198 21.0802 20.2217 21.2703C20.0139 21.4026 19.7978 21.54 19.5734 21.6826C19.3539 21.8223 19.0997 21.8709 18.9209 21.6419C18.8036 21.4915 18.7887 21.3364 18.8762 21.1765C18.9145 21.1065 19.0067 21.0216 19.1529 20.9221C20.463 20.0309 21.9398 19.4014 23.5834 19.0333C25.0253 18.7111 26.5028 18.382 28.0159 18.0463C28.1833 18.0094 28.3247 17.9587 28.4399 17.8942C28.6178 17.7947 28.7426 17.6434 28.8143 17.4403C28.8636 17.3011 28.8816 17.1036 28.8684 16.8477C28.8575 16.6315 28.8528 16.4105 28.8544 16.1849C28.8547 16.1623 28.8435 16.1513 28.821 16.1518L14.0274 16.4766C14.0056 16.4771 13.9884 16.4864 13.9758 16.5047C13.9014 16.613 13.8501 16.7323 13.7564 16.8301C13.5389 17.0583 13.2661 17.1922 12.9381 17.2319C12.5639 17.2776 12.1378 17.2913 11.6598 17.2731C11.14 17.2532 10.7507 17.0235 10.4917 16.584C10.4817 16.5674 10.467 16.559 10.4475 16.5586C9.93073 16.5524 9.46595 16.5807 9.05318 16.6437C7.93111 16.8152 6.93541 17.2904 6.06607 18.0694C5.29837 18.7574 4.74479 19.6005 4.40532 20.5988C4.06084 21.6125 4.00129 22.645 4.22668 23.6963C4.6428 25.6409 6.15475 27.3332 8.00678 28.0033C9.48433 28.5379 10.9439 28.4885 12.3854 27.8549C13.3164 27.4459 14.1014 26.8201 14.7403 25.9774C14.8804 25.7919 15.0891 25.4571 15.3664 24.973C15.6047 24.557 15.8098 24.2341 15.9819 24.0044C16.5046 23.3053 17.0611 22.6774 17.6516 22.1206C17.7393 22.038 17.8125 21.985 17.8713 21.9615C18.0919 21.8735 18.3412 21.9919 18.416 22.2117C18.4785 22.3969 18.4364 22.5579 18.2895 22.6946C17.5834 23.3503 16.969 24.0718 16.4463 24.8592C16.3027 25.0754 16.0645 25.4678 15.7316 26.0365C15.3402 26.7053 14.7131 27.4063 14.0159 27.8914C13.7871 28.0507 13.566 28.2219 13.3164 28.3473C13.0344 28.49 12.7687 28.6433 12.4718 28.7593C11.1029 29.2948 9.60827 29.3844 8.20358 28.9718C7.02175 28.6249 5.99545 27.9941 5.13641 27.1169C5.11958 27.0993 5.10216 27.0988 5.08417 27.1152C4.9852 27.2057 4.89574 27.3115 4.79202 27.3947C4.31885 27.7722 3.80167 27.9658 3.2405 27.9754C2.73474 27.9838 2.27954 27.8736 1.87489 27.6446C1.06751 27.1873 0.624626 26.4798 0.546234 25.5221L0.478278 22.4271C0.504505 22.2631 0.505687 22.0818 0.535756 21.936C0.606858 21.5865 0.735603 21.2758 0.921991 21.004C1.32182 20.4212 1.86272 20.0539 2.54467 19.902C2.65161 19.8782 2.84828 19.8569 3.13467 19.838C3.15988 19.8363 3.17201 19.8228 3.17107 19.7976C3.15748 19.37 3.14781 18.956 3.14208 18.5558C3.11912 16.9872 3.57121 15.5712 4.49836 14.3076C4.56631 14.2151 4.63514 14.1455 4.70487 14.0988C4.9157 13.9565 5.22035 14.0634 5.31092 14.2955C5.37254 14.4547 5.35242 14.6009 5.25056 14.7339C4.51751 15.6938 4.10888 16.7638 4.02465 17.9438C3.99391 18.3724 3.99263 18.8105 4.02081 19.2581C4.02245 19.2806 4.0286 19.282 4.03926 19.2623C4.81396 17.8655 5.92949 16.8565 7.38586 16.2352C8.28891 15.8506 9.30921 15.6859 10.29 15.7051C10.311 15.7054 10.3213 15.695 10.3208 15.674L10.2512 12.5051C10.2507 12.4826 10.2392 12.471 10.2166 12.4703C8.81636 12.4242 7.56665 12.791 6.4675 13.5708C6.30972 13.6829 6.15201 13.7016 5.99434 13.6271C5.77408 13.5229 5.67823 13.2331 5.8211 13.0257C5.87 12.9539 5.93929 12.8876 6.02897 12.8267C7.03388 12.1438 8.11146 11.7488 9.26171 11.6417C9.57924 11.6122 9.93001 11.5993 10.314 11.6031C10.4032 11.6042 10.4957 11.594 10.5916 11.5724C10.8308 11.5195 11.05 11.6833 11.0886 11.9257C11.097 11.9772 11.1072 12.0291 11.119 12.0817C11.1686 12.302 11.3775 12.4385 11.5926 12.4367C11.9367 12.4341 12.2958 12.4264 12.6699 12.4136C12.8488 12.4077 12.9831 12.3417 13.0729 12.2154C13.1897 12.0505 13.1316 11.8591 13.2298 11.7066C13.3329 11.5468 13.4689 11.4794 13.6377 11.5043C13.7248 11.5173 13.8144 11.5228 13.9066 11.5208C18.5488 11.4185 23.1937 11.3167 27.8412 11.2154C28.2976 11.2054 28.7395 11.3689 29.0732 11.6754C29.4014 11.9772 29.5895 12.3669 29.6375 12.8447ZM28.6935 12.5671C28.523 12.2462 28.2195 12.0635 27.8595 12.0714C23.2394 12.174 18.6439 12.2749 14.0727 12.3742C14.0486 12.3747 14.0369 12.387 14.0374 12.4111L14.1073 15.596C14.1075 15.6017 14.1098 15.607 14.1139 15.6109C14.1179 15.6148 14.1234 15.6169 14.129 15.6168L28.7998 15.2946C28.8209 15.2942 28.8312 15.2834 28.8307 15.2624C28.8133 14.5419 28.7983 13.8216 28.7855 13.1014C28.7812 12.8529 28.7505 12.6748 28.6935 12.5671ZM12.7465 16.3963C13.004 16.3929 13.2506 16.2091 13.2462 15.9304C13.2317 15.0443 13.2149 14.1397 13.1958 13.2166C13.1953 13.1952 13.1848 13.1874 13.1643 13.1932C12.9963 13.2416 12.8397 13.2682 12.6945 13.2729C12.3136 13.2858 11.9323 13.2935 11.5507 13.2957C11.4115 13.2965 11.2789 13.2747 11.1528 13.2305C11.1497 13.2293 11.1464 13.229 11.1431 13.2294C11.1398 13.2298 11.1366 13.2311 11.1339 13.233C11.1312 13.2349 11.129 13.2375 11.1275 13.2404C11.1259 13.2434 11.1251 13.2467 11.1252 13.25C11.1427 14.0466 11.1617 14.9137 11.1823 15.8513C11.1907 16.2337 11.3826 16.432 11.7775 16.4187C12.1024 16.4078 12.4253 16.4003 12.7465 16.3963ZM1.53286 21.6554C1.40027 21.9038 1.33651 22.1963 1.34161 22.5327C1.34596 22.8182 1.35224 23.1214 1.36043 23.442C1.36145 23.4711 1.37323 23.4765 1.39578 23.4585C1.46383 23.4053 1.53187 23.3518 1.59991 23.2979C1.90949 23.0548 2.30176 22.8942 2.68285 22.825C2.85997 22.793 3.02628 22.7911 3.20498 22.7786C3.21359 22.7781 3.22168 22.7742 3.22753 22.7678C3.23339 22.7613 3.23654 22.7528 3.23634 22.744L3.19053 20.7362C3.18987 20.706 3.17464 20.6914 3.14483 20.6925C2.40152 20.7145 1.86419 21.0355 1.53286 21.6554ZM1.81782 25.5418C1.78618 25.2503 1.83548 24.9875 1.96571 24.7532C2.23723 24.266 2.77472 23.9525 3.35703 24.0607C3.40311 24.0693 3.42125 24.0507 3.41145 24.005L3.34504 23.6973C3.33821 23.665 3.31832 23.6474 3.28537 23.6447C2.88089 23.615 2.51376 23.7106 2.184 23.9316C1.18173 24.6041 1.13955 26.0792 2.13313 26.7876C2.56048 27.0922 3.03462 27.1853 3.55554 27.0667C3.93301 26.9808 4.25843 26.7708 4.53178 26.4367C4.53534 26.4325 4.53743 26.4273 4.53773 26.4219C4.53802 26.4165 4.53651 26.4112 4.53342 26.4068L4.31538 26.0904C4.30827 26.0798 4.301 26.0798 4.29358 26.0903C3.91201 26.6341 3.40875 26.8254 2.78379 26.6644C2.26691 26.5317 1.87613 26.0814 1.81782 25.5418ZM3.62781 25.3684C3.62643 25.3054 3.61265 25.2432 3.58725 25.1855C3.56186 25.1278 3.52535 25.0757 3.47981 25.0321C3.43426 24.9885 3.38059 24.9544 3.32183 24.9315C3.26308 24.9087 3.2004 24.8976 3.13738 24.899C3.01011 24.9018 2.88916 24.9551 2.80113 25.047C2.71311 25.139 2.66523 25.2622 2.66803 25.3895C2.67082 25.5167 2.72406 25.6377 2.81604 25.7257C2.90801 25.8137 3.03118 25.8616 3.15846 25.8588C3.22148 25.8574 3.28361 25.8436 3.3413 25.8182C3.399 25.7928 3.45112 25.7563 3.49471 25.7108C3.53829 25.6653 3.57248 25.6116 3.59532 25.5528C3.61815 25.4941 3.6292 25.4314 3.62781 25.3684Z" fill="url(#paint3_linear_64_101)"/>
<path d="M18.7678 12.6209L18.7368 12.6216C18.5104 12.627 18.3312 12.8149 18.3366 13.0413L18.3731 14.5801C18.3784 14.8065 18.5663 14.9857 18.7927 14.9803L18.8237 14.9796C19.0501 14.9742 19.2292 14.7863 19.2239 14.5599L19.1874 13.0211C19.182 12.7947 18.9942 12.6155 18.7678 12.6209Z" fill="url(#paint4_linear_64_101)"/>
<path d="M22.1182 12.5474L22.0872 12.5481C21.8605 12.5531 21.6807 12.7409 21.6857 12.9676L21.7195 14.5054C21.7245 14.7321 21.9123 14.9118 22.139 14.9069L22.17 14.9062C22.3967 14.9012 22.5764 14.7134 22.5715 14.4867L22.5377 12.9489C22.5327 12.7222 22.3449 12.5425 22.1182 12.5474Z" fill="url(#paint5_linear_64_101)"/>
<path d="M15.4238 12.6954L15.3917 12.6961C15.165 12.701 14.9852 12.8889 14.9902 13.1156L15.0239 14.6522C15.0289 14.8789 15.2167 15.0587 15.4435 15.0537L15.4756 15.053C15.7023 15.048 15.882 14.8602 15.8771 14.6334L15.8433 13.0969C15.8383 12.8701 15.6505 12.6904 15.4238 12.6954Z" fill="url(#paint6_linear_64_101)"/>
<path d="M25.464 12.4759L25.433 12.4766C25.2063 12.482 25.0268 12.6701 25.0322 12.8968L25.0686 14.4322C25.074 14.6589 25.2621 14.8383 25.4888 14.833L25.5198 14.8322C25.7465 14.8269 25.926 14.6387 25.9206 14.412L25.8842 12.8766C25.8788 12.6499 25.6907 12.4705 25.464 12.4759Z" fill="url(#paint7_linear_64_101)"/>
<path d="M14.2517 22.3779C14.2764 23.5024 13.8533 24.5907 13.0756 25.4033C12.298 26.2159 11.2293 26.6863 10.1048 26.7109C8.98035 26.7356 7.8921 26.3126 7.07951 25.5349C6.26691 24.7573 5.79653 23.6886 5.77184 22.5641C5.74715 21.4396 6.17017 20.3514 6.94785 19.5388C7.72553 18.7262 8.79416 18.2558 9.91865 18.2311C11.0431 18.2064 12.1314 18.6295 12.944 19.4071C13.7566 20.1848 14.227 21.2534 14.2517 22.3779ZM13.3934 22.3968C13.3737 21.4998 12.9984 20.6473 12.3502 20.027C11.702 19.4066 10.8339 19.0692 9.93691 19.0889C9.0399 19.1086 8.18746 19.4838 7.5671 20.132C6.94674 20.7802 6.6093 21.6483 6.62899 22.5453C6.64869 23.4423 7.02391 24.2948 7.67212 24.9151C8.32033 25.5355 9.18843 25.8729 10.0854 25.8532C10.9824 25.8335 11.8349 25.4583 12.4553 24.8101C13.0756 24.1619 13.4131 23.2938 13.3934 22.3968Z" fill="url(#paint8_linear_64_101)"/>
</g>
<defs>
<linearGradient id="paint0_linear_64_101" x1="11.8916" y1="0.947139" x2="12.0867" y2="9.83289" gradientUnits="userSpaceOnUse">
<stop/>
<stop offset="1" stop-color="#FF6019"/>
</linearGradient>
<linearGradient id="paint1_linear_64_101" x1="7.21857" y1="6.90231" x2="6.62459" y2="7.52296" gradientUnits="userSpaceOnUse">
<stop/>
<stop offset="1" stop-color="#FF6019"/>
</linearGradient>
<linearGradient id="paint2_linear_64_101" x1="16.6821" y1="6.69423" x2="17.3028" y2="7.28821" gradientUnits="userSpaceOnUse">
<stop/>
<stop offset="1" stop-color="#FF6019"/>
</linearGradient>
<linearGradient id="paint3_linear_64_101" x1="14.9225" y1="11.4692" x2="15.3099" y2="29.1152" gradientUnits="userSpaceOnUse">
<stop/>
<stop offset="1" stop-color="#FF6019"/>
</linearGradient>
<linearGradient id="paint4_linear_64_101" x1="18.7523" y1="12.6213" x2="18.8082" y2="14.9799" gradientUnits="userSpaceOnUse">
<stop/>
<stop offset="1" stop-color="#FF6019"/>
</linearGradient>
<linearGradient id="paint5_linear_64_101" x1="22.1027" y1="12.5478" x2="22.1545" y2="14.9065" gradientUnits="userSpaceOnUse">
<stop/>
<stop offset="1" stop-color="#FF6019"/>
</linearGradient>
<linearGradient id="paint6_linear_64_101" x1="15.4077" y1="12.6957" x2="15.4595" y2="15.0533" gradientUnits="userSpaceOnUse">
<stop/>
<stop offset="1" stop-color="#FF6019"/>
</linearGradient>
<linearGradient id="paint7_linear_64_101" x1="25.4485" y1="12.4762" x2="25.5043" y2="14.8326" gradientUnits="userSpaceOnUse">
<stop/>
<stop offset="1" stop-color="#FF6019"/>
</linearGradient>
<linearGradient id="paint8_linear_64_101" x1="9.91865" y1="18.2311" x2="10.1048" y2="26.7109" gradientUnits="userSpaceOnUse">
<stop/>
<stop offset="1" stop-color="#FF6019"/>
</linearGradient>
<clipPath id="clip0_64_101">
<rect width="29.3625" height="29.3625" fill="white" transform="translate(0 0.644531) rotate(-1.25784)"/>
</clipPath>
</defs>
</svg>
