<svg width="35" height="35" viewBox="0 0 35 35" fill="none" xmlns="http://www.w3.org/2000/svg">
<path d="M29.2525 17.9596C29.2525 19.8955 29.2561 21.919 29.2634 24.0299C29.2707 25.583 28.6382 26.8044 27.3658 27.694C21.1806 32.0034 12.3377 32.3369 6.75953 26.9612C6.03765 26.2666 5.74234 25.1346 5.74234 24.1557C5.74234 22.1104 5.74234 20.0231 5.74234 17.894C5.74598 17.6679 5.64208 17.513 5.43062 17.4291L0.814995 15.526C0.665305 15.4636 0.535946 15.359 0.443204 15.2253C0.350462 15.0916 0.29848 14.9347 0.293803 14.7746C0.289126 14.6144 0.331962 14.458 0.416919 14.325C0.501877 14.1921 0.625158 14.0886 0.771245 14.0276L17.3853 7.20804C17.6479 7.09927 17.943 7.09927 18.2056 7.20804C23.5468 9.45388 28.8752 11.7088 34.1908 13.9729C34.5116 14.1078 34.6903 14.3867 34.7267 14.8096C34.7408 14.9539 34.7087 15.099 34.635 15.2238C34.5613 15.3487 34.4497 15.4468 34.3166 15.5041L29.5478 17.5166C29.3509 17.6005 29.2525 17.7481 29.2525 17.9596ZM17.8884 8.83226C17.8677 8.82354 17.8453 8.81904 17.8228 8.81904C17.8003 8.81904 17.778 8.82354 17.7572 8.83226L3.6314 14.6127C3.59918 14.6249 3.57143 14.6466 3.55185 14.6749C3.53227 14.7033 3.52178 14.7369 3.52178 14.7713C3.52178 14.8058 3.53227 14.8394 3.55185 14.8677C3.57143 14.8961 3.59918 14.9177 3.6314 14.9299L17.7517 20.6994C17.7725 20.7082 17.7948 20.7127 17.8173 20.7127C17.8399 20.7127 17.8622 20.7082 17.883 20.6994L31.4345 14.919C31.465 14.9059 31.4911 14.8842 31.5093 14.8565C31.5276 14.8288 31.5374 14.7963 31.5374 14.7631C31.5374 14.7299 31.5276 14.6975 31.5093 14.6698C31.4911 14.6421 31.465 14.6203 31.4345 14.6073L17.8884 8.83226ZM7.70015 18.3479C7.4814 18.2567 7.37385 18.3297 7.37749 18.5666C7.39208 20.4041 7.39025 22.2544 7.37203 24.1174C7.36109 25.0416 7.74937 25.8073 8.49859 26.3541C12.7569 29.4604 17.491 30.1349 22.7009 28.3776C22.779 28.3521 22.847 28.303 22.8952 28.2371C22.9433 28.1713 22.9691 28.0922 22.9689 28.0112V24.3471C22.9692 24.1645 22.9031 23.9881 22.7833 23.8511C22.6635 23.7141 22.498 23.626 22.3181 23.6034C20.652 23.3846 19.0132 22.9526 17.4017 22.3073C14.3429 21.0859 11.109 19.7661 7.70015 18.3479Z" fill="url(#paint0_linear_1_4735)"/>
<path d="M33.928 16.6904H33.8843C33.4463 16.6904 33.0913 17.0455 33.0913 17.4834V22.6787C33.0913 23.1167 33.4463 23.4717 33.8843 23.4717H33.928C34.366 23.4717 34.721 23.1167 34.721 22.6787V17.4834C34.721 17.0455 34.366 16.6904 33.928 16.6904Z" fill="url(#paint1_linear_1_4735)"/>
<defs>
<linearGradient id="paint0_linear_1_4735" x1="17.5117" y1="7.12646" x2="17.5117" y2="30.9611" gradientUnits="userSpaceOnUse">
<stop stop-color="#FF6019"/>
<stop offset="1"/>
</linearGradient>
<linearGradient id="paint1_linear_1_4735" x1="33.9062" y1="16.6904" x2="33.9062" y2="23.4717" gradientUnits="userSpaceOnUse">
<stop stop-color="#FF6019"/>
<stop offset="1"/>
</linearGradient>
</defs>
</svg>
