<svg width="151" height="151" viewBox="0 0 151 151" fill="none" xmlns="http://www.w3.org/2000/svg">
<circle cx="75.5" cy="75.5" r="70.5" stroke="url(#paint0_linear_69_557)" stroke-width="10"/>
<g clip-path="url(#clip0_69_557)">
<path d="M90.6231 62.7794C90.6368 62.0225 90.6334 61.1705 90.6128 60.2233C90.5922 59.2422 90.8672 58.4301 92.0136 58.4285C97.7634 58.4142 103.672 58.417 109.739 58.4367C110.622 58.44 111.217 58.3798 111.523 58.2562C112.542 57.8444 113.097 56.9814 113.097 55.9298C113.094 50.4939 113.093 45.2061 113.094 40.0666C113.094 39.1331 112.479 38.3144 111.595 37.9223C111.246 37.767 110.67 37.7003 109.868 37.7221C109.124 37.7418 108.364 37.7413 107.587 37.7205C105.839 37.6762 105.877 35.1956 107.709 35.2021C108.46 35.2054 109.232 35.2021 110.026 35.1923C110.905 35.1814 111.645 35.2716 112.247 35.463C114.342 36.1324 115.736 38.0076 115.739 40.1355C115.748 45.2597 115.748 50.595 115.737 56.1414C115.736 57.0881 115.373 58.1299 114.778 58.8911C113.71 60.2638 112.26 60.9496 110.428 60.9485C104.817 60.9474 99.1172 60.9474 93.3284 60.9485C93.3147 60.9485 93.3016 60.9535 93.292 60.9624C93.2823 60.9713 93.2768 60.9834 93.2768 60.996C93.2688 62.6006 93.27 64.2997 93.2803 66.0935C93.2854 67.3567 91.84 68.0278 90.9136 67.0319C88.953 64.9264 87.0802 62.921 85.295 61.0157C85.2549 60.9731 85.205 60.9517 85.1454 60.9517C83.0818 60.9375 80.9483 60.9403 78.7448 60.96C77.4374 60.972 76.5139 60.8921 75.9742 60.7204C73.7243 60.0084 72.3751 58.1315 72.382 55.8363C72.398 50.9713 72.398 45.8667 72.382 40.5227C72.3797 39.7264 72.4668 39.0751 72.6433 38.5687C73.3634 36.5097 75.3417 35.2005 77.6465 35.2005C86.2265 35.1983 94.7825 35.1983 103.314 35.2005C105.147 35.2005 105.145 37.7287 103.325 37.7303C94.7527 37.7358 86.3766 37.7331 78.1965 37.7221C77.4185 37.721 76.8651 37.7905 76.5362 37.9305C75.3193 38.4522 75.0151 39.4103 75.0168 40.6146C75.0272 45.3778 75.0277 50.2795 75.0186 55.3195C75.0174 56.166 75.0936 56.7342 75.2472 57.0241C75.5852 57.6574 76.067 58.0746 76.6926 58.2759C77.0581 58.3929 77.6465 58.4471 78.4578 58.4383C80.9992 58.411 83.4891 58.4104 85.9275 58.4367C86.2592 58.44 86.6115 58.6335 86.835 58.8714C88.0908 60.2157 89.3191 61.5303 90.52 62.8155C90.5876 62.8877 90.6219 62.8757 90.6231 62.7794Z" fill="black"/>
<path d="M88.2575 41.5944L80.5541 41.6072C79.8459 41.6084 79.2729 42.1573 79.2741 42.8333L79.2742 42.9022C79.2755 43.5781 79.8505 44.1251 80.5587 44.124L88.2621 44.1111C88.9702 44.1099 89.5433 43.561 89.542 42.8851L89.5419 42.8162C89.5407 42.1402 88.9656 41.5932 88.2575 41.5944Z" fill="black"/>
<path d="M107.563 41.5996H92.6306C91.9149 41.5996 91.3347 42.1534 91.3347 42.8366V42.8826C91.3347 43.5658 91.9149 44.1196 92.6306 44.1196H107.563C108.279 44.1196 108.859 43.5658 108.859 42.8826V42.8366C108.859 42.1534 108.279 41.5996 107.563 41.5996Z" fill="black"/>
<path d="M63.9189 70.9055C63.9189 70.9744 63.9429 70.9832 63.9911 70.9318C65.2251 69.6072 66.4741 68.2712 67.7379 66.9237C68.0038 66.6404 68.3395 66.4983 68.7451 66.4972C71.4768 66.4851 74.1202 66.4868 76.6754 66.5021C77.2529 66.5054 77.7044 66.4326 78.0298 66.2839C78.9763 65.8486 79.4713 65.1218 79.5148 64.1035C79.5904 62.3513 82.3817 62.4694 82.1428 64.5022C81.8248 67.2108 79.6626 69.0385 76.8284 69.0286C74.3041 69.0199 71.8326 69.0172 69.4137 69.0204C69.3507 69.0204 69.298 69.0429 69.2556 69.0877C67.3867 71.0838 65.5322 73.0706 63.692 75.0481C63.2331 75.5403 62.5696 75.7568 61.944 75.4058C61.1912 74.9808 61.2686 74.3935 61.272 73.4665C61.2766 72.0556 61.2714 70.6036 61.2565 69.1107C61.2554 69.0527 61.225 69.0237 61.1654 69.0237C55.4947 69.0237 49.8435 69.0243 44.2117 69.0254C42.1721 69.0254 40.6275 68.2548 39.5779 66.7137C39.0623 65.9558 38.8045 65.0665 38.8045 64.0461C38.8033 59.1679 38.8005 53.977 38.7959 48.4733C38.7948 46.6106 39.5155 45.1833 40.9581 44.1912C42.0529 43.4398 43.1409 43.2708 44.5486 43.2725C52.3712 43.2867 60.5461 43.2894 69.0734 43.2807C69.3358 43.2796 69.569 43.3244 69.7729 43.4152C70.9778 43.9468 70.6186 45.7941 69.2745 45.7958C60.8457 45.8122 52.6152 45.8111 44.5829 45.7925C43.7808 45.7903 43.2177 45.8663 42.8934 46.0205C42.0753 46.4077 41.4531 47.2165 41.4531 48.0877C41.4565 53.3005 41.4531 58.4258 41.4428 63.4636C41.4405 64.2326 41.5069 64.7586 41.6421 65.0419C42.1354 66.0837 43.0498 66.5037 44.2547 66.5004C50.7469 66.4884 56.8021 66.4868 62.4201 66.4955C63.4296 66.4966 63.9315 67.0041 63.9257 68.018C63.92 68.986 63.9177 69.9485 63.9189 70.9055Z" fill="black"/>
<path d="M98.5586 46.7754H80.5701C79.8525 46.7754 79.2708 47.3307 79.2708 48.0157V48.0518C79.2708 48.7368 79.8525 49.2921 80.5701 49.2921H98.5586C99.2762 49.2921 99.8579 48.7368 99.8579 48.0518V48.0157C99.8579 47.3307 99.2762 46.7754 98.5586 46.7754Z" fill="black"/>
<path d="M107.591 46.7824L102.916 46.7746C102.218 46.7734 101.65 47.3131 101.649 47.98L101.649 48.0751C101.648 48.742 102.213 49.2836 102.912 49.2847L107.587 49.2925C108.285 49.2937 108.853 48.754 108.854 48.0871L108.854 47.992C108.855 47.3251 108.29 46.7835 107.591 46.7824Z" fill="black"/>
<path d="M54.2469 49.1676L46.5434 49.1805C45.8353 49.1817 45.2623 49.7306 45.2635 50.4065L45.2636 50.4754C45.2649 51.1514 45.8399 51.6984 46.548 51.6972L54.2515 51.6844C54.9596 51.6832 55.5327 51.1343 55.5314 50.4583L55.5313 50.3894C55.5301 49.7135 54.955 49.1665 54.2469 49.1676Z" fill="black"/>
<path d="M67.1977 49.1677L59.4977 49.1805C58.7895 49.1817 58.2165 49.7306 58.2177 50.4065L58.2178 50.4754C58.2191 51.1514 58.7941 51.6984 59.5023 51.6972L67.2023 51.6844C67.9104 51.6832 68.4834 51.1343 68.4822 50.4583L68.4821 50.3894C68.4808 49.7135 67.9058 49.1665 67.1977 49.1677Z" fill="black"/>
<path d="M99.3561 51.9521H80.5667C79.85 51.9521 79.269 52.5067 79.269 53.1908V53.2269C79.269 53.911 79.85 54.4656 80.5667 54.4656H99.3561C100.073 54.4656 100.654 53.911 100.654 53.2269V53.1908C100.654 52.5067 100.073 51.9521 99.3561 51.9521Z" fill="black"/>
<path d="M69.7403 54.3438H46.5646C45.8432 54.3438 45.2584 54.902 45.2584 55.5906V55.6234C45.2584 56.3121 45.8432 56.8703 46.5646 56.8703H69.7403C70.4617 56.8703 71.0465 56.3121 71.0465 55.6234V55.5906C71.0465 54.902 70.4617 54.3438 69.7403 54.3438Z" fill="black"/>
<path d="M50.3935 59.5188L46.5228 59.5252C45.828 59.5264 45.2657 60.065 45.2669 60.7283L45.2671 60.83C45.2683 61.4933 45.8326 62.03 46.5274 62.0288L50.398 62.0224C51.0929 62.0212 51.6552 61.4826 51.654 60.8194L51.6538 60.7176C51.6526 60.0544 51.0883 59.5176 50.3935 59.5188Z" fill="black"/>
<path d="M65.3494 59.5257L54.7345 59.508C54.0235 59.5068 53.4461 60.056 53.4449 60.7347L53.4448 60.7905C53.4435 61.4691 54.0189 62.0203 54.7299 62.0214L65.3448 62.0391C66.0558 62.0403 66.6332 61.4911 66.6344 60.8124L66.6345 60.7567C66.6358 60.078 66.0604 59.5269 65.3494 59.5257Z" fill="black"/>
<path d="M107.634 88.838C109.41 88.4465 110.96 88.75 112.285 89.7486C115.208 91.9536 114.998 96.339 111.635 98.1519C111.572 98.1858 111.532 98.2366 111.516 98.3045C110.712 101.721 108.858 104.414 105.954 106.381C97.7542 111.941 86.3606 107.372 84.5955 98.0009C84.427 97.1073 84.3502 96.0896 84.3651 94.9477C84.3858 93.4307 84.3881 91.8333 84.372 90.1555C84.3531 88.3278 86.988 88.3426 87.0137 89.9684C87.0378 91.5227 87.0378 93.0922 87.0137 94.677C86.9931 96.0639 87.0899 97.1948 87.3042 98.0698C88.3217 102.222 91.7626 105.321 96.1128 106.093C99.2908 106.655 102.668 105.807 105.16 103.796C107.298 102.071 108.59 99.8565 109.034 97.1527C109.113 96.672 109.474 96.298 109.937 96.1339C111.123 95.7139 111.79 94.6229 111.667 93.4433C111.461 91.4548 108.942 90.5049 107.369 91.7567C107.202 91.8891 107.042 92.0034 106.891 92.0996C105.98 92.6705 104.89 92.0045 104.878 90.9856C104.872 90.4256 104.873 89.8749 104.882 89.3335C104.883 89.2559 104.843 89.2236 104.762 89.2367C100.367 89.9602 96.2005 88.628 93.2219 85.6585C93.1692 85.606 93.1096 85.5973 93.0431 85.6323C90.8861 86.7512 88.0484 87.0793 85.6817 86.9907C85.0068 86.9655 84.5811 86.6287 84.4047 85.9801C83.0022 80.8203 85.2795 76.4448 90.6781 75.0273C91.7116 74.7549 92.7561 74.5909 93.8114 74.5351C96.3964 74.3984 99.2381 74.4612 102.336 74.7237C104.494 74.9064 106.574 75.3264 108.575 75.9837C109.041 76.1369 109.361 76.3053 109.536 76.4891C110.476 77.4784 109.359 78.9615 108.041 78.4955C104.428 77.2175 100.683 77.0124 96.7092 76.9862C93.1669 76.9599 88.2237 77.1814 86.9501 81.1632C86.627 82.1716 86.56 83.2484 86.749 84.3936C86.7571 84.4439 86.788 84.4685 86.8419 84.4674C88.6637 84.4067 91.0614 84.1098 92.4519 82.9449C93.1153 82.3887 93.9747 82.543 94.4869 83.1877C97.1612 86.5527 101.602 87.583 105.752 86.4345C106.453 86.2409 107.173 86.5116 107.42 87.1777C107.596 87.6502 107.513 88.2392 107.52 88.7544C107.521 88.8266 107.559 88.8545 107.634 88.838Z" fill="black"/>
<path d="M32 98.3833V97.5204C32.2291 95.6555 33.1154 94.2736 34.6589 93.3745C36.4429 92.3365 38.3685 92.2961 40.4356 93.2531C40.6642 93.3597 40.8962 93.5993 41.1489 93.7108C41.2068 93.7363 41.2721 93.7427 41.3345 93.7289C42.9656 93.3384 44.0364 92.1555 44.0518 90.5526C44.0553 90.09 43.9883 89.56 44.1378 89.1302C44.3234 88.5986 44.8408 88.2968 45.4217 88.2968C49.4126 88.3022 53.4225 88.3006 57.4512 88.2918C62.7433 88.2804 66.9215 84.7678 67.7947 79.8C67.8073 79.7223 67.7729 79.6835 67.6915 79.6835C61.7424 79.6944 55.3337 79.6928 48.4656 79.6786C47.2235 79.6764 46.2226 79.7617 45.4629 79.9345C40.7054 81.0157 37.555 84.8547 37.4106 89.5108C37.3556 91.2843 34.7568 91.2597 34.7758 89.35C34.8101 85.9097 36.412 82.694 39.0125 80.4201C41.4966 78.2457 44.5039 77.158 48.0342 77.1569C54.9321 77.1547 61.9561 77.1547 69.1061 77.1569C70.2559 77.1569 70.6117 77.9854 70.5292 78.9961C70.2118 82.8986 68.5137 85.9889 65.4348 88.2672C63.4456 89.7405 61.1803 90.5767 58.6389 90.7757C58.0327 90.8228 56.8909 90.8403 55.2134 90.8282C52.3397 90.8064 49.5295 90.8053 46.7829 90.825C46.7211 90.8261 46.6878 90.8561 46.6833 90.9152C46.4461 93.9848 44.002 96.1455 40.7914 96.3063C40.0248 96.344 39.6639 95.7272 39.0658 95.4286C36.9276 94.3671 34.5643 95.9142 34.6537 98.1159C34.695 99.1347 35.3962 100.154 36.3948 100.556C36.9517 100.78 37.414 101.033 37.5189 101.663C38.0139 104.675 39.4674 107.132 41.8793 109.033C44.7943 111.328 48.7131 112.163 52.3328 111.326C56.9201 110.266 60.3886 106.831 61.37 102.398C61.543 101.617 61.6261 100.681 61.6192 99.5908C61.6043 97.481 61.6031 95.2574 61.6158 92.92C61.6261 91.2269 64.2747 91.2056 64.2626 93.0086C64.2512 94.8275 64.2552 96.6661 64.2747 98.5244C64.2884 99.8818 64.2443 100.95 64.1423 101.729C63.629 105.667 61.7298 108.849 58.4447 111.274C53.2626 115.1 46.0508 115.128 40.7725 111.397C37.7543 109.264 35.8471 106.412 35.0508 102.841C35.0393 102.787 35.0084 102.746 34.9579 102.718C33.2266 101.746 32.2406 100.301 32 98.3833Z" fill="black"/>
<path d="M120 94.547V96.6371C119.667 103.707 117.715 110.194 114.144 116.098C113.693 116.843 112.989 116.979 112.034 116.507C108.925 114.969 106.732 112.599 105.454 109.396C105.3 109.01 105.254 108.666 105.318 108.363C105.597 107.04 107.46 107.067 107.903 108.376C108.636 110.543 110.111 112.344 112.331 113.78C112.402 113.825 112.457 113.811 112.496 113.739C116.336 106.702 118.199 98.6567 116.965 90.8457C116.355 86.987 114.911 83.1463 111.848 80.6377C110.332 79.3958 112.113 77.491 113.534 78.6805C117.817 82.2652 119.512 87.7154 119.871 93.0228C119.905 93.5314 119.948 94.0395 120 94.547Z" fill="black"/>
<path d="M91.019 89.7601L90.8746 89.7599C90.1912 89.7587 89.6362 90.2867 89.635 90.9391L89.6312 93.0128C89.63 93.6652 90.1831 94.195 90.8665 94.1961L91.0109 94.1964C91.6944 94.1975 92.2494 93.6696 92.2506 93.0172L92.2544 90.9434C92.2556 90.291 91.7025 89.7613 91.019 89.7601Z" fill="black"/>
<path d="M96.3362 89.7578H96.1953C95.5118 89.7578 94.9578 90.2867 94.9578 90.9391V93.0161C94.9578 93.6685 95.5118 94.1973 96.1953 94.1973H96.3362C97.0197 94.1973 97.5737 93.6685 97.5737 93.0161V90.9391C97.5737 90.2867 97.0197 89.7578 96.3362 89.7578Z" fill="black"/>
<path d="M51.5542 93.7471H51.4133C50.7298 93.7471 50.1758 94.2759 50.1758 94.9283V97.1694C50.1758 97.8218 50.7298 98.3507 51.4133 98.3507H51.5542C52.2376 98.3507 52.7917 97.8218 52.7917 97.1694V94.9283C52.7917 94.2759 52.2376 93.7471 51.5542 93.7471Z" fill="black"/>
<path d="M57.3324 93.7487L57.1915 93.7483C56.5061 93.746 55.9486 94.2745 55.9462 94.9287L55.9381 97.1599C55.9357 97.8141 56.4893 98.3463 57.1747 98.3486L57.3156 98.349C58.001 98.3513 58.5585 97.8228 58.5609 97.1686L58.569 94.9374C58.5714 94.2832 58.0178 93.751 57.3324 93.7487Z" fill="black"/>
<path d="M95.7708 100.504C97.2042 100.43 98.5947 99.8741 99.4059 98.7174C99.6414 98.3827 99.8648 97.9939 100.301 97.8643C101.578 97.4853 102.537 98.6666 101.841 99.7723C100.612 101.725 98.6697 102.81 96.0148 103.029C93.9558 103.2 93.8217 100.604 95.7708 100.504Z" fill="black"/>
<path d="M47.7833 103.129C48.6925 104.581 50.2428 105.31 51.9787 105.393C53.9914 105.49 53.8556 108.109 51.7329 107.928C49.0603 107.702 47.0425 106.652 45.5987 104.571C44.4506 102.919 46.8087 101.571 47.7833 103.129Z" fill="black"/>
</g>
<defs>
<linearGradient id="paint0_linear_69_557" x1="75.5" y1="0" x2="125" y2="151" gradientUnits="userSpaceOnUse">
<stop stop-color="#FF242E"/>
<stop offset="1" stop-color="#FF6019"/>
</linearGradient>
<clipPath id="clip0_69_557">
<rect width="88" height="84" fill="white" transform="translate(32 34)"/>
</clipPath>
</defs>
</svg>
