<svg width="152" height="151" viewBox="0 0 152 151" fill="none" xmlns="http://www.w3.org/2000/svg">
<circle cx="76" cy="75.5" r="70.5" stroke="url(#paint0_linear_69_544)" stroke-width="10"/>
<g clip-path="url(#clip0_69_544)">
<path d="M85.2707 38.6612C85.2707 39.8852 85.0163 41.0972 84.5222 42.228C84.0281 43.3588 83.3038 44.3862 82.3908 45.2517C81.4777 46.1172 80.3938 46.8037 79.2009 47.2721C78.008 47.7405 76.7294 47.9816 75.4382 47.9816C72.8304 47.9816 70.3295 46.9996 68.4855 45.2517C66.6416 43.5038 65.6057 41.1331 65.6057 38.6612C65.6057 36.1893 66.6416 33.8186 68.4855 32.0707C70.3295 30.3228 72.8304 29.3408 75.4382 29.3408C78.0459 29.3408 80.5468 30.3228 82.3908 32.0707C84.2347 33.8186 85.2707 36.1893 85.2707 38.6612ZM82.46 38.6612C82.46 37.7871 82.2784 36.9216 81.9255 36.114C81.5726 35.3065 81.0554 34.5727 80.4034 33.9546C79.7513 33.3365 78.9772 32.8462 78.1253 32.5117C77.2734 32.1772 76.3603 32.0051 75.4382 32.0051C73.5758 32.0051 71.7898 32.7063 70.4729 33.9546C69.1561 35.2029 68.4163 36.8959 68.4163 38.6612C68.4163 40.4265 69.1561 42.1195 70.4729 43.3678C71.7898 44.6161 73.5758 45.3174 75.4382 45.3174C76.3603 45.3174 77.2734 45.1452 78.1253 44.8107C78.9772 44.4762 79.7513 43.9859 80.4034 43.3678C81.0554 42.7497 81.5726 42.016 81.9255 41.2084C82.2784 40.4008 82.46 39.5353 82.46 38.6612Z" fill="black"/>
<path d="M52.805 58.5691C52.805 60.6884 51.9168 62.7209 50.3359 64.2195C48.755 65.7181 46.6108 66.56 44.375 66.56C42.1392 66.56 39.995 65.7181 38.4141 64.2195C36.8332 62.7209 35.945 60.6884 35.945 58.5691C35.945 56.4497 36.8332 54.4172 38.4141 52.9186C39.995 51.42 42.1392 50.5781 44.375 50.5781C46.6108 50.5781 48.755 51.42 50.3359 52.9186C51.9168 54.4172 52.805 56.4497 52.805 58.5691ZM49.9944 58.5673C49.9944 57.8678 49.849 57.1751 49.5666 56.5288C49.2842 55.8826 48.8703 55.2954 48.3485 54.8007C47.8267 54.3061 47.2072 53.9137 46.5255 53.6461C45.8437 53.3784 45.113 53.2406 44.375 53.2406C42.8847 53.2406 41.4553 53.8018 40.4015 54.8007C39.3477 55.7997 38.7556 57.1546 38.7556 58.5673C38.7556 59.98 39.3477 61.3349 40.4015 62.3338C41.4553 63.3328 42.8847 63.894 44.375 63.894C45.113 63.894 45.8437 63.7562 46.5255 63.4885C47.2072 63.2208 47.8267 62.8285 48.3485 62.3338C48.8703 61.8392 49.2842 61.252 49.5666 60.6057C49.849 59.9595 49.9944 59.2668 49.9944 58.5673Z" fill="black"/>
<path d="M123.5 75.5643V90.1598C123.294 91.5106 122.617 92.5 121.469 93.128C120.419 93.7015 119.253 93.8294 117.969 93.5119C117.904 93.4965 117.871 93.5208 117.871 93.5848C117.871 97.0056 117.876 100.65 117.884 104.519C117.886 105.276 117.801 105.901 117.631 106.392C116.137 110.738 109.777 110.725 108.215 106.43C108.04 105.951 107.954 105.256 107.958 104.345C107.977 100.01 107.979 95.621 107.966 91.1765C107.966 91.1243 107.939 91.0983 107.885 91.0983H105.262C105.235 91.0983 105.209 91.1084 105.19 91.1264C105.171 91.1444 105.161 91.1688 105.161 91.1942C105.158 95.7845 105.158 100.302 105.161 104.746C105.162 106.192 104.679 107.368 103.711 108.275C101.791 110.075 98.8288 110.134 96.8469 108.41C95.1913 106.968 95.2063 105.347 95.225 103.147C95.2538 99.9796 95.2581 96.7804 95.2381 93.5492C95.2381 93.4829 95.2044 93.4586 95.1369 93.4763C93.9844 93.7951 92.9281 93.7181 91.9681 93.2453C90.3894 92.468 89.6038 91.1723 89.6113 89.3582C89.6188 87.4055 89.62 85.2526 89.615 82.8994C89.6137 82.8247 89.5756 82.7981 89.5006 82.8194C88.6331 83.0718 87.7706 83.0712 86.9131 82.8176C86.8394 82.7951 86.8025 82.8212 86.8025 82.8958C86.8025 90.1995 86.8025 97.4926 86.8025 104.775C86.8025 106.707 85.9412 108.145 84.2188 109.089C82.9944 109.759 81.3556 109.846 80.0431 109.334C78.6269 108.783 77.6638 107.817 77.1538 106.437C76.9875 105.989 76.9044 105.399 76.9044 104.668C76.8969 96.1939 76.8969 88.1603 76.9044 80.5675C76.9044 80.5326 76.8898 80.4992 76.8637 80.4745C76.8377 80.4498 76.8024 80.436 76.7656 80.436L74.1894 80.4324C74.163 80.4324 74.1377 80.4425 74.1191 80.4605C74.1005 80.4785 74.09 80.5029 74.09 80.5284C74.0925 88.1259 74.095 96.1275 74.0975 104.533C74.0994 106.126 73.6963 107.373 72.4775 108.431C69.2675 111.216 64.1938 109.001 64.1956 104.914C64.1969 97.6264 64.1975 90.286 64.1975 82.8923C64.1975 82.8105 64.1562 82.7827 64.0737 82.8087C63.2262 83.073 62.3675 83.0736 61.4975 82.8105C61.42 82.7868 61.3812 82.8135 61.3812 82.8905C61.3775 85.1655 61.3781 87.3682 61.3831 89.4986C61.3888 92.3904 58.7188 94.1517 55.8313 93.3964C55.7813 93.3833 55.7556 93.4017 55.7544 93.4515C55.7431 96.813 55.7487 100.125 55.7712 103.389C55.7812 104.879 55.6919 105.87 55.5031 106.36C53.5513 111.449 45.8394 110.148 45.8394 104.736C45.8394 100.154 45.8394 95.6222 45.8394 91.1409C45.8394 91.0509 45.7925 91.0058 45.6987 91.0058H43.1506C43.0681 91.0058 43.0269 91.0449 43.0269 91.1231C43.0256 95.6708 43.0262 100.212 43.0287 104.748C43.0287 106.21 42.4856 107.411 41.3994 108.351C38.7969 110.603 34.5631 109.606 33.4044 106.43C33.2056 105.883 33.1088 105.122 33.1138 104.144C33.1325 100.888 33.1331 97.313 33.1156 93.4195C33.1155 93.4116 33.1134 93.404 33.1095 93.397C33.1056 93.3901 33.1001 93.3842 33.0933 93.3797C33.0866 93.3752 33.0788 93.3722 33.0706 93.3711C33.0624 93.37 33.0541 93.3707 33.0462 93.3733C30.4081 94.2228 27.8956 92.5024 27.5 89.9679V75.4363C27.785 72.6245 29.7144 70.2998 32.5475 69.5142C33.2838 69.3104 34.3038 69.2115 35.6075 69.2174C41.37 69.2458 47.43 69.2476 53.7875 69.2227C55.5669 69.2174 57.0406 69.5284 58.475 70.5131C58.4834 70.5186 58.4933 70.522 58.5035 70.5228C58.5137 70.5236 58.524 70.5218 58.533 70.5175C58.5421 70.5133 58.5497 70.5069 58.555 70.4989C58.5604 70.4909 58.5631 70.4816 58.5631 70.4722C58.5844 66.5241 58.5819 62.4753 58.5556 58.3258C58.5481 57.1255 58.6438 56.1924 58.8425 55.5265C59.5156 53.2657 61.4806 51.3817 63.935 50.8592C64.605 50.717 65.3919 50.6471 66.2956 50.6495C72.8544 50.6649 79.1894 50.6672 85.3006 50.6566C88.595 50.6512 91.3437 52.6596 92.2156 55.6865C92.3831 56.2671 92.46 57.3856 92.4463 59.0421C92.4175 62.8894 92.415 66.7338 92.4387 70.5753C92.4389 70.583 92.4413 70.5906 92.4457 70.5972C92.4501 70.6038 92.4563 70.6091 92.4636 70.6126C92.471 70.616 92.4791 70.6175 92.4873 70.6169C92.4955 70.6163 92.5033 70.6136 92.51 70.609C93.8356 69.6955 95.2756 69.3151 96.9481 69.3169C103.279 69.3217 109.797 69.3246 116.501 69.3258C118.031 69.3258 119.504 69.8146 120.718 70.6926C122.348 71.8715 123.275 73.4954 123.5 75.5643ZM83.9825 57.3625C83.9844 55.5763 86.8025 55.5496 86.8025 57.3501C86.8025 64.3753 86.8025 71.5818 86.8025 78.9697C86.8025 80.8163 89.6169 80.7132 89.6169 79.1243C89.6156 71.4556 89.6156 64.1934 89.6169 57.3376C89.6169 54.9969 87.6444 53.3226 85.2331 53.3244C78.2406 53.3267 71.7569 53.3273 65.7819 53.3262C63.875 53.3244 62.1837 54.3304 61.5894 56.0917C61.4556 56.4898 61.3888 57.1421 61.3888 58.0486C61.385 64.838 61.3831 71.5836 61.3831 78.2854C61.3831 79.1207 61.3362 79.7161 62.0431 80.1232C63.0312 80.6901 64.1956 80.0414 64.1956 78.9501C64.1994 74.4677 64.1994 69.9467 64.1956 65.3872C64.1938 63.5334 67.0138 63.5281 67.0138 65.4459C67.0088 77.7238 67.0081 90.8909 67.0119 104.947C67.0119 106.522 68.8344 107.562 70.28 106.678C70.9488 106.271 71.2831 105.662 71.2831 104.851C71.2831 96.0653 71.2825 87.4825 71.2812 79.103C71.2812 78.312 71.945 77.7646 72.7831 77.7664C74.6019 77.77 76.4094 77.7682 78.2056 77.7611C79.0344 77.7575 79.7169 78.3014 79.7169 79.1119C79.7169 88.1668 79.7169 96.7686 79.7169 104.917C79.7169 106.367 81.1981 107.391 82.6306 106.847C83.7069 106.44 83.9956 105.617 83.9956 104.595C83.9844 88.8659 83.98 73.1216 83.9825 57.3625ZM33.0969 72.1376C31.52 72.6992 30.32 74.1513 30.3181 75.7776C30.3119 80.5918 30.3113 85.188 30.3163 89.5662C30.3163 90.9401 32.18 91.4111 32.9263 90.2505C33.0575 90.0478 33.1231 89.8346 33.1231 89.6106C33.1256 84.9433 33.1275 80.3678 33.1288 75.8842C33.1288 74.1548 35.9338 74.1548 35.9356 75.8842C35.9381 85.5684 35.9388 95.2093 35.9375 104.807C35.9356 107.562 40.2106 107.617 40.2125 104.771C40.215 99.937 40.2162 94.9314 40.2162 89.7546C40.2162 88.8837 40.8163 88.3469 41.7931 88.3452C43.4294 88.3416 45.2188 88.338 47.1613 88.3345C48.0031 88.3327 48.6537 88.8979 48.6537 89.7084C48.6512 94.9113 48.6512 99.9334 48.6537 104.775C48.6537 107.597 52.94 107.594 52.94 104.766C52.94 95.1162 52.9406 85.5008 52.9419 75.9197C52.9419 74.1264 55.7619 74.1228 55.76 75.9908C55.7525 80.4354 55.7506 84.9315 55.7544 89.4791C55.7544 89.8156 55.8125 90.0828 55.9287 90.2807C56.4237 91.1249 57.7794 91.1036 58.3381 90.3464C58.4919 90.1391 58.5687 89.8559 58.5687 89.4969C58.5687 84.4812 58.5706 80.0213 58.5744 76.117C58.5762 73.7692 56.8119 71.8887 54.2638 71.8958C48.1038 71.916 41.8169 71.9124 35.4031 71.8852C34.3481 71.8804 33.5794 71.9646 33.0969 72.1376ZM95.4125 75.3812C96.1044 74.162 98.06 74.585 98.06 75.9997C98.0575 85.6033 98.0581 95.2306 98.0619 104.882C98.0619 107.677 102.344 107.708 102.346 104.809C102.347 99.8191 102.348 94.8182 102.348 89.8061C102.348 88.9814 102.989 88.4234 103.833 88.4269C105.643 88.4352 107.45 88.4352 109.254 88.4269C110.202 88.4234 110.791 89.0223 110.789 89.9074C110.782 95.1245 110.783 100.137 110.791 104.944C110.797 107.663 115.061 107.652 115.061 104.905C115.063 95.4847 115.063 85.8557 115.061 76.0175C115.061 74.6561 116.932 74.1353 117.669 75.3012C117.805 75.5169 117.874 75.8552 117.875 76.3161C117.884 80.7381 117.879 85.1453 117.86 89.5378C117.851 91.4964 120.695 91.4999 120.693 89.5857C120.689 85.4967 120.686 80.9798 120.682 76.0353C120.682 74.2313 119.435 72.5908 117.605 72.1447C117.151 72.0333 116.654 71.9782 116.114 71.9794C109.684 71.9983 103.285 72.0007 96.9163 71.9865C94.3288 71.9811 92.4219 73.6465 92.4256 76.1792C92.4319 80.7577 92.4319 85.2194 92.4256 89.5644C92.4237 90.9472 94.2669 91.5906 95.0356 90.3624C95.1881 90.1195 95.2637 89.7919 95.2625 89.3796C95.25 85.2111 95.24 80.9615 95.2325 76.6307C95.2312 76.011 95.2913 75.5945 95.4125 75.3812Z" fill="black"/>
<path d="M114.931 58.6579C114.931 59.7073 114.713 60.7464 114.29 61.7159C113.866 62.6854 113.245 63.5663 112.462 64.3084C111.679 65.0504 110.75 65.639 109.727 66.0406C108.705 66.4422 107.608 66.6489 106.501 66.6489C105.394 66.6489 104.298 66.4422 103.275 66.0406C102.252 65.639 101.323 65.0504 100.54 64.3084C99.7576 63.5663 99.1366 62.6854 98.713 61.7159C98.2893 60.7464 98.0713 59.7073 98.0713 58.6579C98.0713 56.5386 98.9594 54.5061 100.54 53.0075C102.121 51.5089 104.266 50.667 106.501 50.667C108.737 50.667 110.881 51.5089 112.462 53.0075C114.043 54.5061 114.931 56.5386 114.931 58.6579ZM112.121 58.6562C112.121 57.2434 111.529 55.8886 110.475 54.8896C109.421 53.8907 107.992 53.3295 106.501 53.3295C105.011 53.3295 103.582 53.8907 102.528 54.8896C101.474 55.8886 100.882 57.2434 100.882 58.6562C100.882 60.0689 101.474 61.4237 102.528 62.4227C103.582 63.4216 105.011 63.9829 106.501 63.9829C107.992 63.9829 109.421 63.4216 110.475 62.4227C111.529 61.4237 112.121 60.0689 112.121 58.6562Z" fill="black"/>
<path d="M65.6742 56.0122L65.5392 56.012C64.8061 56.0107 64.2107 56.5732 64.2094 57.2681L64.2043 60.0443C64.203 60.7393 64.7963 61.3037 65.5295 61.3049L65.6645 61.3051C66.3976 61.3063 66.993 60.7439 66.9943 60.0489L66.9994 57.2727C67.0007 56.5778 66.4074 56.0134 65.6742 56.0122Z" fill="black"/>
</g>
<defs>
<linearGradient id="paint0_linear_69_544" x1="76" y1="0" x2="125.5" y2="151" gradientUnits="userSpaceOnUse">
<stop stop-color="#FF242E"/>
<stop offset="1" stop-color="#FF6019"/>
</linearGradient>
<clipPath id="clip0_69_544">
<rect width="96" height="91" fill="white" transform="translate(27.5 24)"/>
</clipPath>
</defs>
</svg>
