<svg width="152" height="151" viewBox="0 0 152 151" fill="none" xmlns="http://www.w3.org/2000/svg">
<path d="M74.7874 29H75.6405C79.2009 29.301 81.8137 31.012 83.4789 34.133C84.9437 36.8807 84.998 40.2613 83.6438 43.2401C83.6075 43.3207 83.6319 43.3609 83.7168 43.3609C88.3036 43.3574 92.823 43.3568 97.2749 43.3592C99.1186 43.3609 99.0761 46.0234 97.382 46.0234C79.3895 46.0234 61.4826 46.0234 43.6612 46.0234C41.2823 46.0234 41.2958 49.587 43.6714 49.5852C64.6205 49.5745 85.4897 49.5745 106.279 49.5852C106.506 49.5864 106.744 49.552 106.993 49.4821C108.031 49.1924 108.464 47.8949 107.958 46.9458C107.634 46.338 107.105 46.0317 106.371 46.027C105.408 46.0198 104.349 46.0204 103.193 46.0287C101.769 46.0376 101.341 44.0203 102.627 43.4871C102.873 43.3852 103.237 43.3384 103.718 43.3467C104.315 43.3586 104.922 43.3603 105.538 43.3521C106.367 43.3414 106.972 43.3781 107.351 43.4622C109.892 44.031 111.3 46.7183 110.515 49.315C109.965 51.135 108.347 52.0646 106.549 52.2334C106.476 52.2405 106.439 52.2832 106.439 52.3614V84.0923C106.439 84.167 106.474 84.2079 106.544 84.215C108.179 84.3945 109.703 85.2085 110.35 86.721C111.377 89.1133 110.284 91.9588 107.858 92.844C107.437 92.998 107.028 93.075 106.631 93.075C97.6419 93.0798 88.6038 93.0803 79.5164 93.0768C79.4597 93.0768 79.4314 93.1064 79.4314 93.1657V105.902C79.4314 105.948 79.4507 105.983 79.4892 106.007C82.5614 107.969 85.5639 109.87 88.4967 111.709C89.6301 112.42 90.4321 113.347 90.7057 114.689C91.2512 117.375 89.535 119.677 86.9657 120H86.3285C85.6364 119.908 85.1034 119.743 84.7296 119.506C81.5124 117.471 78.3026 115.437 75.1001 113.403C75.0781 113.389 75.0528 113.381 75.027 113.381C75.0013 113.381 74.976 113.389 74.954 113.403C71.8523 115.369 68.745 117.339 65.6321 119.31C65.0351 119.688 64.3871 119.918 63.6881 120H63.0883C61.7799 119.829 60.7808 119.26 60.0909 118.292C58.9031 116.628 58.9439 114.327 60.2625 112.784C60.5944 112.397 61.1903 111.934 62.0501 111.396C64.9184 109.604 67.7549 107.808 70.5598 106.007C70.6051 105.977 70.6278 105.935 70.6278 105.881C70.6164 103.21 70.6125 100.465 70.6159 97.6446C70.6193 95.7588 73.2497 95.8032 73.1715 97.7974C73.167 97.9064 73.1647 98.0154 73.1647 98.1245C73.1681 100.13 73.1681 102.174 73.1647 104.256C73.1636 104.337 73.1975 104.359 73.2666 104.324C74.4584 103.702 75.6439 103.705 76.8231 104.334C76.8294 104.338 76.8365 104.34 76.8435 104.339C76.8506 104.339 76.8575 104.337 76.8635 104.333C76.8695 104.329 76.8744 104.323 76.8778 104.317C76.8811 104.31 76.8828 104.303 76.8826 104.295V93.1977C76.8826 93.1183 76.8446 93.0786 76.7687 93.0786C65.5482 93.0809 54.4552 93.0798 43.4895 93.075C41.4471 93.075 39.7071 91.4434 39.3859 89.3764C38.9407 86.5202 40.8337 84.5491 43.498 84.2185C43.5705 84.209 43.6068 84.1664 43.6068 84.0905V52.365C43.6068 52.2844 43.5683 52.24 43.4912 52.2317C41.4182 51.9917 39.6085 50.7689 39.3621 48.4797C39.0597 45.6573 40.9492 43.3609 43.6781 43.3592C51.3292 43.3568 59.004 43.3562 66.7026 43.3574C66.7819 43.3574 66.8045 43.3207 66.7705 43.2472C65.0526 39.4668 65.6117 35.1301 68.3882 32.0748C70.0648 30.2276 72.1978 29.2026 74.7874 29ZM74.2029 43.2401C72.9002 42.8538 71.9639 42.0735 71.3941 40.8993C69.372 36.7261 74.0432 32.4907 77.7033 35.2136C78.8299 36.0525 79.5538 37.5135 79.4909 38.9389C79.4093 40.7873 78.5591 42.134 76.9404 42.9788C76.5971 43.1577 76.2374 43.2561 75.8614 43.2738C75.8602 43.2738 75.8597 43.2744 75.8597 43.2756L75.863 43.3201C75.8642 43.3426 75.8755 43.3538 75.897 43.3538C77.3255 43.3586 78.8491 43.3598 80.4679 43.3574C80.5348 43.3574 80.5886 43.3289 80.6294 43.2721C82.9675 39.9804 82.4271 35.5904 79.3023 33.0932C76.519 30.8698 72.4476 31.3105 70.1248 34.0334C67.8648 36.6799 67.7425 40.4017 69.7782 43.2685C69.7982 43.2967 69.8242 43.3196 69.854 43.3353C69.8838 43.351 69.9166 43.3592 69.9498 43.3592L74.5886 43.3574C74.6056 43.3574 74.6141 43.3485 74.6141 43.3307C74.6141 43.3141 74.609 43.3005 74.5988 43.2898C74.5909 43.2815 74.5813 43.278 74.5699 43.2792C74.4544 43.291 74.3321 43.278 74.2029 43.2401ZM76.9421 38.8554C76.9421 38.3736 76.7591 37.9116 76.4334 37.571C76.1077 37.2303 75.666 37.0389 75.2055 37.0389C74.7449 37.0389 74.3032 37.2303 73.9775 37.571C73.6518 37.9116 73.4689 38.3736 73.4689 38.8554C73.4689 39.3371 73.6518 39.7991 73.9775 40.1398C74.3032 40.4804 74.7449 40.6718 75.2055 40.6718C75.666 40.6718 76.1077 40.4804 76.4334 40.1398C76.7591 39.7991 76.9421 39.3371 76.9421 38.8554ZM103.824 84.2007C103.841 84.2007 103.858 84.1934 103.871 84.1804C103.883 84.1674 103.89 84.1498 103.89 84.1314V52.3134C103.89 52.295 103.883 52.2774 103.871 52.2644C103.858 52.2514 103.841 52.2441 103.824 52.2441H46.2219C46.2043 52.2441 46.1874 52.2514 46.175 52.2644C46.1626 52.2774 46.1556 52.295 46.1556 52.3134V84.1279C46.1556 84.1463 46.1626 84.1639 46.175 84.1769C46.1874 84.1899 46.2043 84.1972 46.2219 84.1972L103.824 84.2007ZM108.175 88.6263C108.175 88.1601 107.998 87.713 107.683 87.3834C107.368 87.0537 106.941 86.8685 106.495 86.8685H43.5524C43.1067 86.8685 42.6793 87.0537 42.3641 87.3834C42.0489 87.713 41.8719 88.1601 41.8719 88.6263V88.6512C41.8719 89.1174 42.0489 89.5645 42.3641 89.8942C42.6793 90.2238 43.1067 90.409 43.5524 90.409H106.495C106.941 90.409 107.368 90.2238 107.683 89.8942C107.998 89.5645 108.175 89.1174 108.175 88.6512V88.6263ZM74.3847 110.653C74.9761 110.281 75.5011 110.539 76.0262 110.872C79.3363 112.97 82.4237 114.93 85.2886 116.753C85.9632 117.181 86.58 117.585 87.3973 117.153C88.2028 116.726 88.5919 115.503 87.9938 114.702C87.8114 114.458 87.5322 114.218 87.1561 113.982C83.6942 111.805 80.1343 109.548 76.4765 107.21C75.7475 106.745 75.1477 106.224 74.2692 106.784C70.3055 109.302 66.4131 111.769 62.5922 114.185C60.7213 115.368 62.4324 118.226 64.2081 117.099C68.4301 114.418 71.8223 112.269 74.3847 110.653Z" fill="black"/>
<path d="M81.4569 59.0678C81.4569 60.2557 81.0057 61.3949 80.2027 62.2348C79.3996 63.0748 78.3105 63.5467 77.1748 63.5467C76.0392 63.5467 74.95 63.0748 74.147 62.2348C73.3439 61.3949 72.8928 60.2557 72.8928 59.0678C72.8928 57.8799 73.3439 56.7407 74.147 55.9007C74.95 55.0607 76.0392 54.5889 77.1748 54.5889C78.3105 54.5889 79.3996 55.0607 80.2027 55.9007C81.0057 56.7407 81.4569 57.8799 81.4569 59.0678ZM78.9063 59.0678C78.9063 58.5874 78.7239 58.1268 78.3992 57.7871C78.0745 57.4475 77.634 57.2567 77.1748 57.2567C76.7156 57.2567 76.2752 57.4475 75.9505 57.7871C75.6257 58.1268 75.4433 58.5874 75.4433 59.0678C75.4433 59.3056 75.4881 59.5411 75.5751 59.7609C75.6621 59.9806 75.7897 60.1802 75.9505 60.3484C76.1112 60.5166 76.3021 60.65 76.5122 60.741C76.7223 60.832 76.9474 60.8789 77.1748 60.8789C77.4022 60.8789 77.6274 60.832 77.8374 60.741C78.0475 60.65 78.2384 60.5166 78.3992 60.3484C78.56 60.1802 78.6875 59.9806 78.7745 59.7609C78.8615 59.5411 78.9063 59.3056 78.9063 59.0678Z" fill="black"/>
<path d="M53.5353 62.556C53.0205 63.1585 52.5804 63.969 51.6883 63.8304C50.6127 63.6633 50.2711 62.389 50.9797 61.5572C51.9086 60.4694 52.8658 59.3266 53.8514 58.1287C54.4682 57.3804 55.3484 57.3644 55.9754 58.1216C56.9077 59.2448 57.8536 60.3699 58.8131 61.4967C59.0136 61.7313 59.1433 61.9736 59.2022 62.2237C59.4333 63.2065 58.5361 64.0899 57.6134 63.7984C57.0612 63.6242 56.6653 62.9826 56.2948 62.5471C56.2257 62.4654 56.1912 62.479 56.1912 62.588C56.1889 64.4957 56.1895 66.462 56.1929 68.487C56.1946 70.3124 53.6424 70.3284 53.6424 68.4693C53.6401 66.6244 53.6401 64.6675 53.6424 62.5987C53.6435 62.4849 53.6078 62.4707 53.5353 62.556Z" fill="black"/>
<path d="M87.535 63.1906C87.8018 63.69 88.2741 64.2659 88.3353 64.8258C88.4916 66.2565 86.6939 66.8555 85.9819 65.6451C85.2206 64.35 84.4413 63.0194 83.6438 61.6532C83.1255 60.7663 83.4688 59.9559 84.3167 59.5631C85.5231 59.0038 86.8009 58.4048 88.1501 57.7662C88.4424 57.6275 88.7131 57.5618 88.9623 57.5689C89.7372 57.592 90.2945 58.3758 90.1297 59.1667C89.9581 59.9985 89.1747 60.2367 88.5137 60.5175C88.4242 60.5554 88.4242 60.5933 88.5137 60.6312C92.4372 62.2468 95.0404 65.3412 96.0005 69.6299C96.1172 70.1465 96.1177 70.5565 96.0022 70.8599C95.5995 71.9209 94.1466 71.9974 93.6879 70.9487C93.5043 70.5328 93.4975 70.0281 93.3684 69.5855C92.4599 66.4763 90.5386 64.3169 87.6046 63.1071C87.5061 63.0656 87.4829 63.0935 87.535 63.1906Z" fill="black"/>
<path d="M68.5275 77.6553C66.7921 77.6482 64.9796 77.6505 63.09 77.6624C62.7842 77.6647 62.5259 77.6179 62.3152 77.522C61.0663 76.9532 61.4605 74.9875 62.8538 74.9875C64.7026 74.9863 66.5876 74.9869 68.5088 74.9892C68.6221 74.9904 68.6374 74.9507 68.5547 74.8702C68.3372 74.6592 68.1067 74.4501 67.8631 74.2428C66.4086 73.004 68.1571 70.9511 69.4298 72.1259C70.3893 73.0122 71.5063 74.0348 72.7807 75.1936C73.6813 76.0148 73.3873 76.9283 72.5819 77.6357C71.6405 78.4592 70.724 79.2993 69.8325 80.156C69.5255 80.4498 69.2548 80.6453 69.0203 80.7425C68.361 81.0109 67.508 80.5683 67.3466 79.7899C67.1393 78.7785 67.977 78.3307 68.5649 77.7566C68.6329 77.6902 68.6204 77.6564 68.5275 77.6553Z" fill="black"/>
<path d="M59.2005 76.3148C59.2005 76.903 59.0898 77.4854 58.8746 78.0289C58.6594 78.5723 58.344 79.066 57.9463 79.4819C57.5487 79.8978 57.0767 80.2277 56.5571 80.4528C56.0376 80.6779 55.4808 80.7938 54.9185 80.7938C54.3562 80.7938 53.7993 80.6779 53.2798 80.4528C52.7603 80.2277 52.2883 79.8978 51.8906 79.4819C51.493 79.066 51.1776 78.5723 50.9624 78.0289C50.7472 77.4854 50.6364 76.903 50.6364 76.3148C50.6364 75.127 51.0876 73.9877 51.8906 73.1478C52.6937 72.3078 53.7828 71.8359 54.9185 71.8359C56.0541 71.8359 57.1433 72.3078 57.9463 73.1478C58.7494 73.9877 59.2005 75.127 59.2005 76.3148ZM56.65 76.3148C56.65 75.8345 56.4676 75.3738 56.1428 75.0342C55.8181 74.6945 55.3777 74.5037 54.9185 74.5037C54.4593 74.5037 54.0188 74.6945 53.6941 75.0342C53.3694 75.3738 53.187 75.8345 53.187 76.3148C53.187 76.7952 53.3694 77.2558 53.6941 77.5955C54.0188 77.9351 54.4593 78.126 54.9185 78.126C55.3777 78.126 55.8181 77.9351 56.1428 77.5955C56.4676 77.2558 56.65 76.7952 56.65 76.3148Z" fill="black"/>
<path d="M99.2137 78.1596C99.2137 78.7477 99.103 79.3302 98.8878 79.8736C98.6726 80.417 98.3572 80.9107 97.9595 81.3266C97.5619 81.7425 97.0899 82.0725 96.5703 82.2975C96.0508 82.5226 95.494 82.6385 94.9317 82.6385C94.3694 82.6385 93.8125 82.5226 93.293 82.2975C92.7735 82.0725 92.3015 81.7425 91.9038 81.3266C91.5062 80.9107 91.1908 80.417 90.9756 79.8736C90.7604 79.3302 90.6497 78.7477 90.6497 78.1596C90.6497 76.9717 91.1008 75.8325 91.9038 74.9925C92.7069 74.1525 93.796 73.6807 94.9317 73.6807C96.0673 73.6807 97.1565 74.1525 97.9595 74.9925C98.7626 75.8325 99.2137 76.9717 99.2137 78.1596ZM96.6632 78.1596C96.6632 77.6792 96.4808 77.2186 96.156 76.8789C95.8313 76.5393 95.3909 76.3485 94.9317 76.3485C94.4725 76.3485 94.032 76.5393 93.7073 76.8789C93.3826 77.2186 93.2002 77.6792 93.2002 78.1596C93.2002 78.6399 93.3826 79.1006 93.7073 79.4402C94.032 79.7799 94.4725 79.9707 94.9317 79.9707C95.3909 79.9707 95.8313 79.7799 96.156 79.4402C96.4808 79.1006 96.6632 78.6399 96.6632 78.1596Z" fill="black"/>
<circle cx="76" cy="75.5" r="70.5" stroke="url(#paint0_linear_69_565)" stroke-width="10"/>
<defs>
<linearGradient id="paint0_linear_69_565" x1="76" y1="0" x2="125.5" y2="151" gradientUnits="userSpaceOnUse">
<stop stop-color="#FF242E"/>
<stop offset="1" stop-color="#FF6019"/>
</linearGradient>
</defs>
</svg>
