<svg width="71" height="73" viewBox="0 0 71 73" fill="none" xmlns="http://www.w3.org/2000/svg">
<path d="M68 36.2335C68 54.9465 53.3683 69.9673 35.5 69.9673C17.6317 69.9673 3 54.9465 3 36.2335C3 17.5205 17.6317 2.49976 35.5 2.49976C53.3683 2.49976 68 17.5205 68 36.2335Z" fill="url(#paint0_linear_69_539)" stroke="url(#paint1_linear_69_539)" stroke-width="5"/>
<g clip-path="url(#clip0_69_539)">
<path d="M60.5 37.7654V38.5193C60.2607 41.5125 58.2227 43.8914 55.2783 44.5164C55.2591 44.5202 55.2412 44.5291 55.2265 44.5423C55.2117 44.5555 55.2006 44.5725 55.1943 44.5916C52.3447 53.2712 44.0449 59.1423 34.8906 58.8425C31.9557 58.7468 29.2347 58.1026 26.7275 56.9099C22.1064 54.7126 18.7139 51.2543 16.5498 46.5349C16.2744 45.9324 16.0986 45.4617 15.8047 44.5935C15.7991 44.5765 15.7892 44.5613 15.776 44.5493C15.7628 44.5373 15.7468 44.529 15.7295 44.5251C13.6878 44.0473 12.1911 42.9278 11.2393 41.1667C10.8232 40.3972 10.5768 39.5173 10.5 38.5271V37.7322C10.5853 36.6573 10.8747 35.7045 11.3682 34.8738C12.335 33.2462 13.7884 32.2035 15.7285 31.7458C15.7617 31.738 15.7839 31.7179 15.7949 31.6853C17.5352 26.5896 20.766 22.6921 25.4873 19.9929C25.4901 19.9913 25.4924 19.989 25.4939 19.9861C25.4954 19.9833 25.496 19.98 25.4957 19.9768C25.4954 19.9736 25.4942 19.9706 25.4922 19.968C25.4901 19.9655 25.4874 19.9636 25.4844 19.9626C22.5537 18.9246 20.6553 16.3181 20.5869 13.2019C20.5856 13.157 20.6074 13.1345 20.6523 13.1345H23.458C23.5003 13.1345 23.5215 13.1557 23.5215 13.198C23.5225 15.1941 24.9512 16.8406 26.8477 17.3054C27.4248 17.446 28.0547 17.4167 28.6621 17.4138C28.6679 17.414 28.6736 17.4124 28.6786 17.4094C28.6836 17.4064 28.6876 17.402 28.6903 17.3968C28.6929 17.3915 28.694 17.3855 28.6935 17.3796C28.6931 17.3736 28.691 17.3679 28.6875 17.363C27.7917 16.1176 27.3333 14.7208 27.3125 13.1726C27.3125 13.1625 27.3165 13.1528 27.3237 13.1457C27.3308 13.1385 27.3405 13.1345 27.3506 13.1345H30.2041C30.214 13.1345 30.2236 13.1384 30.2307 13.1453C30.2378 13.1523 30.2419 13.1617 30.2422 13.1716C30.291 15.3582 31.8408 17.0789 33.9873 17.3718C34.2607 17.4089 34.7334 17.4259 35.4053 17.4226C41.3945 17.3875 47.0811 19.9646 51.0479 24.448C52.9176 26.5606 54.3005 28.975 55.1963 31.6912C55.2074 31.7231 55.2292 31.7426 55.2617 31.7498C58.2207 32.3943 60.2588 34.74 60.5 37.7654ZM30.6133 25.1462C30.6693 25.1462 30.6982 25.1742 30.7002 25.2302C30.7568 26.7198 31.348 27.9307 32.4736 28.863C34.4805 30.5242 37.4883 30.2351 39.1631 28.239C40.9023 26.1658 40.6084 23.1033 38.4971 21.407C37.4326 20.5515 36.2812 20.3025 34.9473 20.3523C27.5996 20.6248 21.3145 25.2136 18.7705 32.0632C18.4814 32.8416 18.2666 33.6775 18.0537 34.4812C18.0446 34.517 18.0215 34.5359 17.9844 34.5378C17.4795 34.5642 16.9443 34.532 16.4541 34.6082C13.8457 35.0144 12.583 37.9978 14.0645 40.1492C14.7705 41.1746 15.8477 41.7058 17.0928 41.7185C17.4046 41.7218 17.7035 41.7279 17.9893 41.7371C18.0055 41.7377 18.0212 41.7436 18.0339 41.754C18.0466 41.7644 18.0556 41.7787 18.0596 41.7947C18.2907 42.7491 18.5332 43.5688 18.7871 44.2537C21.9873 52.8904 31.2256 57.7341 40.1582 55.3035C45.7324 53.7869 50.2041 49.6804 52.2109 44.2537C52.4603 43.5792 52.7038 42.7592 52.9414 41.7937C52.9499 41.7572 52.9727 41.7384 53.0098 41.7371C53.5869 41.7156 54.1611 41.7498 54.7119 41.6355C56.9678 41.1707 58.2158 38.7 57.2227 36.6052C56.7666 35.6433 55.8984 34.9285 54.8701 34.6716C54.2725 34.5232 53.6191 34.5632 53.0078 34.5388C52.9928 34.5382 52.9784 34.5327 52.9668 34.5232C52.9552 34.5137 52.9469 34.5007 52.9434 34.4861C52.7031 33.5154 52.4528 32.6785 52.1924 31.9753C50.5 27.4138 46.9951 23.7146 42.5137 21.7966C42.472 21.7791 42.4606 21.7908 42.4795 21.8318C44.1562 25.406 42.9277 29.5876 39.6104 31.6892C36.5273 33.6414 32.4717 33.1414 29.9434 30.5105C28.5436 29.0548 27.8167 27.2823 27.7627 25.1931C27.7626 25.187 27.7637 25.1809 27.7659 25.1753C27.7682 25.1696 27.7715 25.1644 27.7758 25.16C27.7801 25.1557 27.7852 25.1522 27.7908 25.1498C27.7964 25.1475 27.8025 25.1462 27.8086 25.1462H30.6133Z" fill="white"/>
<path d="M28.9873 38.658C28.9101 37.1014 27.1338 36.2616 25.9053 37.2498C25.4717 37.5995 25.2363 38.0672 25.1992 38.6532C25.1966 38.6981 25.1728 38.7205 25.1279 38.7205H22.3135C22.307 38.7206 22.3006 38.7193 22.2947 38.7167C22.2887 38.7142 22.2834 38.7105 22.2789 38.7058C22.2744 38.7012 22.271 38.6957 22.2687 38.6897C22.2664 38.6836 22.2653 38.6772 22.2656 38.6707C22.3112 37.3368 22.7864 36.2173 23.6914 35.3123C25.5869 33.4168 28.6748 33.4364 30.5381 35.3534C31.4274 36.2694 31.8877 37.3781 31.9189 38.6795C31.9191 38.6849 31.9181 38.6902 31.9162 38.6952C31.9142 38.7001 31.9113 38.7047 31.9075 38.7085C31.9038 38.7123 31.8994 38.7153 31.8944 38.7174C31.8895 38.7195 31.8842 38.7205 31.8789 38.7205H29.0527C29.011 38.7205 28.9892 38.6997 28.9873 38.658Z" fill="white"/>
<path d="M44.9277 37.1294C43.7021 36.3394 42.0498 37.1948 42.0146 38.6528C42.0133 38.6978 41.9902 38.7202 41.9453 38.7202H39.1387C39.099 38.7202 39.0798 38.7004 39.0811 38.6606C39.1097 37.5461 39.4593 36.5685 40.1299 35.728C41.9268 33.4761 45.2773 33.2749 47.3008 35.3042C48.2194 36.2254 48.6963 37.3485 48.7314 38.6733C48.7317 38.6794 48.7307 38.6854 48.7285 38.6911C48.7263 38.6968 48.723 38.702 48.7187 38.7064C48.7144 38.7107 48.7093 38.7142 48.7036 38.7166C48.6979 38.719 48.6917 38.7202 48.6855 38.7202H45.8574C45.8249 38.7202 45.8063 38.7043 45.8018 38.6724C45.792 38.5991 45.7949 38.522 45.7822 38.4478C45.6813 37.8716 45.3965 37.4321 44.9277 37.1294Z" fill="white"/>
<path d="M30.9863 44.7366C33.0664 48.1477 37.9287 48.1301 40.0127 44.7356C40.018 44.7267 40.0266 44.7203 40.0365 44.7178C40.0464 44.7152 40.0568 44.7167 40.0654 44.7219L42.5058 46.1623C42.513 46.1666 42.5192 46.1722 42.5242 46.1789C42.5291 46.1855 42.5327 46.1931 42.5347 46.2011C42.5367 46.2091 42.5371 46.2174 42.5358 46.2255C42.5345 46.2336 42.5317 46.2413 42.5273 46.2483C39.2168 51.5461 31.7529 51.5383 28.4678 46.2366C28.4645 46.2312 28.4623 46.2252 28.4613 46.2189C28.4603 46.2127 28.4605 46.2064 28.462 46.2003C28.4634 46.1942 28.4661 46.1885 28.4698 46.1835C28.4734 46.1785 28.4781 46.1743 28.4834 46.1711L30.9365 44.7239C30.9573 44.7121 30.9739 44.7164 30.9863 44.7366Z" fill="white"/>
</g>
<defs>
<linearGradient id="paint0_linear_69_539" x1="35.5" y1="-0.000244141" x2="35.5" y2="72.4673" gradientUnits="userSpaceOnUse">
<stop stop-color="#FF242E"/>
<stop offset="1" stop-color="#FF6019"/>
</linearGradient>
<linearGradient id="paint1_linear_69_539" x1="35.5" y1="-0.000244141" x2="59.9233" y2="71.9663" gradientUnits="userSpaceOnUse">
<stop stop-color="#FF242E"/>
<stop offset="1" stop-color="#FF6019"/>
</linearGradient>
<clipPath id="clip0_69_539">
<rect width="50" height="50" fill="white" transform="translate(10.5 10.9998)"/>
</clipPath>
</defs>
</svg>
