<svg width="71" height="73" viewBox="0 0 71 73" fill="none" xmlns="http://www.w3.org/2000/svg">
<path d="M68 36.7011C68 55.414 53.3683 70.4348 35.5 70.4348C17.6317 70.4348 3 55.414 3 36.7011C3 17.9881 17.6317 2.96729 35.5 2.96729C53.3683 2.96729 68 17.9881 68 36.7011Z" fill="url(#paint0_linear_69_540)" stroke="url(#paint1_linear_69_540)" stroke-width="5"/>
<g clip-path="url(#clip0_69_540)">
<path d="M28.6191 14.0103H40.6621L40.666 15.4458C40.666 15.4525 40.6633 15.459 40.6586 15.4638C40.6538 15.4685 40.6474 15.4712 40.6406 15.4712C36.8561 15.4784 33.07 15.4777 29.2822 15.4692C28.764 15.4679 28.375 15.5122 28.1152 15.6021C27.709 15.7433 27.3688 15.992 27.0947 16.3481C26.7432 16.8032 26.6387 17.3052 26.6396 17.8999C26.6455 23.7078 26.6462 29.2384 26.6416 34.4917C26.6416 35.4624 27.291 36.3472 28.2266 36.6157C28.4603 36.6828 28.7738 36.7153 29.167 36.7134C31.1839 36.7036 33.1068 36.7023 34.9355 36.7095C34.9707 36.7101 34.9883 36.728 34.9883 36.7632V38.1128C34.9883 38.1584 34.9655 38.1812 34.9199 38.1812C33.0618 38.1746 31.1178 38.1756 29.0879 38.1841C27.5488 38.1906 26.401 37.5601 25.6445 36.2925C25.334 35.7723 25.1784 35.1509 25.1777 34.4282C25.1751 29.0259 25.1751 23.4731 25.1777 17.77C25.1787 16.0444 26.1807 14.7046 27.8086 14.1558C27.9648 14.103 28.235 14.0545 28.6191 14.0103Z" fill="white"/>
<path d="M42.1719 14.0103H57.082C58.9971 14.2319 60.3506 15.5796 60.5 17.5093V31.6372L59.083 31.6333C59.0479 31.6333 59.0303 31.616 59.0303 31.5815C59.0283 27.2267 59.0309 22.8608 59.0381 18.4839C59.0394 17.8094 59.0169 17.3709 58.9707 17.1685C58.7373 16.1606 57.8233 15.4761 56.7754 15.4761C51.9173 15.4748 47.0586 15.4748 42.1992 15.4761C42.1641 15.4761 42.1468 15.4582 42.1475 15.4224L42.1719 14.0103Z" fill="white"/>
<path d="M53.3408 29.7482C52.9658 35.4592 46.418 38.4094 41.8926 34.8986C40.7578 34.0178 39.9564 32.8592 39.4883 31.423C39.4868 31.4184 39.4844 31.4142 39.4811 31.4106C39.4779 31.4071 39.4739 31.4042 39.4694 31.4024C39.4649 31.4005 39.4601 31.3997 39.4553 31.3999C39.4504 31.4 39.4457 31.4013 39.4414 31.4035C38.1836 32.0256 36.7725 32.2414 35.3682 32.3791C35.362 32.3796 35.3559 32.3788 35.3501 32.3765C35.3444 32.3743 35.3393 32.3708 35.3351 32.3663C35.331 32.3617 35.3279 32.3563 35.3262 32.3504C35.3245 32.3445 35.3241 32.3383 35.3252 32.3322C35.5342 31.2235 35.599 30.0949 35.5195 28.9465C35.4356 27.7401 35.3213 26.44 35.1768 25.0461C34.9609 22.9738 34.666 19.2219 37.5703 18.8117C39.2227 18.5783 40.8086 19.3859 42.1348 20.3293C42.166 20.3514 42.1982 20.3527 42.2315 20.3332C44.0472 19.2792 45.972 19.0428 48.0059 19.6242C48.0436 19.6346 48.0749 19.6249 48.0996 19.5949C49.0166 18.4895 50.2529 17.4348 51.6318 17.1066C54.4121 16.4465 55.3955 19.0871 55.7656 21.2082C55.9941 22.52 56.2005 23.8231 56.3848 25.1174C56.6045 26.6564 56.9492 28.1389 57.5967 29.5861C57.6149 29.6265 57.6022 29.6496 57.5586 29.6555C56.168 29.8449 54.8076 29.9826 53.4072 29.6975C53.3656 29.689 53.3434 29.7059 53.3408 29.7482ZM53.334 28.1408C54.0859 28.3648 54.8141 28.4455 55.5186 28.383C55.5531 28.3797 55.5658 28.3615 55.5566 28.3283C55.083 26.6057 54.8623 24.9768 54.6006 23.1223C54.4756 22.2323 54.3242 21.4224 54.1465 20.6926C54.0241 20.1919 53.8525 19.7297 53.6318 19.3059C52.6172 17.3605 50.3535 19.2883 49.4883 20.2297C49.4843 20.234 49.4813 20.2391 49.4796 20.2446C49.4778 20.2501 49.4772 20.256 49.478 20.2617C49.4787 20.2674 49.4808 20.2729 49.4839 20.2776C49.487 20.2824 49.4912 20.2864 49.4961 20.2893C51.097 21.2632 52.1628 22.618 52.6934 24.3537C52.8125 24.7443 52.9235 25.357 53.0264 26.1916C53.1032 26.8166 53.1787 27.4344 53.2529 28.0451C53.2588 28.0952 53.2858 28.1271 53.334 28.1408ZM40.9014 21.257C40.0107 20.6691 38.9326 20.1623 37.8779 20.2473C36.8281 20.3322 36.6084 21.4006 36.5527 22.258C36.5163 22.829 36.5176 23.368 36.5566 23.8752C36.6465 25.0308 36.7604 26.2896 36.8984 27.6516C36.9968 28.6236 37.0322 29.6083 37.0049 30.6057C37.0042 30.6434 37.0225 30.659 37.0596 30.6525C37.8265 30.5204 38.5127 30.2674 39.1182 29.8937C39.1363 29.8827 39.1509 29.8668 39.1602 29.8479C39.1696 29.8291 39.1733 29.808 39.1709 29.7873C39.111 29.2248 39.0378 28.6281 38.9512 27.9973C38.8516 27.2707 38.8079 26.6763 38.8203 26.2141C38.8698 24.3612 39.5674 22.746 40.9131 21.3684C40.9206 21.3607 40.9264 21.3516 40.9299 21.3414C40.9335 21.3313 40.9348 21.3206 40.9336 21.3099C40.9325 21.2993 40.929 21.289 40.9235 21.2798C40.9179 21.2707 40.9103 21.2629 40.9014 21.257ZM46.2764 23.3781C46.3106 23.6877 46.3242 24.0197 46.4639 24.299C47.1592 25.6838 50.1084 25.5988 51.419 25.4631C51.4411 25.4605 51.4499 25.4484 51.4453 25.427C51.1686 23.9966 50.4759 22.8478 49.3672 21.9807C46.8867 20.0393 43.3008 20.5168 41.4141 23.0305C40.5912 24.1275 40.2178 25.3827 40.294 26.7961C40.294 26.8002 40.295 26.8043 40.2968 26.808C40.2986 26.8117 40.3012 26.815 40.3045 26.8177C40.3077 26.8204 40.3115 26.8223 40.3155 26.8235C40.3196 26.8247 40.3239 26.825 40.3281 26.8244C41.5986 26.6369 45.1123 25.8928 44.8809 24.0656C44.8587 23.8898 44.8359 23.7202 44.8125 23.5568C44.8103 23.5395 44.815 23.522 44.8256 23.5081C44.8362 23.4942 44.8518 23.485 44.8691 23.4826L46.1973 23.3156C46.2448 23.3098 46.2712 23.3306 46.2764 23.3781ZM48.3858 26.882C47.4736 26.7541 46.5537 26.4582 45.8643 25.8811C45.861 25.8784 45.8572 25.8764 45.8531 25.8753C45.849 25.8741 45.8447 25.8738 45.8405 25.8743C45.8363 25.8749 45.8323 25.8763 45.8287 25.8784C45.825 25.8806 45.8218 25.8835 45.8193 25.8869C44.6582 27.3996 42.3945 28.0002 40.542 28.2775C40.4964 28.2847 40.4759 28.3114 40.4805 28.3576C40.6087 29.5549 40.7178 30.3273 40.8076 30.675C42.0498 35.4836 48.3809 36.5041 51.0361 32.2883C51.5179 31.5233 51.7969 30.6753 51.8731 29.7443C51.9424 28.885 51.7481 27.8684 51.6465 26.9826C51.6448 26.9651 51.6361 26.949 51.6224 26.9379C51.6087 26.9267 51.591 26.9214 51.5732 26.923C50.4541 27.037 49.3916 27.0233 48.3858 26.882Z" fill="white"/>
<path d="M32.8295 26.0487L29.9909 24.5773C29.9684 24.5656 29.9407 24.5744 29.9291 24.5969L29.2954 25.8194C29.2837 25.8419 29.2925 25.8696 29.315 25.8813L32.1536 27.3526C32.1761 27.3643 32.2038 27.3555 32.2155 27.333L32.8492 26.1105C32.8608 26.088 32.852 26.0603 32.8295 26.0487Z" fill="white"/>
<path d="M49.0421 28.395L47.6522 28.5657C47.6334 28.568 47.6201 28.585 47.6224 28.6037L47.7928 29.9918C47.7951 30.0105 47.8122 30.0238 47.8309 30.0215L49.2209 29.8509C49.2396 29.8486 49.2529 29.8315 49.2506 29.8128L49.0802 28.4248C49.0779 28.406 49.0608 28.3927 49.0421 28.395Z" fill="white"/>
<path d="M44.7599 28.9213L43.3854 29.0901C43.3624 29.0929 43.346 29.1139 43.3489 29.1369L43.5176 30.5113C43.5205 30.5344 43.5414 30.5507 43.5644 30.5479L44.9389 30.3791C44.9619 30.3763 44.9783 30.3554 44.9754 30.3323L44.8067 28.9579C44.8038 28.9349 44.7829 28.9185 44.7599 28.9213Z" fill="white"/>
<path d="M31.6534 29.0937L28.2592 29.6374C28.2363 29.6411 28.2207 29.6626 28.2244 29.6855L28.4431 31.0509C28.4467 31.0738 28.4683 31.0894 28.4912 31.0857L31.8854 30.5421C31.9083 30.5384 31.9239 30.5169 31.9202 30.494L31.7015 29.1286C31.6978 29.1057 31.6763 29.0901 31.6534 29.0937Z" fill="white"/>
<path d="M33.9394 32.9983L32.9442 32.0271C32.9291 32.0124 32.905 32.0127 32.8903 32.0277L30.6478 34.3258C30.6331 34.3408 30.6334 34.365 30.6484 34.3796L31.6437 35.3509C31.6587 35.3656 31.6828 35.3653 31.6975 35.3502L33.9401 33.0522C33.9548 33.0371 33.9545 33.013 33.9394 32.9983Z" fill="white"/>
<path d="M60.5 33.1167V34.6909C60.3379 36.7935 58.6914 38.2134 56.5938 38.1821C56.0501 38.1743 54.9538 38.174 53.3047 38.1812C53.2715 38.1812 53.2549 38.1974 53.2549 38.23V44.1812C53.2549 44.2228 53.2357 44.2352 53.1973 44.2183C48.7949 42.2547 44.3496 40.2707 39.8613 38.2661C39.7233 38.2043 39.5784 38.1737 39.4268 38.1743C38.4548 38.1795 37.4854 38.1805 36.5186 38.1772C36.5017 38.1772 36.4856 38.1706 36.4737 38.1587C36.4618 38.1468 36.4551 38.1306 36.4551 38.1138V36.7642C36.4551 36.7486 36.4611 36.7337 36.472 36.7227C36.4828 36.7117 36.4974 36.7056 36.5127 36.7056C37.5394 36.7088 38.6182 36.7082 39.749 36.7036C39.8831 36.7036 40.0137 36.7319 40.1406 36.7886C44.0729 38.5405 47.9486 40.2694 51.7676 41.9751C51.7698 41.9761 51.7723 41.9765 51.7747 41.9763C51.7772 41.976 51.7795 41.9752 51.7816 41.9739C51.7836 41.9725 51.7853 41.9707 51.7864 41.9685C51.7876 41.9663 51.7881 41.9639 51.7881 41.9614V36.7407C51.7881 36.7192 51.7988 36.7085 51.8203 36.7085C53.5221 36.7085 55.1865 36.7075 56.8135 36.7056C58.1104 36.7046 59.0488 35.6753 59.0332 34.3813C59.0286 33.9862 59.0283 33.5828 59.0322 33.1714C59.0322 33.133 59.0514 33.1138 59.0898 33.1138L60.5 33.1167Z" fill="white"/>
<path d="M10.5 48.8589V37.2446C10.6807 35.2827 12.1777 33.7778 14.168 33.7778C17.3223 33.7778 20.4355 33.7778 23.5078 33.7778C23.5443 33.7778 23.5625 33.7961 23.5625 33.8325V35.1997C23.5625 35.2111 23.558 35.222 23.5499 35.2301C23.5419 35.2381 23.5309 35.2427 23.5195 35.2427C20.3646 35.242 17.2048 35.242 14.04 35.2427C13.5179 35.2433 13.0365 35.4644 12.5957 35.9058C12.1771 36.3257 11.9678 36.869 11.9678 37.5356C11.9684 41.2987 11.9684 45.0591 11.9678 48.8169C11.9678 48.8507 11.9508 48.8677 11.917 48.8677L10.5 48.8589Z" fill="white"/>
<path d="M17.0498 41.7354C18.0361 40.2751 19.3707 39.3064 21.0537 38.8292C24.6123 37.8204 28.3232 39.7676 29.5957 43.1719C29.7754 43.6518 29.9251 44.254 30.0449 44.9786C30.1673 45.7175 30.3021 46.502 30.4492 47.3321C31.2832 52.0215 27.2802 56.213 22.5527 55.5792C19.9013 55.2237 17.6455 53.4151 16.7754 50.8878C16.6113 50.4118 16.4661 49.7937 16.3398 49.0333C16.2142 48.2728 16.0859 47.5219 15.9551 46.7803C15.6552 45.0782 16.0586 43.2042 17.0498 41.7354ZM19.6269 44.1622L20.9424 43.9297C20.9795 43.9232 21.0062 43.9369 21.0224 43.9708C21.3935 44.7501 23.3056 44.8067 24.0537 44.8077C25.5224 44.809 26.9746 44.685 28.4101 44.4356C28.4329 44.4317 28.4414 44.4184 28.4355 44.3956C28.0905 42.988 27.3398 41.877 26.1836 41.0626C23.6084 39.2481 20.0664 39.9122 18.3008 42.5118C17.5436 43.6264 17.2311 44.8874 17.3633 46.295C17.3672 46.338 17.39 46.3539 17.4316 46.3428C18.4472 46.0821 19.7783 45.4678 19.5703 44.2422C19.5625 44.1967 19.5814 44.17 19.6269 44.1622ZM20.7539 45.754C20.164 46.8917 18.9199 47.4844 17.6816 47.8028C17.6458 47.8119 17.6308 47.8347 17.6367 47.8712C17.8255 49.0476 17.9687 49.796 18.0664 50.1163C18.5136 51.585 19.3935 52.6934 20.706 53.4415C23.4179 54.9883 26.8252 54.0069 28.3662 51.3047C29.0508 50.1046 29.2207 48.7588 28.9717 47.3799C28.8864 46.9073 28.8034 46.4337 28.7226 45.959C28.7129 45.9011 28.679 45.877 28.6211 45.8868C26.9316 46.1739 25.3333 46.3067 23.8261 46.2852C22.6569 46.2689 21.6631 46.0814 20.8447 45.7227C20.8043 45.7045 20.7741 45.7149 20.7539 45.754Z" fill="white"/>
<path d="M34.197 40.7735L33.1616 39.851C33.1447 39.8359 33.1188 39.8374 33.1037 39.8544L30.9716 42.2474C30.9565 42.2643 30.958 42.2902 30.9749 42.3053L32.0103 43.2278C32.0272 43.2429 32.0531 43.2414 32.0682 43.2244L34.2003 40.8314C34.2154 40.8145 34.2139 40.7886 34.197 40.7735Z" fill="white"/>
<path d="M45.7842 42.4302H44.3955C44.3734 42.4302 44.3555 42.4481 44.3555 42.4702V46.9702C44.3555 46.9923 44.3734 47.0103 44.3955 47.0103H45.7842C45.8063 47.0103 45.8242 46.9923 45.8242 46.9702V42.4702C45.8242 42.4481 45.8063 42.4302 45.7842 42.4302Z" fill="white"/>
<path d="M36.5067 43.9559L33.1342 44.6605C33.1131 44.6649 33.0996 44.6856 33.104 44.7067L33.3884 46.0679C33.3928 46.089 33.4135 46.1026 33.4346 46.0982L36.8071 45.3936C36.8282 45.3892 36.8418 45.3685 36.8374 45.3474L36.553 43.9862C36.5486 43.965 36.5279 43.9515 36.5067 43.9559Z" fill="white"/>
<path d="M26.2159 47.6736L24.8468 47.9175C24.8256 47.9212 24.8114 47.9415 24.8152 47.9628L25.0591 49.3318C25.0629 49.3531 25.0831 49.3672 25.1044 49.3635L26.4735 49.1196C26.4947 49.1158 26.5088 49.0955 26.5051 49.0743L26.2612 47.7052C26.2574 47.684 26.2371 47.6698 26.2159 47.6736Z" fill="white"/>
<path d="M35.9688 49.1728L33.057 47.8335C33.0359 47.8238 33.011 47.833 33.0013 47.8541L32.4227 49.1121C32.413 49.1332 32.4222 49.1581 32.4433 49.1678L35.3551 50.5071C35.3762 50.5168 35.4011 50.5076 35.4108 50.4865L35.9895 49.2285C35.9991 49.2074 35.9899 49.1825 35.9688 49.1728Z" fill="white"/>
<path d="M21.9771 48.4221L20.6076 48.6636C20.5864 48.6674 20.5722 48.6876 20.5759 48.7089L20.8174 50.0784C20.8212 50.0996 20.8414 50.1138 20.8627 50.1101L22.2322 49.8686C22.2534 49.8648 22.2676 49.8446 22.2639 49.8233L22.0224 48.4538C22.0186 48.4326 21.9984 48.4184 21.9771 48.4221Z" fill="white"/>
<path d="M10.5 54.4536V50.354L11.915 50.3462C11.9482 50.3462 11.9648 50.3625 11.9648 50.395C11.9681 51.4751 11.9684 52.4897 11.9658 53.439C11.9639 54.1506 11.9831 54.5887 12.0234 54.7534C12.2129 55.5327 12.7969 56.1743 13.5742 56.3882C13.791 56.4487 14.0781 56.4777 14.4355 56.4751C16.0182 56.4666 17.6032 56.4653 19.1904 56.4712C19.1961 56.4712 19.2016 56.4736 19.2056 56.4778C19.2097 56.482 19.2119 56.4877 19.2119 56.4937L19.2129 61.7114C19.2129 61.7155 19.2139 61.7195 19.2158 61.7231C19.2177 61.7266 19.2205 61.7297 19.2239 61.7319C19.2273 61.7341 19.2312 61.7355 19.2352 61.7358C19.2393 61.7362 19.2433 61.7355 19.2471 61.7339C23.137 60.0002 27.0065 58.273 30.8555 56.5522C30.9746 56.4989 31.0977 56.4722 31.2246 56.4722C34.651 56.4644 38.1644 56.4657 41.7646 56.4761C42.279 56.478 42.6595 56.4318 42.9062 56.3374C43.8291 55.9839 44.3555 55.1636 44.3555 54.186C44.3568 52.2726 44.3568 50.3898 44.3555 48.5376C44.3555 48.4985 44.375 48.479 44.4141 48.479H45.7578C45.8014 48.479 45.8232 48.5008 45.8232 48.5444C45.8239 50.4416 45.8239 52.3332 45.8232 54.2192C45.8223 55.9019 44.7373 57.355 43.1328 57.8013C42.8047 57.8924 42.402 57.938 41.9248 57.938C38.4788 57.9341 35.0254 57.9331 31.5645 57.9351C31.4297 57.9351 31.3021 57.9621 31.1816 58.0161C26.7604 59.9901 22.2979 61.981 17.7939 63.9888C17.7886 63.9912 17.7828 63.9923 17.777 63.9919C17.7712 63.9915 17.7655 63.9897 17.7606 63.9866C17.7557 63.9835 17.7516 63.9792 17.7487 63.9741C17.7458 63.9691 17.7443 63.9634 17.7441 63.9575L17.7451 57.98C17.7451 57.9691 17.7408 57.9587 17.7331 57.951C17.7254 57.9433 17.715 57.939 17.7041 57.939C16.6403 57.9272 15.5944 57.9282 14.5664 57.9419C13.9889 57.9504 13.5098 57.8976 13.1289 57.7837C11.626 57.3335 10.6172 56.023 10.5 54.4536Z" fill="white"/>
</g>
<defs>
<linearGradient id="paint0_linear_69_540" x1="35.5" y1="0.467285" x2="35.5" y2="72.9348" gradientUnits="userSpaceOnUse">
<stop stop-color="#FF242E"/>
<stop offset="1" stop-color="#FF6019"/>
</linearGradient>
<linearGradient id="paint1_linear_69_540" x1="35.5" y1="0.467285" x2="59.9233" y2="72.4338" gradientUnits="userSpaceOnUse">
<stop stop-color="#FF242E"/>
<stop offset="1" stop-color="#FF6019"/>
</linearGradient>
<clipPath id="clip0_69_540">
<rect width="50" height="50" fill="white" transform="translate(10.5 14.0103)"/>
</clipPath>
</defs>
</svg>
