<svg width="71" height="74" viewBox="0 0 71 74" fill="none" xmlns="http://www.w3.org/2000/svg">
<path d="M68 37.1688C68 55.8818 53.3683 70.9026 35.5 70.9026C17.6317 70.9026 3 55.8818 3 37.1688C3 18.4558 17.6317 3.43506 35.5 3.43506C53.3683 3.43506 68 18.4558 68 37.1688Z" fill="url(#paint0_linear_69_542)" stroke="url(#paint1_linear_69_542)" stroke-width="5"/>
<path d="M37.6406 23.9055C38.1953 25.007 38.8024 26.2108 39.4619 27.5168C39.512 27.6158 39.5465 27.7183 39.5654 27.8244C39.6973 28.5539 38.7998 29.0832 38.2373 28.6018C38.1331 28.5132 38.027 28.3619 37.9189 28.1477C37.0407 26.4055 36.1628 24.6633 35.2851 22.9211C35.0371 22.4309 35.1846 21.9533 35.6533 21.718C37.4795 20.8039 39.2891 19.8898 41.082 18.9758C41.8945 18.5617 42.7031 19.5881 42.0771 20.2756C42.0075 20.3524 41.8854 20.4351 41.7109 20.5236C40.5625 21.1076 39.4287 21.6786 38.3096 22.2365C38.2607 22.2606 38.2627 22.2795 38.3154 22.2932C44.5264 23.8811 50.625 27.9152 51.7558 34.6916C51.8594 35.3098 51.2891 35.799 50.6904 35.6145C50.2832 35.4885 50.1553 35.174 50.0791 34.76C48.9687 28.6867 43.2451 25.2141 37.6846 23.8498C37.6292 23.8361 37.6146 23.8547 37.6406 23.9055Z" fill="white"/>
<path d="M21.917 36.2037C21.9215 38.9784 21.9215 41.6692 21.917 44.2759C21.915 45.3638 20.2607 45.3707 20.2598 44.2662C20.2585 41.6959 20.2581 39.0136 20.2588 36.2193C20.2588 36.1666 20.2402 36.1591 20.2031 36.1968C19.2389 37.1636 18.29 38.1119 17.3564 39.0416C16.5557 39.8384 15.3721 38.6812 16.2051 37.8482C17.6035 36.4498 19.0478 35.0071 20.5381 33.5201C20.7646 33.2935 21.1982 33.2466 21.4599 33.4058C21.5928 33.4865 21.7174 33.5855 21.834 33.7027C23.2376 35.1141 24.6103 36.4878 25.9521 37.8238C26.04 37.911 26.1123 38.0106 26.1689 38.1226C26.499 38.773 25.8291 39.4918 25.167 39.2593C25.0198 39.2079 24.8558 39.0904 24.6748 38.9068C23.7731 37.9908 22.8678 37.0836 21.959 36.1851C21.931 36.1578 21.917 36.164 21.917 36.2037Z" fill="white"/>
<path d="M35.458 39.1986C34.7933 39.8575 33.9189 40.7295 32.8349 41.8148C31.9785 42.6723 30.834 41.475 31.6172 40.6898C32.4993 39.8064 33.3896 38.9161 34.2881 38.0189C34.2987 38.0083 34.3046 37.9939 34.3046 37.9789C34.3046 37.9639 34.2987 37.9495 34.2881 37.9389C33.4638 37.112 32.5716 36.2198 31.6113 35.2621C30.833 34.4857 32.0049 33.3139 32.7881 34.0951C33.7529 35.0567 34.6481 35.9512 35.4736 36.7787C35.4809 36.7859 35.4907 36.7899 35.501 36.7899C35.5112 36.7899 35.521 36.7859 35.5283 36.7787C36.4079 35.8998 37.2933 35.0134 38.1845 34.1195C39.0009 33.2992 40.1748 34.4779 39.373 35.2797C38.4713 36.182 37.582 37.0717 36.7051 37.9486C36.6971 37.9567 36.6926 37.9676 36.6926 37.9789C36.6926 37.9902 36.6971 38.0011 36.7051 38.0092C37.528 38.8347 38.3929 39.6983 39.2998 40.6C39.6386 40.9369 39.7715 41.3656 39.458 41.7894C39.1552 42.1976 38.5674 42.2182 38.2148 41.8656C37.3854 41.0375 36.4974 40.1488 35.5508 39.1996C35.5195 39.1683 35.4886 39.168 35.458 39.1986Z" fill="white"/>
<path d="M55.0762 42.0581C55.0762 42.6008 54.9693 43.1382 54.7616 43.6397C54.5539 44.1411 54.2495 44.5967 53.8657 44.9804C53.4819 45.3642 53.0263 45.6686 52.5249 45.8763C52.0235 46.084 51.4861 46.1909 50.9434 46.1909C50.4006 46.1909 49.8632 46.084 49.3618 45.8763C48.8604 45.6686 48.4048 45.3642 48.021 44.9804C47.6373 44.5967 47.3328 44.1411 47.1251 43.6397C46.9174 43.1382 46.8105 42.6008 46.8105 42.0581C46.8105 40.962 47.246 39.9108 48.021 39.1358C48.7961 38.3607 49.8473 37.9253 50.9434 37.9253C52.0394 37.9253 53.0906 38.3607 53.8657 39.1358C54.6408 39.9108 55.0762 40.962 55.0762 42.0581ZM53.417 42.0581C53.417 41.7333 53.353 41.4116 53.2287 41.1115C53.1044 40.8114 52.9222 40.5387 52.6925 40.309C52.4628 40.0793 52.1901 39.8971 51.89 39.7728C51.5899 39.6485 51.2682 39.5845 50.9434 39.5845C50.2873 39.5845 49.6581 39.8451 49.1942 40.309C48.7303 40.7729 48.4697 41.4021 48.4697 42.0581C48.4697 42.7142 48.7303 43.3433 49.1942 43.8072C49.6581 44.2711 50.2873 44.5317 50.9434 44.5317C51.2682 44.5317 51.5899 44.4678 51.89 44.3434C52.1901 44.2191 52.4628 44.0369 52.6925 43.8072C52.9222 43.5775 53.1044 43.3048 53.2287 43.0047C53.353 42.7046 53.417 42.3829 53.417 42.0581Z" fill="white"/>
<path d="M25.2197 50.8452C25.2197 51.9413 24.7843 52.9925 24.0093 53.7676C23.2342 54.5426 22.183 54.978 21.0869 54.978C19.9908 54.978 18.9396 54.5426 18.1646 53.7676C17.3895 52.9925 16.9541 51.9413 16.9541 50.8452C16.9541 49.7491 17.3895 48.6979 18.1646 47.9229C18.9396 47.1478 19.9908 46.7124 21.0869 46.7124C22.183 46.7124 23.2342 47.1478 24.0093 47.9229C24.7843 48.6979 25.2197 49.7491 25.2197 50.8452ZM23.5605 50.8462C23.5605 50.1901 23.2999 49.561 22.836 49.0971C22.3721 48.6332 21.743 48.3726 21.0869 48.3726C20.4309 48.3726 19.8017 48.6332 19.3378 49.0971C18.8739 49.561 18.6133 50.1901 18.6133 50.8462C18.6133 51.5022 18.8739 52.1314 19.3378 52.5953C19.8017 53.0592 20.4309 53.3198 21.0869 53.3198C21.743 53.3198 22.3721 53.0592 22.836 52.5953C23.2999 52.1314 23.5605 51.5022 23.5605 50.8462Z" fill="white"/>
<defs>
<linearGradient id="paint0_linear_69_542" x1="35.5" y1="0.935059" x2="35.5" y2="73.4026" gradientUnits="userSpaceOnUse">
<stop stop-color="#FF242E"/>
<stop offset="1" stop-color="#FF6019"/>
</linearGradient>
<linearGradient id="paint1_linear_69_542" x1="35.5" y1="0.935059" x2="59.9233" y2="72.9016" gradientUnits="userSpaceOnUse">
<stop stop-color="#FF242E"/>
<stop offset="1" stop-color="#FF6019"/>
</linearGradient>
</defs>
</svg>
