<svg width="70" height="73" viewBox="0 0 70 73" fill="none" xmlns="http://www.w3.org/2000/svg">
<path d="M67.5 36.2338C67.5 54.9468 52.8683 69.9675 35 69.9675C17.1317 69.9675 2.5 54.9468 2.5 36.2338C2.5 17.5208 17.1317 2.5 35 2.5C52.8683 2.5 67.5 17.5208 67.5 36.2338Z" fill="url(#paint0_linear_69_543)" stroke="url(#paint1_linear_69_543)" stroke-width="5"/>
<g clip-path="url(#clip0_69_543)">
<path d="M34.5449 11H35.4727C39.1875 11.0911 42.6416 11.916 45.835 13.4746C48.8532 14.9466 51.4362 16.887 53.584 19.2959C57.6673 23.8747 59.806 29.2897 60 35.541V36.4727C59.9147 40.2018 59.0814 43.6794 57.5 46.9053C56.0456 49.8727 54.1377 52.4157 51.7764 54.5342C47.1826 58.6566 41.7432 60.8118 35.458 61H34.5283C30.7985 60.9154 27.3206 60.082 24.0947 58.5C21.1273 57.0456 18.5843 55.1377 16.4658 52.7764C12.3434 48.1826 10.1882 42.7435 10 36.459V35.5244C10.1914 29.2653 12.3353 23.8444 16.4316 19.2617C18.5833 16.8542 21.1706 14.9176 24.1934 13.4521C27.3978 11.8988 30.8483 11.0814 34.5449 11ZM46.04 15.4639C45.5762 15.2129 45.0986 14.9844 44.6211 14.752C44.5951 14.7389 44.5687 14.738 44.542 14.749L35.9326 18.1914C35.9202 18.1963 35.9096 18.2049 35.9021 18.216C35.8946 18.2272 35.8906 18.2404 35.8906 18.2539L35.8965 26.5762C35.8965 26.612 35.9102 26.641 35.9375 26.6631L44.0771 33.1719C44.0862 33.179 44.0968 33.1839 44.108 33.1859C44.1193 33.188 44.1308 33.1872 44.1416 33.1836L52.584 30.3691C52.598 30.3646 52.6107 30.3565 52.6208 30.3456C52.6309 30.3347 52.638 30.3212 52.6416 30.3066L54.3496 23.0508C54.3533 23.0348 54.3536 23.0182 54.3506 23.0021C54.3476 22.9859 54.3413 22.9706 54.332 22.957C52.1484 19.778 49.3844 17.2803 46.04 15.4639ZM24.9805 14.9395C21.1432 16.8099 18.0378 19.4863 15.6641 22.9688C15.657 22.9788 15.6523 22.9902 15.6501 23.0022C15.6479 23.0142 15.6483 23.0264 15.6514 23.0381L17.3682 30.335C17.3697 30.3418 17.3729 30.3481 17.3775 30.3532C17.3822 30.3584 17.388 30.3622 17.3945 30.3643L25.8789 33.1865C25.8843 33.1883 25.8899 33.1888 25.8954 33.188C25.9008 33.1871 25.9059 33.185 25.9102 33.1816L34.0576 26.666C34.0737 26.6532 34.0868 26.6369 34.0957 26.6183C34.1047 26.5997 34.1094 26.5793 34.1094 26.5586V18.2256C34.1094 18.2204 34.1079 18.2154 34.1049 18.2112C34.1019 18.207 34.0977 18.2038 34.0928 18.2021L25.4258 14.7695C25.3978 14.7585 25.3701 14.7591 25.3428 14.7715C25.2178 14.8268 25.097 14.8828 24.9805 14.9395ZM11.7852 38.2158C12.1562 41.9834 13.4092 45.6113 15.4902 48.7598C15.4961 48.7687 15.5038 48.7763 15.5131 48.7822C15.5223 48.7881 15.5328 48.7921 15.5439 48.7939L23.7197 50.085C23.7293 50.0864 23.739 50.0853 23.7479 50.0817C23.7569 50.0781 23.7647 50.0721 23.7705 50.0645L27.7568 44.7568C27.7757 44.7321 27.7816 44.7041 27.7744 44.6729L25.3379 34.9307C25.3352 34.9188 25.3294 34.9078 25.3212 34.8989C25.313 34.8899 25.3026 34.8834 25.291 34.8799L16.9111 32.0889C16.8792 32.0778 16.8525 32.0853 16.8311 32.1113L11.8105 38.1348C11.791 38.1582 11.7826 38.1852 11.7852 38.2158ZM54.5215 48.752C56.5918 45.5859 57.8496 42.0029 58.2178 38.2285C58.2217 38.1908 58.2116 38.1572 58.1875 38.1279L53.1719 32.1113C53.1504 32.0853 53.1237 32.0778 53.0918 32.0889L44.7041 34.8838C44.6859 34.8896 44.6745 34.9017 44.6699 34.9199L42.2275 44.6875C42.2254 44.6964 42.2253 44.7058 42.2271 44.7149C42.229 44.724 42.2328 44.7326 42.2383 44.7402L46.2744 50.0693C46.2776 50.0737 46.282 50.0771 46.2872 50.0792C46.2923 50.0813 46.298 50.0819 46.3037 50.0811L54.4541 48.7949C54.4827 48.7904 54.5052 48.776 54.5215 48.752ZM40.582 58.5996L44.8262 51.1729C44.8317 51.163 44.8343 51.1518 44.8336 51.1407C44.8329 51.1296 44.829 51.119 44.8223 51.1104L40.8193 45.8281C40.8154 45.823 40.8103 45.8188 40.8044 45.8159C40.7984 45.8131 40.7919 45.8115 40.7852 45.8115H29.2451C29.2106 45.8115 29.1833 45.8252 29.1631 45.8525L25.2441 51.0762C25.2375 51.085 25.2338 51.0956 25.2335 51.1066C25.2331 51.1176 25.2362 51.1285 25.2422 51.1377L30.1211 58.7773C30.1304 58.7919 30.1424 58.8043 30.1565 58.8141C30.1706 58.8238 30.1864 58.8306 30.2031 58.834C33.6517 59.5423 37.0814 59.4867 40.4922 58.667C40.511 58.6624 40.5287 58.654 40.5441 58.6424C40.5596 58.6308 40.5725 58.6163 40.582 58.5996Z" fill="white"/>
</g>
<defs>
<linearGradient id="paint0_linear_69_543" x1="35" y1="0" x2="35" y2="72.4675" gradientUnits="userSpaceOnUse">
<stop stop-color="#FF242E"/>
<stop offset="1" stop-color="#FF6019"/>
</linearGradient>
<linearGradient id="paint1_linear_69_543" x1="35" y1="0" x2="59.4233" y2="71.9665" gradientUnits="userSpaceOnUse">
<stop stop-color="#FF242E"/>
<stop offset="1" stop-color="#FF6019"/>
</linearGradient>
<clipPath id="clip0_69_543">
<rect width="50" height="50" fill="white" transform="translate(10 11)"/>
</clipPath>
</defs>
</svg>
